{"glyphs":{"0":{"ha":749,"x_min":58,"x_max":692,"o":"m 692 490 q 670 274 692 368 q 606 115 648 180 q 504 17 564 50 q 366 -17 443 -17 q 235 15 292 -17 q 138 109 178 47 q 79 261 99 171 q 58 467 58 351 q 80 692 58 594 q 142 856 101 789 q 245 955 184 922 q 386 989 307 989 q 692 490 692 989 m 578 479 q 380 895 578 895 q 172 472 172 895 q 376 78 172 78 q 578 479 578 78 z "},"1":{"ha":749,"x_min":155,"x_max":491,"o":"m 491 0 l 380 0 l 380 840 q 342 811 367 827 q 287 778 317 794 q 221 747 256 762 q 155 725 187 733 l 155 838 q 232 865 191 848 q 313 904 273 882 q 388 948 353 925 q 449 994 423 972 l 491 994 l 491 0 z "},"2":{"ha":749,"x_min":74,"x_max":674,"o":"m 524 718 q 510 795 524 762 q 472 851 496 829 q 415 884 448 873 q 345 895 382 895 q 281 886 312 895 q 220 861 250 877 q 163 824 191 846 q 112 776 136 802 l 112 895 q 217 965 159 941 q 358 989 275 989 q 469 971 418 989 q 557 921 519 954 q 615 839 594 888 q 637 727 637 790 q 624 623 637 669 q 584 534 610 576 q 516 455 557 493 q 420 378 475 417 q 308 294 352 329 q 237 230 263 260 q 200 169 211 199 q 190 100 190 139 l 674 100 l 674 0 l 74 0 l 74 48 q 87 158 74 111 q 132 248 101 205 q 214 334 163 291 q 338 430 264 376 q 426 503 391 468 q 484 572 462 537 q 514 642 505 606 q 524 718 524 677 z "},"3":{"ha":749,"x_min":83,"x_max":646,"o":"m 646 275 q 622 156 646 210 q 552 63 597 102 q 444 4 507 25 q 304 -17 380 -17 q 83 36 165 -17 l 83 155 q 309 78 182 78 q 400 91 359 78 q 471 128 441 104 q 516 187 500 153 q 532 265 532 222 q 261 456 532 456 l 180 456 l 180 550 l 257 550 q 497 729 497 550 q 314 895 497 895 q 121 825 211 895 l 121 933 q 342 989 214 989 q 452 972 403 989 q 537 924 502 955 q 592 851 572 894 q 611 757 611 808 q 417 510 611 565 l 417 507 q 509 483 467 502 q 581 435 551 465 q 629 365 612 405 q 646 275 646 324 z "},"4":{"ha":749,"x_min":9,"x_max":701,"o":"m 576 972 l 576 330 l 701 330 l 701 229 l 576 229 l 576 0 l 467 0 l 467 229 l 9 229 l 9 325 q 138 478 73 397 q 263 644 203 560 q 373 812 322 728 q 458 972 423 896 l 576 972 m 135 330 l 467 330 l 467 806 q 370 648 416 718 q 284 521 325 578 q 205 418 243 464 q 135 330 168 372 z "},"5":{"ha":749,"x_min":111,"x_max":657,"o":"m 657 297 q 633 168 657 226 q 563 69 608 111 q 454 5 518 28 q 313 -17 391 -17 q 111 24 177 -17 l 111 142 q 314 78 210 78 q 409 94 367 78 q 481 137 452 109 q 527 204 511 165 q 543 290 543 243 q 479 439 543 385 q 294 493 416 493 q 253 492 275 493 q 210 491 231 492 q 167 488 188 490 q 130 485 146 487 l 163 972 l 612 972 l 612 872 l 259 872 l 239 587 q 286 589 261 588 q 329 590 310 590 q 467 570 406 590 q 571 512 528 549 q 635 419 613 474 q 657 297 657 365 z "},"6":{"ha":749,"x_min":75,"x_max":693,"o":"m 693 309 q 670 178 693 237 q 606 75 647 118 q 509 7 566 31 q 387 -17 453 -17 q 256 14 314 -17 q 158 101 198 44 q 96 241 117 159 q 75 428 75 324 q 103 658 75 555 q 183 835 132 762 q 309 949 235 909 q 472 989 382 989 q 633 961 572 989 l 633 856 q 475 895 558 895 q 357 865 410 895 q 268 783 305 836 q 211 654 231 730 q 191 487 191 579 l 193 487 q 415 608 260 608 q 530 587 479 608 q 617 525 581 565 q 673 431 654 486 q 693 309 693 376 m 579 294 q 566 386 579 345 q 529 455 553 427 q 470 499 505 484 q 390 514 435 514 q 313 498 349 514 q 252 456 278 483 q 212 394 227 429 q 197 318 197 358 q 212 224 197 268 q 252 148 226 180 q 313 97 277 115 q 392 78 349 78 q 469 94 434 78 q 528 138 503 110 q 566 207 552 167 q 579 294 579 246 z "},"7":{"ha":749,"x_min":66,"x_max":685,"o":"m 685 908 q 631 812 663 869 q 564 682 600 754 q 492 528 529 610 q 424 357 456 445 q 368 178 392 269 q 333 0 344 87 l 214 0 q 251 177 226 87 q 309 355 277 268 q 377 523 341 442 q 447 671 413 604 q 509 791 481 739 q 554 872 537 843 l 66 872 l 66 972 l 685 972 l 685 908 z "},"8":{"ha":749,"x_min":61,"x_max":692,"o":"m 61 271 q 73 349 61 310 q 108 422 85 388 q 164 484 131 456 q 241 528 198 511 q 140 618 178 563 q 103 741 103 673 q 124 840 103 794 q 181 918 144 885 q 268 970 218 951 q 376 989 318 989 q 486 970 435 989 q 572 918 536 951 q 629 839 609 884 q 650 741 650 793 q 612 618 650 673 q 513 528 575 563 q 589 484 555 511 q 645 422 622 456 q 680 349 667 388 q 692 271 692 310 q 669 155 692 208 q 604 64 646 102 q 504 5 562 26 q 376 -16 446 -16 q 250 5 307 -16 q 150 64 192 26 q 84 155 108 102 q 61 271 61 208 m 182 281 q 196 199 182 235 q 235 136 210 162 q 297 97 260 111 q 377 83 333 83 q 456 97 420 83 q 518 137 492 111 q 558 199 544 163 q 573 281 573 236 q 559 357 573 321 q 519 420 545 393 q 458 463 494 447 q 377 478 422 478 q 299 464 335 478 q 238 423 264 449 q 197 360 212 397 q 182 281 182 324 m 216 732 q 229 668 216 697 q 263 616 241 638 q 315 582 286 594 q 377 569 344 569 q 440 582 410 569 q 491 617 469 595 q 526 668 513 639 q 538 732 538 698 q 526 797 538 767 q 492 848 513 827 q 440 883 470 870 q 377 895 411 895 q 312 882 341 895 q 261 847 282 869 q 228 795 239 825 q 216 732 216 766 z "},"9":{"ha":749,"x_min":64,"x_max":681,"o":"m 681 545 q 654 307 681 411 q 577 131 628 203 q 453 21 526 58 q 286 -17 380 -17 q 117 17 190 -17 l 117 123 q 289 78 197 78 q 407 105 355 78 q 494 184 458 132 q 549 312 530 236 q 568 486 568 388 l 566 486 q 349 361 503 361 q 234 383 286 361 q 144 445 182 405 q 85 541 106 486 q 64 664 64 597 q 87 795 64 736 q 152 898 111 855 q 251 965 194 941 q 376 989 309 989 q 506 959 450 989 q 602 873 563 930 q 661 734 640 817 q 681 545 681 651 m 561 644 q 546 747 561 701 q 506 826 532 793 q 445 877 480 859 q 367 895 409 895 q 292 879 327 895 q 232 834 258 863 q 192 765 207 805 q 178 679 178 726 q 192 587 178 627 q 231 518 205 546 q 293 475 257 490 q 374 460 330 460 q 447 474 412 460 q 506 514 481 489 q 546 572 532 538 q 561 644 561 606 z "}," ":{"ha":380,"x_min":0,"x_max":0,"o":""},"!":{"ha":395,"x_min":122,"x_max":273,"o":"m 254 972 l 241 274 l 150 274 l 138 972 l 254 972 m 197 -12 q 144 9 166 -12 q 122 62 122 31 q 144 116 122 94 q 197 138 166 138 q 250 116 228 138 q 273 62 273 94 q 250 9 273 31 q 197 -12 228 -12 z "},"\"":{"ha":545,"x_min":111,"x_max":434,"o":"m 209 972 l 209 669 l 111 669 l 111 972 l 209 972 m 434 972 l 434 669 l 336 669 l 336 972 l 434 972 z "},"#":{"ha":821,"x_min":22,"x_max":791,"o":"m 791 700 l 775 628 l 598 628 l 555 425 l 746 425 l 728 353 l 541 353 l 481 83 l 396 83 l 454 353 l 285 353 l 228 83 l 143 83 l 200 353 l 22 353 l 36 425 l 216 425 l 257 628 l 69 628 l 83 700 l 271 700 l 328 972 l 414 972 l 357 700 l 528 700 l 586 972 l 669 972 l 612 700 l 791 700 m 514 628 l 343 628 l 298 425 l 471 425 l 514 628 z "},"$":{"ha":749,"x_min":110,"x_max":663,"o":"m 418 5 l 418 -142 l 347 -142 l 347 0 q 113 58 203 0 l 113 176 q 220 118 152 142 q 347 95 288 95 l 347 442 q 154 575 198 514 q 110 718 110 635 q 177 888 110 817 q 347 974 244 960 l 347 1096 l 418 1096 l 418 977 q 602 939 551 972 l 602 823 q 418 882 532 878 l 418 524 q 611 394 559 456 q 663 251 663 331 q 598 89 663 155 q 418 5 533 24 m 347 562 l 347 878 q 257 827 290 866 q 224 732 224 788 q 251 637 224 674 q 347 562 278 600 m 418 407 l 418 100 q 549 241 549 129 q 418 407 549 335 z "},"%":{"ha":1137,"x_min":54,"x_max":1085,"o":"m 274 485 q 114 551 174 485 q 54 728 54 617 q 117 918 54 848 q 288 987 180 987 q 449 923 391 987 q 506 742 506 859 q 442 555 506 625 q 274 485 378 485 m 283 913 q 182 865 219 913 q 144 734 144 817 q 181 606 144 652 q 281 560 218 560 q 380 608 345 560 q 416 739 416 655 q 381 867 416 821 q 283 913 345 913 m 925 972 l 301 -7 l 204 -7 l 827 972 l 925 972 m 853 -15 q 693 52 753 -15 q 633 228 633 118 q 697 419 633 349 q 867 489 761 489 q 1027 424 970 489 q 1085 241 1085 359 q 1021 55 1085 125 q 853 -15 957 -15 m 863 412 q 761 365 798 412 q 724 233 724 317 q 760 107 724 153 q 860 61 797 61 q 960 109 924 61 q 996 240 996 157 q 960 368 996 323 q 863 412 924 412 z "},"&":{"ha":1112,"x_min":81,"x_max":1084,"o":"m 980 -16 q 912 -5 941 -16 q 857 25 882 5 q 809 72 832 44 q 760 135 785 100 q 697 79 732 106 q 618 31 661 52 q 523 -3 574 9 q 411 -16 471 -16 q 277 3 338 -16 q 172 57 216 21 q 105 144 129 92 q 81 264 81 197 q 140 442 81 368 q 307 562 199 515 q 266 597 286 577 q 230 643 245 617 q 204 699 214 668 q 194 766 194 730 q 213 861 194 820 q 267 931 233 903 q 347 974 300 960 q 446 989 393 989 q 543 974 499 989 q 618 932 587 960 q 667 867 650 905 q 685 783 685 829 q 638 647 685 701 q 499 555 592 593 q 584 511 546 537 q 654 452 622 484 q 714 382 686 419 q 769 304 742 345 q 852 473 824 381 q 880 667 880 566 q 877 715 880 692 q 868 760 873 738 l 976 760 q 982 718 981 738 q 985 670 983 698 q 972 546 985 608 q 937 425 959 484 q 887 313 916 366 q 826 216 858 260 q 869 160 850 184 q 909 119 889 136 q 950 95 929 103 q 999 87 972 87 q 1040 93 1019 87 q 1084 106 1061 98 l 1084 3 q 1033 -11 1059 -6 q 980 -16 1006 -16 m 411 81 q 506 92 463 81 q 586 122 549 103 q 652 165 623 140 q 707 217 682 190 q 630 327 665 281 q 560 406 595 373 q 484 463 524 439 q 391 507 444 487 q 312 470 348 490 q 250 421 276 449 q 209 355 224 393 q 194 268 194 318 q 211 186 194 222 q 257 128 228 151 q 326 93 287 104 q 411 81 366 81 m 581 773 q 568 831 581 807 q 536 870 555 854 q 493 893 517 886 q 446 900 469 900 q 340 864 380 900 q 300 766 300 828 q 308 714 300 739 q 332 669 317 690 q 368 631 347 648 q 411 604 388 615 q 538 673 496 633 q 581 773 581 713 z "},"'":{"ha":319,"x_min":111,"x_max":209,"o":"m 209 972 l 209 669 l 111 669 l 111 972 l 209 972 z "},"(":{"ha":419,"x_min":95,"x_max":406,"o":"m 404 -221 l 305 -221 q 95 371 95 19 q 305 972 95 724 l 406 972 q 193 372 193 715 q 404 -221 193 33 z "},")":{"ha":419,"x_min":15,"x_max":327,"o":"m 115 -221 l 16 -221 q 228 372 228 33 q 15 972 228 715 l 115 972 q 327 371 327 724 q 115 -221 327 19 z "},"*":{"ha":579,"x_min":52,"x_max":529,"o":"m 529 749 l 343 711 l 472 546 l 397 494 l 292 674 l 184 494 l 110 546 l 239 711 l 52 749 l 82 833 l 260 766 l 244 972 l 338 972 l 322 766 l 500 833 l 529 749 z "},"+":{"ha":950,"x_min":157,"x_max":795,"o":"m 795 359 l 521 359 l 521 86 l 431 86 l 431 359 l 157 359 l 157 450 l 431 450 l 431 724 l 521 724 l 521 450 l 795 450 l 795 359 z "},",":{"ha":301,"x_min":26,"x_max":214,"o":"m 214 155 l 106 -179 l 26 -179 l 106 155 l 214 155 z "},"-":{"ha":555,"x_min":98,"x_max":468,"o":"m 468 343 l 98 343 l 98 431 l 468 431 l 468 343 z "},".":{"ha":301,"x_min":76,"x_max":228,"o":"m 151 -15 q 98 7 120 -15 q 76 61 76 30 q 98 115 76 92 q 151 138 120 138 q 205 115 183 138 q 228 61 228 92 q 205 7 228 30 q 151 -15 183 -15 z "},"/":{"ha":541,"x_min":-19,"x_max":551,"o":"m 551 972 l 85 -161 l -19 -161 l 446 972 l 551 972 z "},":":{"ha":301,"x_min":76,"x_max":228,"o":"m 151 559 q 98 581 120 559 q 76 635 76 604 q 98 688 76 666 q 151 709 120 709 q 205 688 183 709 q 228 635 228 666 q 205 581 228 604 q 151 559 183 559 m 151 -15 q 98 7 120 -15 q 76 61 76 30 q 98 115 76 92 q 151 138 120 138 q 205 115 183 138 q 228 61 228 92 q 205 7 228 30 q 151 -15 183 -15 z "},";":{"ha":301,"x_min":26,"x_max":229,"o":"m 153 559 q 99 581 121 559 q 77 635 77 604 q 99 688 77 666 q 153 709 121 709 q 207 688 184 709 q 229 635 229 666 q 207 581 229 604 q 153 559 184 559 m 214 155 l 106 -179 l 26 -179 l 106 155 l 214 155 z "},"<":{"ha":950,"x_min":184,"x_max":768,"o":"m 768 86 l 184 379 l 184 419 l 768 746 l 768 644 l 332 403 l 332 400 l 768 187 l 768 86 z "},"=":{"ha":950,"x_min":157,"x_max":795,"o":"m 795 505 l 157 505 l 157 594 l 795 594 l 795 505 m 795 216 l 157 216 l 157 305 l 795 305 l 795 216 z "},">":{"ha":950,"x_min":184,"x_max":768,"o":"m 768 379 l 184 86 l 184 187 l 621 399 l 621 403 l 184 644 l 184 746 l 768 419 l 768 379 z "},"?":{"ha":623,"x_min":89,"x_max":554,"o":"m 227 270 q 216 316 221 288 q 212 372 212 344 q 229 450 212 415 q 272 515 246 485 q 328 574 298 546 q 385 631 359 602 q 428 691 410 660 q 445 761 445 723 q 432 819 445 793 q 398 861 420 844 q 348 886 376 878 q 288 895 319 895 q 89 804 173 895 l 89 924 q 304 989 193 989 q 401 975 355 989 q 480 935 446 962 q 534 868 515 908 q 554 775 554 828 q 536 686 554 725 q 492 613 519 646 q 434 552 465 581 q 376 495 403 524 q 332 437 349 467 q 314 370 314 406 q 321 313 314 338 q 336 270 329 288 l 227 270 m 288 -12 q 235 9 258 -12 q 213 62 213 31 q 235 115 213 94 q 288 138 258 138 q 341 115 319 138 q 363 62 363 94 q 341 9 363 31 q 288 -12 318 -12 z "},"@":{"ha":1326,"x_min":117,"x_max":1213,"o":"m 789 285 l 786 285 q 591 123 736 123 q 442 192 498 123 q 385 376 385 260 q 464 631 385 530 q 669 732 542 732 q 756 707 718 732 q 806 644 795 682 l 808 644 q 815 722 810 663 l 900 722 q 868 342 868 349 q 949 201 868 201 q 1070 281 1022 201 q 1119 486 1119 360 q 1001 791 1119 673 q 674 909 883 909 q 341 768 473 909 q 210 415 210 627 q 335 79 210 207 q 672 -49 460 -49 q 958 7 840 -49 l 958 -77 q 665 -127 841 -127 q 268 21 418 -127 q 117 411 117 170 q 275 823 117 659 q 680 986 433 986 q 1061 849 910 986 q 1213 492 1213 712 q 1133 227 1213 330 q 939 123 1053 123 q 789 285 790 123 m 668 654 q 532 574 584 654 q 480 375 480 494 q 515 249 480 295 q 608 203 550 203 q 742 287 692 203 q 791 509 791 370 q 668 654 791 654 z "},"A":{"ha":896,"x_min":15,"x_max":880,"o":"m 880 0 l 754 0 l 651 273 l 239 273 l 142 0 l 15 0 l 388 972 l 506 972 l 880 0 m 614 375 l 461 789 q 446 854 454 810 l 444 854 q 428 789 437 813 l 277 375 l 614 375 z "},"B":{"ha":796,"x_min":127,"x_max":726,"o":"m 127 0 l 127 972 l 404 972 q 604 911 530 972 q 678 750 678 849 q 633 606 678 667 q 510 519 589 545 l 510 517 q 667 443 608 505 q 726 279 726 380 q 637 77 726 155 q 411 0 547 0 l 127 0 m 241 869 l 241 555 l 358 555 q 505 601 452 555 q 559 728 559 646 q 372 869 559 869 l 241 869 m 241 453 l 241 103 l 396 103 q 552 151 496 103 q 607 281 607 198 q 372 453 607 453 l 241 453 z "},"C":{"ha":860,"x_min":64,"x_max":789,"o":"m 789 41 q 521 -16 682 -16 q 189 117 313 -16 q 64 468 64 251 q 204 845 64 701 q 560 989 345 989 q 789 949 699 989 l 789 827 q 559 886 685 886 q 287 774 391 886 q 183 475 183 662 q 280 192 183 297 q 536 86 378 86 q 789 151 682 86 l 789 41 z "},"D":{"ha":974,"x_min":127,"x_max":910,"o":"m 127 0 l 127 972 l 396 972 q 910 498 910 972 q 767 137 910 273 q 385 0 625 0 l 127 0 m 241 869 l 241 103 l 387 103 q 684 205 578 103 q 791 496 791 308 q 393 869 791 869 l 241 869 z "},"E":{"ha":703,"x_min":127,"x_max":643,"o":"m 643 0 l 127 0 l 127 972 l 621 972 l 621 869 l 241 869 l 241 546 l 593 546 l 593 444 l 241 444 l 241 103 l 643 103 l 643 0 z "},"F":{"ha":678,"x_min":127,"x_max":621,"o":"m 621 869 l 241 869 l 241 533 l 593 533 l 593 431 l 241 431 l 241 0 l 127 0 l 127 972 l 621 972 l 621 869 z "},"G":{"ha":953,"x_min":64,"x_max":854,"o":"m 854 66 q 529 -16 708 -16 q 192 118 321 -16 q 64 473 64 252 q 207 844 64 699 q 568 989 349 989 q 835 937 727 989 l 835 811 q 555 886 717 886 q 288 773 392 886 q 183 481 183 661 q 280 192 183 297 q 543 86 377 86 q 741 132 657 86 l 741 404 l 528 404 l 528 507 l 854 507 l 854 66 z "},"H":{"ha":986,"x_min":127,"x_max":859,"o":"m 859 0 l 745 0 l 745 444 l 241 444 l 241 0 l 127 0 l 127 972 l 241 972 l 241 546 l 745 546 l 745 972 l 859 972 l 859 0 z "},"I":{"ha":370,"x_min":127,"x_max":241,"o":"m 241 0 l 127 0 l 127 972 l 241 972 l 241 0 z "},"J":{"ha":496,"x_min":14,"x_max":376,"o":"m 376 349 q 303 80 376 176 q 107 -16 230 -16 q 14 0 50 -16 l 14 113 q 109 86 50 86 q 262 347 262 86 l 262 972 l 376 972 l 376 349 z "},"K":{"ha":806,"x_min":127,"x_max":804,"o":"m 804 0 l 646 0 l 270 445 q 244 479 249 470 l 241 479 l 241 0 l 127 0 l 127 972 l 241 972 l 241 515 l 244 515 q 270 549 254 530 l 633 972 l 775 972 l 358 506 l 804 0 z "},"L":{"ha":654,"x_min":127,"x_max":632,"o":"m 632 0 l 127 0 l 127 972 l 241 972 l 241 103 l 632 103 l 632 0 z "},"M":{"ha":1247,"x_min":127,"x_max":1119,"o":"m 1119 0 l 1006 0 l 1006 652 q 1015 842 1006 730 l 1013 842 q 983 747 996 776 l 651 0 l 595 0 l 264 742 q 235 842 250 774 l 232 842 q 237 651 237 783 l 237 0 l 127 0 l 127 972 l 278 972 l 576 294 q 621 178 611 216 l 625 178 q 672 297 654 258 l 977 972 l 1119 972 l 1119 0 z "},"N":{"ha":1039,"x_min":127,"x_max":911,"o":"m 911 0 l 772 0 l 271 775 q 240 836 252 804 l 236 836 q 241 703 241 805 l 241 0 l 127 0 l 127 972 l 275 972 l 762 210 q 802 144 793 162 l 804 144 q 798 288 798 186 l 798 972 l 911 972 l 911 0 z "},"O":{"ha":1047,"x_min":64,"x_max":983,"o":"m 519 -16 q 188 120 313 -16 q 64 475 64 256 q 191 849 64 709 q 536 989 317 989 q 860 853 737 989 q 983 498 983 718 q 857 122 983 260 q 519 -16 731 -16 m 528 886 q 279 775 374 886 q 183 485 183 665 q 276 196 183 305 q 519 86 370 86 q 772 191 680 86 q 864 483 864 295 q 774 781 864 675 q 528 886 685 886 z "},"P":{"ha":778,"x_min":127,"x_max":722,"o":"m 241 368 l 241 0 l 127 0 l 127 972 l 395 972 q 636 897 551 972 q 722 682 722 821 q 627 456 722 544 q 370 368 532 368 l 241 368 m 241 869 l 241 471 l 361 471 q 541 525 479 471 q 603 677 603 578 q 375 869 603 869 l 241 869 z "},"Q":{"ha":1047,"x_min":64,"x_max":1067,"o":"m 519 -16 q 188 120 313 -16 q 64 475 64 256 q 191 849 64 710 q 536 989 318 989 q 860 853 736 989 q 983 498 983 718 q 857 122 983 260 q 793 65 827 89 l 1067 -131 l 860 -131 l 677 6 q 519 -16 605 -16 m 528 886 q 279 775 374 886 q 183 485 183 665 q 276 195 183 306 q 519 86 370 86 q 772 191 680 86 q 864 483 864 295 q 774 781 864 676 q 528 886 685 886 z "},"R":{"ha":831,"x_min":127,"x_max":825,"o":"m 825 0 l 689 0 l 526 273 q 483 337 504 311 q 440 381 462 364 q 392 406 418 398 q 335 414 367 414 l 241 414 l 241 0 l 127 0 l 127 972 l 418 972 q 535 957 481 972 q 629 908 589 941 q 691 827 669 876 q 713 713 713 779 q 698 620 713 663 q 655 545 683 578 q 587 488 627 511 q 498 452 547 465 l 498 449 q 540 424 522 438 q 574 391 558 410 q 607 348 591 372 q 642 292 623 324 l 825 0 m 241 869 l 241 517 l 396 517 q 475 530 439 517 q 538 567 511 543 q 579 626 564 591 q 594 704 594 661 q 544 826 594 782 q 397 869 493 869 l 241 869 z "},"S":{"ha":738,"x_min":82,"x_max":671,"o":"m 82 39 l 82 174 q 137 137 105 153 q 205 110 170 121 q 277 92 241 98 q 343 86 313 86 q 500 125 448 86 q 552 237 552 164 q 535 306 552 277 q 487 359 517 335 q 415 405 456 383 q 325 452 373 427 q 230 504 274 477 q 153 562 186 530 q 102 634 121 594 q 83 729 83 675 q 113 845 83 795 q 189 926 142 894 q 297 973 237 958 q 421 989 358 989 q 631 954 565 989 l 631 826 q 410 886 545 886 q 335 878 372 886 q 269 852 298 870 q 221 807 239 835 q 203 739 203 779 q 217 675 203 702 q 258 625 231 648 q 324 582 285 603 q 414 536 363 561 q 513 481 466 510 q 595 418 559 453 q 651 342 630 384 q 671 245 671 300 q 643 124 671 174 q 567 43 615 74 q 457 -2 519 12 q 326 -16 395 -16 q 269 -13 302 -16 q 199 -2 235 -9 q 133 16 164 5 q 82 39 101 26 z "},"T":{"ha":728,"x_min":28,"x_max":703,"o":"m 703 869 l 422 869 l 422 0 l 308 0 l 308 869 l 28 869 l 28 972 l 703 972 l 703 869 z "},"U":{"ha":954,"x_min":115,"x_max":839,"o":"m 839 393 q 469 -16 839 -16 q 115 378 115 -16 l 115 972 l 229 972 l 229 385 q 481 86 229 86 q 725 375 725 86 l 725 972 l 839 972 l 839 393 z "},"V":{"ha":863,"x_min":12,"x_max":850,"o":"m 850 972 l 490 0 l 365 0 l 12 972 l 139 972 l 408 201 q 428 115 421 164 l 431 115 q 453 203 436 156 l 728 972 l 850 972 z "},"W":{"ha":1297,"x_min":18,"x_max":1280,"o":"m 1280 972 l 1006 0 l 872 0 l 672 711 q 656 810 659 756 l 654 810 q 636 712 650 760 l 435 0 l 302 0 l 18 972 l 143 972 l 350 227 q 366 129 363 180 l 370 129 q 391 227 373 165 l 606 972 l 715 972 l 921 221 q 937 130 932 182 l 940 130 q 958 224 943 165 l 1157 972 l 1280 972 z "},"X":{"ha":819,"x_min":18,"x_max":799,"o":"m 799 0 l 660 0 l 436 372 q 414 420 426 389 l 411 420 q 388 372 404 405 l 157 0 l 18 0 l 343 489 l 43 972 l 183 972 l 382 631 q 416 563 401 597 l 419 563 q 457 633 441 608 l 664 972 l 795 972 l 489 490 l 799 0 z "},"Y":{"ha":768,"x_min":12,"x_max":760,"o":"m 760 972 l 439 359 l 439 0 l 325 0 l 325 357 l 12 972 l 142 972 l 359 533 q 383 473 363 525 l 385 473 q 411 533 392 496 l 639 972 l 760 972 z "},"Z":{"ha":792,"x_min":22,"x_max":762,"o":"m 762 945 l 193 103 l 749 103 l 749 0 l 22 0 l 22 32 l 587 869 l 68 869 l 68 972 l 762 972 l 762 945 z "},"[":{"ha":419,"x_min":136,"x_max":385,"o":"m 385 -221 l 136 -221 l 136 972 l 385 972 l 385 892 l 235 892 l 235 -140 l 385 -140 l 385 -221 z "},"\\":{"ha":526,"x_min":-18,"x_max":541,"o":"m 541 -163 l 439 -163 l -18 972 l 87 972 l 541 -163 z "},"]":{"ha":419,"x_min":36,"x_max":285,"o":"m 285 -221 l 36 -221 l 36 -140 l 186 -140 l 186 892 l 36 892 l 36 972 l 285 972 l 285 -221 z "},"^":{"ha":950,"x_min":156,"x_max":796,"o":"m 796 423 l 694 423 l 469 843 l 465 843 l 256 423 l 156 423 l 442 989 l 486 989 l 796 423 z "},"_":{"ha":576,"x_min":0,"x_max":576,"o":"m 576 -201 l 0 -201 l 0 -121 l 576 -121 l 576 -201 z "},"`":{"ha":372,"x_min":56,"x_max":319,"o":"m 319 826 l 233 826 l 56 1048 l 170 1048 l 319 826 z "},"a":{"ha":707,"x_min":61,"x_max":610,"o":"m 610 0 l 498 0 l 498 109 l 496 109 q 282 -16 423 -16 q 120 39 178 -16 q 61 184 61 94 q 290 411 61 379 l 498 440 q 355 617 498 617 q 129 532 230 617 l 129 646 q 365 711 231 711 q 610 452 610 711 l 610 0 m 498 351 l 331 328 q 214 290 254 317 q 175 193 175 262 q 211 110 175 142 q 308 77 248 77 q 445 135 391 77 q 498 282 498 193 l 498 351 z "},"b":{"ha":817,"x_min":113,"x_max":751,"o":"m 227 100 l 224 100 l 224 0 l 113 0 l 113 1028 l 224 1028 l 224 572 l 227 572 q 467 711 309 711 q 676 617 600 711 q 751 368 751 524 q 667 89 751 193 q 435 -16 582 -16 q 227 100 297 -16 m 224 380 l 224 283 q 280 137 224 197 q 422 77 336 77 q 580 155 523 77 q 637 370 637 232 q 584 551 637 486 q 439 617 530 617 q 283 550 342 617 q 224 380 224 482 z "},"c":{"ha":642,"x_min":65,"x_max":587,"o":"m 586 32 q 396 -16 506 -16 q 156 80 248 -16 q 65 331 65 177 q 163 607 65 503 q 426 711 262 711 q 587 677 517 711 l 587 563 q 422 617 510 617 q 247 541 315 617 q 179 340 179 465 q 243 148 179 218 q 415 77 307 77 q 586 138 506 77 l 586 32 z "},"d":{"ha":818,"x_min":65,"x_max":705,"o":"m 705 0 l 594 0 l 594 118 l 591 118 q 353 -16 514 -16 q 143 77 222 -16 q 65 331 65 170 q 152 607 65 503 q 383 711 239 711 q 591 598 526 711 l 594 598 l 594 1028 l 705 1028 l 705 0 m 594 314 l 594 416 q 538 559 594 500 q 397 617 483 617 q 237 543 296 617 q 179 336 179 468 q 235 147 179 216 q 385 77 291 77 q 536 144 478 77 q 594 314 594 212 z "},"e":{"ha":726,"x_min":65,"x_max":671,"o":"m 671 319 l 180 319 q 243 140 183 203 q 407 77 302 77 q 623 155 524 77 l 623 50 q 380 -16 531 -16 q 149 78 233 -16 q 65 345 65 173 q 157 609 65 507 q 385 711 249 711 q 596 623 522 711 q 671 378 671 534 l 671 319 m 557 414 q 510 564 556 510 q 383 617 465 617 q 250 561 304 617 q 182 414 195 505 l 557 414 z "},"f":{"ha":435,"x_min":36,"x_max":456,"o":"m 456 930 q 382 949 423 949 q 265 802 265 949 l 265 694 l 428 694 l 428 600 l 265 600 l 265 0 l 155 0 l 155 600 l 36 600 l 36 694 l 155 694 l 155 807 q 218 980 155 916 q 375 1043 281 1043 q 456 1031 426 1043 l 456 930 z "},"g":{"ha":818,"x_min":65,"x_max":705,"o":"m 705 56 q 339 -327 705 -327 q 114 -278 210 -327 l 114 -167 q 338 -232 231 -232 q 594 41 594 -232 l 594 117 l 591 117 q 353 -16 512 -16 q 144 76 223 -16 q 65 325 65 169 q 150 606 65 502 q 383 711 235 711 q 591 598 524 711 l 594 598 l 594 694 l 705 694 l 705 56 m 594 314 l 594 416 q 538 558 594 499 q 399 617 482 617 q 237 542 296 617 q 179 332 179 467 q 235 147 179 216 q 383 77 291 77 q 535 144 477 77 q 594 314 594 210 z "},"h":{"ha":786,"x_min":113,"x_max":689,"o":"m 689 0 l 578 0 l 578 400 q 416 617 578 617 q 279 554 335 617 q 224 393 224 492 l 224 0 l 113 0 l 113 1028 l 224 1028 l 224 579 l 227 579 q 454 711 307 711 q 689 428 689 711 l 689 0 z "},"i":{"ha":336,"x_min":98,"x_max":243,"o":"m 170 871 q 119 891 140 871 q 98 943 98 911 q 119 995 98 974 q 170 1015 140 1015 q 221 995 200 1015 q 243 943 243 974 q 221 892 243 913 q 170 871 200 871 m 224 0 l 113 0 l 113 694 l 224 694 l 224 0 z "},"j":{"ha":336,"x_min":-134,"x_max":243,"o":"m 224 29 q 155 -234 224 -142 q -42 -327 86 -327 q -134 -305 -90 -327 l -134 -201 q -39 -232 -84 -232 q 113 11 113 -232 l 113 694 l 224 694 l 224 29 m 170 871 q 119 891 140 871 q 98 943 98 911 q 119 995 98 974 q 170 1015 140 1015 q 221 995 200 1015 q 243 943 243 974 q 221 892 243 913 q 170 871 200 871 z "},"k":{"ha":690,"x_min":113,"x_max":689,"o":"m 689 0 l 533 0 l 227 334 l 224 334 l 224 0 l 113 0 l 113 1028 l 224 1028 l 224 376 l 227 376 l 518 694 l 664 694 l 342 359 l 689 0 z "},"l":{"ha":336,"x_min":113,"x_max":224,"o":"m 224 0 l 113 0 l 113 1028 l 224 1028 l 224 0 z "},"m":{"ha":1196,"x_min":113,"x_max":1099,"o":"m 1099 0 l 987 0 l 987 399 q 952 566 987 514 q 832 617 916 617 q 711 552 761 617 q 661 396 661 487 l 661 0 l 550 0 l 550 412 q 392 617 550 617 q 271 556 319 617 q 224 396 224 494 l 224 0 l 113 0 l 113 694 l 224 694 l 224 585 l 227 585 q 442 711 300 711 q 566 671 513 711 q 639 567 619 631 q 869 711 716 711 q 1099 428 1099 711 l 1099 0 z "},"n":{"ha":786,"x_min":113,"x_max":689,"o":"m 689 0 l 578 0 l 578 396 q 416 617 578 617 q 278 554 333 617 q 224 396 224 492 l 224 0 l 113 0 l 113 694 l 224 694 l 224 579 l 227 579 q 454 711 305 711 q 629 637 568 711 q 689 425 689 564 l 689 0 z "},"o":{"ha":814,"x_min":65,"x_max":749,"o":"m 403 -16 q 157 81 249 -16 q 65 339 65 178 q 161 612 65 514 q 419 711 256 711 q 662 615 574 711 q 749 350 749 519 q 655 84 749 184 q 403 -16 561 -16 m 411 617 q 241 544 304 617 q 179 343 179 471 q 242 149 179 220 q 411 77 305 77 q 577 147 519 77 q 635 346 635 217 q 577 547 635 476 q 411 617 519 617 z "},"p":{"ha":817,"x_min":113,"x_max":751,"o":"m 227 100 l 224 100 l 224 -319 l 113 -319 l 113 694 l 224 694 l 224 572 l 227 572 q 467 711 309 711 q 676 617 601 711 q 751 368 751 524 q 667 89 751 193 q 435 -16 582 -16 q 227 100 300 -16 m 224 380 l 224 283 q 280 137 224 197 q 422 77 336 77 q 580 155 523 77 q 637 370 637 232 q 584 551 637 486 q 439 617 530 617 q 283 550 342 617 q 224 380 224 482 z "},"q":{"ha":818,"x_min":65,"x_max":705,"o":"m 705 -319 l 594 -319 l 594 119 l 591 119 q 354 -16 519 -16 q 144 77 223 -16 q 65 331 65 170 q 152 607 65 504 q 385 711 239 711 q 591 598 528 711 l 594 598 l 594 694 l 705 694 l 705 -319 m 594 313 l 594 414 q 538 558 594 499 q 396 617 482 617 q 237 543 296 617 q 179 334 179 469 q 235 145 179 214 q 380 77 292 77 q 536 144 478 77 q 594 313 594 211 z "},"r":{"ha":483,"x_min":113,"x_max":475,"o":"m 475 582 q 391 604 446 604 q 272 537 319 604 q 224 354 224 470 l 224 0 l 113 0 l 113 694 l 224 694 l 224 551 l 227 551 q 299 666 250 625 q 408 707 348 707 q 475 697 452 707 l 475 582 z "},"s":{"ha":589,"x_min":71,"x_max":531,"o":"m 71 25 l 71 144 q 271 77 161 77 q 417 175 417 77 q 405 222 417 203 q 371 256 392 241 q 320 283 349 271 q 258 308 292 295 q 177 345 212 326 q 119 387 142 363 q 84 440 96 410 q 72 510 72 470 q 94 596 72 559 q 154 660 117 634 q 239 698 191 685 q 338 711 287 711 q 499 680 428 711 l 499 567 q 323 617 422 617 q 267 610 292 617 q 223 590 241 603 q 196 559 205 577 q 186 519 186 541 q 196 474 186 492 q 224 441 205 456 q 271 416 243 427 q 332 391 298 404 q 415 354 378 373 q 477 312 452 336 q 517 258 503 289 q 531 186 531 228 q 508 96 531 134 q 448 33 486 58 q 360 -4 410 8 q 256 -16 311 -16 q 71 25 149 -16 z "},"t":{"ha":471,"x_min":29,"x_max":435,"o":"m 435 7 q 331 -15 395 -15 q 149 189 149 -15 l 149 600 l 29 600 l 29 694 l 149 694 l 149 864 l 260 900 l 260 694 l 435 694 l 435 600 l 260 600 l 260 208 q 283 109 260 138 q 362 79 307 79 q 435 102 404 79 l 435 7 z "},"u":{"ha":786,"x_min":98,"x_max":674,"o":"m 674 0 l 563 0 l 563 110 l 560 110 q 346 -16 491 -16 q 98 279 98 -16 l 98 694 l 208 694 l 208 297 q 376 77 208 77 q 510 137 458 77 q 563 294 563 197 l 563 694 l 674 694 l 674 0 z "},"v":{"ha":665,"x_min":9,"x_max":659,"o":"m 659 694 l 382 0 l 273 0 l 9 694 l 132 694 l 308 190 q 332 93 328 134 l 335 93 q 357 187 342 145 l 541 694 l 659 694 z "},"w":{"ha":1004,"x_min":16,"x_max":987,"o":"m 987 694 l 779 0 l 664 0 l 521 497 q 510 562 513 526 l 507 562 q 493 498 505 537 l 338 0 l 227 0 l 16 694 l 133 694 l 277 172 q 286 110 283 149 l 292 110 q 304 174 294 140 l 464 694 l 566 694 l 709 171 q 720 109 716 146 l 725 109 q 736 171 726 135 l 878 694 l 987 694 z "},"x":{"ha":637,"x_min":18,"x_max":620,"o":"m 620 694 l 387 343 l 616 0 l 486 0 l 350 225 q 319 278 337 246 l 317 278 q 285 225 313 272 l 146 0 l 18 0 l 254 340 l 28 694 l 157 694 l 292 457 q 321 403 307 431 l 323 403 l 497 694 l 620 694 z "},"y":{"ha":672,"x_min":9,"x_max":665,"o":"m 665 694 l 346 -111 q 106 -327 260 -327 q 33 -318 62 -327 l 33 -218 q 99 -231 69 -231 q 225 -130 183 -231 l 281 1 l 9 694 l 133 694 l 321 160 q 335 107 324 150 l 339 107 q 353 159 342 123 l 550 694 l 665 694 z "},"z":{"ha":628,"x_min":22,"x_max":597,"o":"m 597 663 l 186 95 l 593 95 l 593 0 l 22 0 l 22 35 l 433 600 l 61 600 l 61 694 l 597 694 l 597 663 z "},"{":{"ha":419,"x_min":62,"x_max":376,"o":"m 376 -221 q 168 -11 168 -218 l 168 193 q 62 336 168 330 l 62 415 q 168 562 168 422 l 168 760 q 376 972 168 970 l 376 886 q 269 751 269 883 l 269 553 q 167 378 269 410 l 167 375 q 269 201 269 345 l 269 5 q 293 -102 269 -70 q 376 -136 317 -134 l 376 -221 z "},"|":{"ha":332,"x_min":117,"x_max":217,"o":"m 217 -327 l 117 -327 l 117 1062 l 217 1062 l 217 -327 z "},"}":{"ha":419,"x_min":45,"x_max":358,"o":"m 358 336 q 252 193 252 330 l 252 -11 q 45 -221 252 -218 l 45 -136 q 129 -102 104 -134 q 153 5 153 -69 l 153 201 q 254 375 153 345 l 254 378 q 153 553 153 410 l 153 751 q 45 886 153 883 l 45 972 q 252 760 252 970 l 252 562 q 358 415 252 422 l 358 336 z "},"~":{"ha":950,"x_min":142,"x_max":810,"o":"m 810 509 q 755 353 805 408 q 620 298 705 298 q 440 372 546 298 q 332 418 374 418 q 233 298 237 418 l 142 298 q 196 452 145 395 q 332 509 246 509 q 492 449 404 509 q 625 388 581 388 q 692 421 667 388 q 718 509 717 454 l 810 509 z "},"Ä":{"ha":896,"x_min":15,"x_max":880,"o":"m 880 0 l 754 0 l 651 273 l 239 273 l 142 0 l 15 0 l 388 972 l 506 972 l 880 0 m 614 375 l 461 789 q 446 854 454 810 l 444 854 q 428 789 437 813 l 277 375 l 614 375 m 570 1061 q 523 1080 543 1061 q 503 1128 503 1099 q 522 1176 503 1157 q 568 1195 541 1195 q 616 1176 597 1195 q 636 1128 636 1156 q 617 1081 636 1101 q 570 1061 598 1061 m 309 1061 q 261 1081 281 1061 q 241 1128 241 1101 q 260 1176 241 1157 q 307 1195 279 1195 q 355 1176 335 1195 q 376 1128 376 1156 q 356 1081 376 1101 q 309 1061 336 1061 z "},"Å":{"ha":896,"x_min":15,"x_max":880,"o":"m 880 0 l 754 0 l 651 273 l 239 273 l 142 0 l 15 0 l 374 935 q 305 1046 305 970 q 346 1143 305 1106 q 449 1181 387 1181 q 547 1144 509 1181 q 585 1050 585 1107 q 519 937 585 974 l 880 0 m 445 1125 q 389 1104 411 1125 q 368 1050 368 1082 q 445 972 368 972 q 500 995 477 972 q 522 1050 522 1017 q 500 1104 522 1083 q 445 1125 477 1125 m 614 375 l 461 789 q 446 854 454 810 l 444 854 q 428 789 437 813 l 277 375 l 614 375 z "},"Ç":{"ha":860,"x_min":64,"x_max":789,"o":"m 789 41 q 521 -16 682 -16 q 189 117 313 -16 q 64 468 64 251 q 204 845 64 701 q 560 989 345 989 q 789 949 699 989 l 789 827 q 559 886 685 886 q 287 774 391 886 q 183 475 183 662 q 280 192 183 297 q 536 86 378 86 q 789 151 682 86 l 789 41 m 651 -174 q 465 -293 651 -293 q 420 -292 439 -293 l 420 -231 q 468 -235 450 -235 q 564 -174 564 -235 q 476 -121 564 -121 q 448 -123 469 -121 l 448 0 l 522 0 l 522 -71 q 616 -98 581 -71 q 651 -174 651 -125 z "},"É":{"ha":703,"x_min":127,"x_max":643,"o":"m 643 0 l 127 0 l 127 972 l 621 972 l 621 869 l 241 869 l 241 546 l 593 546 l 593 444 l 241 444 l 241 103 l 643 103 l 643 0 m 545 1284 l 367 1061 l 281 1061 l 432 1284 l 545 1284 z "},"Ñ":{"ha":1039,"x_min":127,"x_max":911,"o":"m 911 0 l 772 0 l 271 775 q 240 836 252 804 l 236 836 q 241 703 241 805 l 241 0 l 127 0 l 127 972 l 275 972 l 762 210 q 802 144 793 162 l 804 144 q 798 288 798 186 l 798 972 l 911 972 l 911 0 m 755 1223 q 722 1106 755 1152 q 634 1061 690 1061 q 524 1097 586 1061 q 444 1126 472 1126 q 384 1049 384 1126 l 320 1049 q 353 1165 320 1122 q 444 1209 385 1209 q 545 1174 488 1209 q 631 1144 595 1144 q 688 1223 688 1144 l 755 1223 z "},"Ö":{"ha":1047,"x_min":64,"x_max":983,"o":"m 519 -16 q 188 120 313 -16 q 64 475 64 256 q 191 849 64 709 q 536 989 317 989 q 860 853 737 989 q 983 498 983 718 q 857 122 983 260 q 519 -16 731 -16 m 528 886 q 279 775 374 886 q 183 485 183 665 q 276 196 183 305 q 519 86 370 86 q 772 191 680 86 q 864 483 864 295 q 774 781 864 675 q 528 886 685 886 m 656 1060 q 610 1079 629 1060 q 590 1127 590 1098 q 609 1175 590 1156 q 655 1194 628 1194 q 703 1174 684 1194 q 723 1127 723 1155 q 704 1080 723 1099 q 656 1060 685 1060 m 396 1060 q 348 1080 368 1060 q 328 1127 328 1100 q 347 1175 328 1156 q 394 1194 366 1194 q 442 1174 422 1194 q 463 1127 463 1155 q 443 1080 463 1099 q 396 1060 423 1060 z "},"Ü":{"ha":954,"x_min":115,"x_max":839,"o":"m 839 393 q 469 -16 839 -16 q 115 378 115 -16 l 115 972 l 229 972 l 229 385 q 481 86 229 86 q 725 375 725 86 l 725 972 l 839 972 l 839 393 m 607 1063 q 560 1082 580 1063 q 541 1130 541 1101 q 559 1177 541 1158 q 606 1196 578 1196 q 654 1177 634 1196 q 673 1130 673 1158 q 654 1082 673 1102 q 607 1063 635 1063 m 347 1063 q 298 1083 318 1063 q 278 1130 278 1103 q 297 1177 278 1158 q 345 1196 317 1196 q 393 1177 372 1196 q 413 1130 413 1158 q 393 1082 413 1102 q 347 1063 374 1063 z "},"á":{"ha":707,"x_min":61,"x_max":610,"o":"m 610 0 l 498 0 l 498 109 l 496 109 q 282 -16 423 -16 q 120 39 178 -16 q 61 184 61 94 q 290 411 61 379 l 498 440 q 355 617 498 617 q 129 532 230 617 l 129 646 q 365 711 231 711 q 610 452 610 711 l 610 0 m 498 351 l 331 328 q 214 290 254 317 q 175 193 175 262 q 211 110 175 142 q 308 77 248 77 q 445 135 391 77 q 498 282 498 193 l 498 351 m 513 1048 l 336 826 l 250 826 l 401 1048 l 513 1048 z "},"à":{"ha":707,"x_min":61,"x_max":610,"o":"m 610 0 l 498 0 l 498 109 l 496 109 q 282 -16 423 -16 q 120 39 178 -16 q 61 184 61 94 q 290 411 61 379 l 498 440 q 355 617 498 617 q 129 532 230 617 l 129 646 q 365 711 231 711 q 610 452 610 711 l 610 0 m 498 351 l 331 328 q 214 290 254 317 q 175 193 175 262 q 211 110 175 142 q 308 77 248 77 q 445 135 391 77 q 498 282 498 193 l 498 351 m 457 826 l 371 826 l 193 1048 l 307 1048 l 457 826 z "},"â":{"ha":707,"x_min":61,"x_max":610,"o":"m 610 0 l 498 0 l 498 109 l 496 109 q 282 -16 423 -16 q 120 39 178 -16 q 61 184 61 94 q 290 411 61 379 l 498 440 q 355 617 498 617 q 129 532 230 617 l 129 646 q 365 711 231 711 q 610 452 610 711 l 610 0 m 498 351 l 331 328 q 214 290 254 317 q 175 193 175 262 q 211 110 175 142 q 308 77 248 77 q 445 135 391 77 q 498 282 498 193 l 498 351 m 547 826 l 464 826 l 353 982 l 241 826 l 164 826 l 310 1051 l 400 1051 l 547 826 z "},"ä":{"ha":707,"x_min":61,"x_max":610,"o":"m 610 0 l 498 0 l 498 109 l 496 109 q 282 -16 423 -16 q 120 39 178 -16 q 61 184 61 94 q 290 411 61 379 l 498 440 q 355 617 498 617 q 129 532 230 617 l 129 646 q 365 711 231 711 q 610 452 610 711 l 610 0 m 498 351 l 331 328 q 214 290 254 317 q 175 193 175 262 q 211 110 175 142 q 308 77 248 77 q 445 135 391 77 q 498 282 498 193 l 498 351 m 480 826 q 433 845 453 826 q 414 893 414 864 q 433 941 414 922 q 479 960 452 960 q 527 940 507 960 q 547 893 547 921 q 528 846 547 865 q 480 826 509 826 m 220 826 q 171 846 191 826 q 151 893 151 866 q 171 941 151 922 q 218 960 190 960 q 266 940 245 960 q 286 893 286 921 q 267 846 286 865 q 220 826 247 826 z "},"ã":{"ha":707,"x_min":61,"x_max":610,"o":"m 610 0 l 498 0 l 498 109 l 496 109 q 282 -16 423 -16 q 120 39 178 -16 q 61 184 61 94 q 290 411 61 379 l 498 440 q 355 617 498 617 q 129 532 230 617 l 129 646 q 365 711 231 711 q 610 452 610 711 l 610 0 m 498 351 l 331 328 q 214 290 254 317 q 175 193 175 262 q 211 110 175 142 q 308 77 248 77 q 445 135 391 77 q 498 282 498 193 l 498 351 m 572 989 q 540 872 572 918 q 452 827 507 827 q 342 863 404 827 q 261 892 290 892 q 201 815 201 892 l 138 815 q 170 931 138 888 q 261 975 203 975 q 362 940 305 975 q 449 910 412 910 q 506 989 506 910 l 572 989 z "},"å":{"ha":707,"x_min":61,"x_max":610,"o":"m 610 0 l 498 0 l 498 109 l 496 109 q 282 -16 423 -16 q 120 39 178 -16 q 61 184 61 94 q 290 411 61 379 l 498 440 q 355 617 498 617 q 129 532 230 617 l 129 646 q 365 711 231 711 q 610 452 610 711 l 610 0 m 498 351 l 331 328 q 214 290 254 317 q 175 193 175 262 q 211 110 175 142 q 308 77 248 77 q 445 135 391 77 q 498 282 498 193 l 498 351 m 351 798 q 253 833 292 798 q 214 926 214 869 q 254 1024 214 987 q 355 1061 294 1061 q 454 1024 416 1061 q 493 930 493 987 q 452 836 493 873 q 351 798 410 798 m 351 1006 q 296 984 318 1006 q 275 929 275 962 q 351 853 275 853 q 407 875 385 853 q 429 929 429 897 q 407 984 429 962 q 351 1006 385 1006 z "},"ç":{"ha":642,"x_min":65,"x_max":587,"o":"m 586 32 q 396 -16 506 -16 q 156 80 248 -16 q 65 331 65 177 q 163 607 65 503 q 426 711 262 711 q 587 677 517 711 l 587 563 q 422 617 510 617 q 247 541 315 617 q 179 340 179 465 q 243 148 179 218 q 415 77 307 77 q 586 138 506 77 l 586 32 m 528 -174 q 341 -293 528 -293 q 297 -292 315 -293 l 297 -231 q 345 -235 326 -235 q 440 -174 440 -235 q 353 -121 440 -121 q 325 -123 346 -121 l 325 0 l 398 0 l 398 -71 q 493 -98 458 -71 q 528 -174 528 -125 z "},"é":{"ha":726,"x_min":65,"x_max":671,"o":"m 671 319 l 180 319 q 243 140 183 203 q 407 77 302 77 q 623 155 524 77 l 623 50 q 380 -16 531 -16 q 149 78 233 -16 q 65 345 65 173 q 157 609 65 507 q 385 711 249 711 q 596 623 522 711 q 671 378 671 534 l 671 319 m 557 414 q 510 564 556 510 q 383 617 465 617 q 250 561 304 617 q 182 414 195 505 l 557 414 m 539 1048 l 361 826 l 275 826 l 427 1048 l 539 1048 z "},"è":{"ha":726,"x_min":65,"x_max":671,"o":"m 671 319 l 180 319 q 243 140 183 203 q 407 77 302 77 q 623 155 524 77 l 623 50 q 380 -16 531 -16 q 149 78 233 -16 q 65 345 65 173 q 157 609 65 507 q 385 711 249 711 q 596 623 522 711 q 671 378 671 534 l 671 319 m 557 414 q 510 564 556 510 q 383 617 465 617 q 250 561 304 617 q 182 414 195 505 l 557 414 m 492 826 l 406 826 l 228 1048 l 342 1048 l 492 826 z "},"ê":{"ha":726,"x_min":65,"x_max":671,"o":"m 671 319 l 180 319 q 243 140 183 203 q 407 77 302 77 q 623 155 524 77 l 623 50 q 380 -16 531 -16 q 149 78 233 -16 q 65 345 65 173 q 157 609 65 507 q 385 711 249 711 q 596 623 522 711 q 671 378 671 534 l 671 319 m 557 414 q 510 564 556 510 q 383 617 465 617 q 250 561 304 617 q 182 414 195 505 l 557 414 m 570 826 l 487 826 l 376 982 l 264 826 l 187 826 l 333 1051 l 423 1051 l 570 826 z "},"ë":{"ha":726,"x_min":65,"x_max":671,"o":"m 671 319 l 180 319 q 243 140 183 203 q 407 77 302 77 q 623 155 524 77 l 623 50 q 380 -16 531 -16 q 149 78 233 -16 q 65 345 65 173 q 157 609 65 507 q 385 711 249 711 q 596 623 522 711 q 671 378 671 534 l 671 319 m 557 414 q 510 564 556 510 q 383 617 465 617 q 250 561 304 617 q 182 414 195 505 l 557 414 m 506 826 q 459 845 479 826 q 439 893 439 864 q 458 941 439 922 q 505 960 477 960 q 553 940 533 960 q 572 893 572 921 q 553 846 572 865 q 506 826 534 826 m 245 826 q 197 846 217 826 q 177 893 177 866 q 196 941 177 922 q 243 960 216 960 q 292 940 271 960 q 312 893 312 921 q 292 846 312 865 q 245 826 273 826 z "},"í":{"ha":336,"x_min":60,"x_max":323,"o":"m 224 0 l 113 0 l 113 694 l 224 694 l 224 0 m 323 1048 l 146 826 l 60 826 l 211 1048 l 323 1048 z "},"ì":{"ha":336,"x_min":-14,"x_max":250,"o":"m 224 0 l 113 0 l 113 694 l 224 694 l 224 0 m 250 826 l 164 826 l -14 1048 l 100 1048 l 250 826 z "},"î":{"ha":336,"x_min":-31,"x_max":352,"o":"m 224 0 l 113 0 l 113 694 l 224 694 l 224 0 m 352 826 l 269 826 l 158 982 l 46 826 l -31 826 l 115 1051 l 205 1051 l 352 826 z "},"ï":{"ha":336,"x_min":-37,"x_max":358,"o":"m 224 0 l 113 0 l 113 694 l 224 694 l 224 0 m 292 826 q 245 845 264 826 q 225 893 225 864 q 244 941 225 922 q 290 960 263 960 q 338 940 319 960 q 358 893 358 921 q 339 846 358 865 q 292 826 320 826 m 31 826 q -17 846 3 826 q -37 893 -37 866 q -18 941 -37 922 q 29 960 1 960 q 77 940 57 960 q 98 893 98 921 q 78 846 98 865 q 31 826 58 826 z "},"ñ":{"ha":786,"x_min":113,"x_max":689,"o":"m 689 0 l 578 0 l 578 396 q 416 617 578 617 q 278 554 333 617 q 224 396 224 492 l 224 0 l 113 0 l 113 694 l 224 694 l 224 579 l 227 579 q 454 711 305 711 q 629 637 568 711 q 689 425 689 564 l 689 0 m 616 989 q 583 872 616 918 q 495 827 551 827 q 385 863 447 827 q 304 892 333 892 q 245 815 245 892 l 181 815 q 214 931 181 888 q 304 975 246 975 q 406 940 349 975 q 492 910 456 910 q 549 989 549 910 l 616 989 z "},"ó":{"ha":814,"x_min":65,"x_max":749,"o":"m 403 -16 q 157 81 249 -16 q 65 339 65 178 q 161 612 65 514 q 419 711 256 711 q 662 615 574 711 q 749 350 749 519 q 655 84 749 184 q 403 -16 561 -16 m 411 617 q 241 544 304 617 q 179 343 179 471 q 242 149 179 220 q 411 77 305 77 q 577 147 519 77 q 635 346 635 217 q 577 547 635 476 q 411 617 519 617 m 574 1048 l 396 826 l 310 826 l 461 1048 l 574 1048 z "},"ò":{"ha":814,"x_min":65,"x_max":749,"o":"m 403 -16 q 157 81 249 -16 q 65 339 65 178 q 161 612 65 514 q 419 711 256 711 q 662 615 574 711 q 749 350 749 519 q 655 84 749 184 q 403 -16 561 -16 m 411 617 q 241 544 304 617 q 179 343 179 471 q 242 149 179 220 q 411 77 305 77 q 577 147 519 77 q 635 346 635 217 q 577 547 635 476 q 411 617 519 617 m 507 826 l 420 826 l 243 1048 l 357 1048 l 507 826 z "},"ô":{"ha":814,"x_min":65,"x_max":749,"o":"m 403 -16 q 157 81 249 -16 q 65 339 65 178 q 161 612 65 514 q 419 711 256 711 q 662 615 574 711 q 749 350 749 519 q 655 84 749 184 q 403 -16 561 -16 m 411 617 q 241 544 304 617 q 179 343 179 471 q 242 149 179 220 q 411 77 305 77 q 577 147 519 77 q 635 346 635 217 q 577 547 635 476 q 411 617 519 617 m 600 826 l 517 826 l 406 982 l 294 826 l 218 826 l 363 1051 l 454 1051 l 600 826 z "},"ö":{"ha":814,"x_min":65,"x_max":749,"o":"m 403 -16 q 157 81 249 -16 q 65 339 65 178 q 161 612 65 514 q 419 711 256 711 q 662 615 574 711 q 749 350 749 519 q 655 84 749 184 q 403 -16 561 -16 m 411 617 q 241 544 304 617 q 179 343 179 471 q 242 149 179 220 q 411 77 305 77 q 577 147 519 77 q 635 346 635 217 q 577 547 635 476 q 411 617 519 617 m 538 826 q 491 845 511 826 q 471 893 471 864 q 490 941 471 922 q 536 960 509 960 q 585 940 565 960 q 604 893 604 921 q 585 846 604 865 q 538 826 566 826 m 277 826 q 229 846 249 826 q 209 893 209 866 q 228 941 209 922 q 275 960 248 960 q 323 940 303 960 q 344 893 344 921 q 324 846 344 865 q 277 826 304 826 z "},"õ":{"ha":814,"x_min":65,"x_max":749,"o":"m 403 -16 q 157 81 249 -16 q 65 339 65 178 q 161 612 65 514 q 419 711 256 711 q 662 615 574 711 q 749 350 749 519 q 655 84 749 184 q 403 -16 561 -16 m 411 617 q 241 544 304 617 q 179 343 179 471 q 242 149 179 220 q 411 77 305 77 q 577 147 519 77 q 635 346 635 217 q 577 547 635 476 q 411 617 519 617 m 631 989 q 599 872 631 918 q 511 827 566 827 q 401 863 463 827 q 320 892 349 892 q 260 815 260 892 l 197 815 q 229 931 197 888 q 320 975 262 975 q 421 940 364 975 q 508 910 471 910 q 565 989 565 910 l 631 989 z "},"ú":{"ha":786,"x_min":98,"x_max":674,"o":"m 674 0 l 563 0 l 563 110 l 560 110 q 346 -16 491 -16 q 98 279 98 -16 l 98 694 l 208 694 l 208 297 q 376 77 208 77 q 510 137 458 77 q 563 294 563 197 l 563 694 l 674 694 l 674 0 m 570 1048 l 392 826 l 306 826 l 457 1048 l 570 1048 z "},"ù":{"ha":786,"x_min":98,"x_max":674,"o":"m 674 0 l 563 0 l 563 110 l 560 110 q 346 -16 491 -16 q 98 279 98 -16 l 98 694 l 208 694 l 208 297 q 376 77 208 77 q 510 137 458 77 q 563 294 563 197 l 563 694 l 674 694 l 674 0 m 478 826 l 392 826 l 214 1048 l 328 1048 l 478 826 z "},"û":{"ha":786,"x_min":98,"x_max":674,"o":"m 674 0 l 563 0 l 563 110 l 560 110 q 346 -16 491 -16 q 98 279 98 -16 l 98 694 l 208 694 l 208 297 q 376 77 208 77 q 510 137 458 77 q 563 294 563 197 l 563 694 l 674 694 l 674 0 m 579 826 l 496 826 l 385 982 l 273 826 l 197 826 l 342 1051 l 433 1051 l 579 826 z "},"ü":{"ha":786,"x_min":98,"x_max":674,"o":"m 674 0 l 563 0 l 563 110 l 560 110 q 346 -16 491 -16 q 98 279 98 -16 l 98 694 l 208 694 l 208 297 q 376 77 208 77 q 510 137 458 77 q 563 294 563 197 l 563 694 l 674 694 l 674 0 m 522 826 q 475 845 495 826 q 456 893 456 864 q 475 941 456 922 q 521 960 494 960 q 569 940 549 960 q 589 893 589 921 q 570 846 589 865 q 522 826 551 826 m 262 826 q 213 846 233 826 q 193 893 193 866 q 213 941 193 922 q 260 960 232 960 q 308 940 288 960 q 328 893 328 921 q 309 846 328 865 q 262 826 289 826 z "},"†":{"ha":521,"x_min":33,"x_max":494,"o":"m 494 606 l 316 626 l 289 155 l 237 155 l 210 626 l 33 606 l 33 707 l 237 694 l 210 972 l 316 972 l 289 694 l 494 707 l 494 606 z "},"°":{"ha":524,"x_min":73,"x_max":449,"o":"m 261 608 q 128 664 183 608 q 73 798 73 719 q 127 929 73 876 q 260 983 182 983 q 394 929 338 983 q 449 798 449 875 q 394 664 449 719 q 261 608 339 608 m 261 904 q 186 873 217 904 q 155 798 155 842 q 185 720 155 752 q 260 688 216 688 q 336 720 304 688 q 368 798 368 753 q 336 873 368 842 q 261 904 305 904 z "},"¢":{"ha":749,"x_min":125,"x_max":646,"o":"m 646 142 q 496 95 581 102 l 496 -33 l 411 -33 l 411 96 q 202 205 280 111 q 125 440 125 300 q 202 689 125 589 q 411 814 280 789 l 411 958 l 496 958 l 496 821 q 646 786 579 819 l 646 669 q 496 722 577 718 l 496 190 q 646 248 578 198 l 646 142 m 411 197 l 411 713 q 284 623 330 692 q 239 452 239 553 q 285 283 239 350 q 411 197 331 216 z "},"£":{"ha":749,"x_min":72,"x_max":682,"o":"m 682 0 l 72 0 l 72 92 q 220 304 220 138 l 220 431 l 86 431 l 86 526 l 220 526 l 220 699 q 294 907 220 826 q 485 989 368 989 q 629 961 564 989 l 629 856 q 486 895 562 895 q 331 686 331 895 l 331 526 l 532 526 l 532 431 l 331 431 l 331 325 q 200 95 331 161 l 682 95 l 682 0 z "},"§":{"ha":623,"x_min":89,"x_max":547,"o":"m 446 282 q 507 156 507 232 q 439 11 507 66 q 267 -45 372 -45 q 104 -7 178 -45 l 104 100 q 274 50 193 50 q 362 77 331 50 q 393 144 393 104 q 369 205 393 180 q 247 282 345 230 q 89 497 89 365 q 189 663 89 608 q 117 814 117 719 q 180 956 117 900 q 347 1011 243 1011 q 496 982 435 1011 l 496 875 q 345 917 427 917 q 231 819 231 917 q 258 751 231 782 q 396 668 286 721 q 547 469 547 595 q 446 282 547 354 m 270 614 q 201 506 201 579 q 240 420 201 457 q 374 340 278 383 q 433 457 433 387 q 398 540 433 506 q 270 614 362 574 z "},"•":{"ha":564,"x_min":111,"x_max":453,"o":"m 283 277 q 162 326 213 277 q 111 446 111 376 q 162 567 111 516 q 283 618 213 618 q 404 568 354 618 q 453 446 453 517 q 404 326 453 376 q 283 277 354 277 z "},"¶":{"ha":636,"x_min":57,"x_max":566,"o":"m 566 903 l 479 903 l 479 0 l 407 0 l 407 903 l 300 903 l 300 0 l 227 0 l 227 612 q 105 664 153 612 q 57 793 57 715 q 107 923 57 873 q 231 972 158 972 l 566 972 l 566 903 z "},"ß":{"ha":755,"x_min":113,"x_max":708,"o":"m 313 1 l 313 110 q 428 77 363 77 q 548 127 502 77 q 594 261 594 177 q 526 426 594 363 q 338 503 458 490 l 338 591 q 469 661 418 605 q 521 795 521 718 q 484 908 521 868 q 380 949 446 949 q 224 739 224 949 l 224 0 l 113 0 l 113 755 q 187 964 113 886 q 388 1043 262 1043 q 568 979 500 1043 q 635 808 635 914 q 584 654 635 722 q 452 559 533 585 l 452 555 q 708 267 708 505 q 633 65 708 146 q 433 -16 557 -16 q 313 1 365 -16 z "},"­":{"ha":555,"x_min":98,"x_max":468,"o":"m 468 343 l 98 343 l 98 431 l 468 431 l 468 343 z "},"®":{"ha":1236,"x_min":212,"x_max":1025,"o":"m 618 173 q 331 292 450 173 q 212 579 212 410 q 331 867 212 748 q 618 986 450 986 q 906 867 787 986 q 1025 579 1025 748 q 906 292 1025 410 q 618 173 787 173 m 619 922 q 376 822 477 922 q 275 579 275 722 q 376 337 275 437 q 619 237 477 237 q 861 337 761 237 q 961 579 961 437 q 861 822 961 722 q 619 922 761 922 m 816 325 l 722 325 l 666 449 q 574 543 623 543 l 538 543 l 538 325 l 459 325 l 459 842 l 605 842 q 744 804 695 842 q 793 701 793 766 q 759 611 793 648 q 663 560 724 573 l 663 558 q 748 463 705 549 l 816 325 m 538 775 l 538 609 l 602 609 q 709 692 709 609 q 681 758 709 741 q 589 775 652 775 l 538 775 z "},"©":{"ha":1236,"x_min":110,"x_max":1126,"o":"m 618 -22 q 259 126 408 -22 q 110 486 110 275 q 259 846 110 697 q 618 995 408 995 q 978 846 829 995 q 1126 486 1126 697 q 978 126 1126 275 q 618 -22 829 -22 m 618 935 q 301 804 433 935 q 170 486 170 672 q 301 169 170 300 q 618 38 433 38 q 936 169 804 38 q 1067 486 1067 300 q 936 804 1067 672 q 618 935 804 935 m 823 180 q 640 134 745 134 q 403 230 498 134 q 307 469 307 326 q 405 736 307 637 q 660 836 503 836 q 820 800 749 836 l 820 699 q 648 747 755 747 q 473 675 542 747 q 404 481 404 603 q 474 291 404 363 q 653 220 545 220 q 823 273 752 220 l 823 180 z "},"™":{"ha":1074,"x_min":52,"x_max":947,"o":"m 947 524 l 873 524 l 873 848 l 871 848 l 722 524 l 682 524 l 537 848 l 534 848 l 534 524 l 465 524 l 465 972 l 551 972 l 704 636 l 707 636 l 861 972 l 947 972 l 947 524 m 408 906 l 267 906 l 267 524 l 191 524 l 191 906 l 52 906 l 52 972 l 408 972 l 408 906 z "},"´":{"ha":392,"x_min":92,"x_max":355,"o":"m 355 1048 l 178 826 l 92 826 l 243 1048 l 355 1048 z "},"¨":{"ha":575,"x_min":85,"x_max":480,"o":"m 414 826 q 367 845 387 826 q 347 893 347 864 q 366 941 347 922 q 412 960 385 960 q 460 940 441 960 q 480 893 480 921 q 461 846 480 865 q 414 826 442 826 m 153 826 q 105 846 125 826 q 85 893 85 866 q 104 941 85 922 q 151 960 123 960 q 199 940 179 960 q 220 893 220 921 q 200 846 220 865 q 153 826 180 826 z "},"≠":{"ha":951,"x_min":157,"x_max":795,"o":"m 795 216 l 422 216 l 311 0 l 216 0 l 327 216 l 157 216 l 157 305 l 374 305 l 475 505 l 157 505 l 157 594 l 522 594 l 629 806 l 725 806 l 617 594 l 795 594 l 795 505 l 571 505 l 468 305 l 795 305 l 795 216 z "},"Æ":{"ha":1195,"x_min":7,"x_max":1131,"o":"m 1131 0 l 616 0 l 616 273 l 270 273 l 139 0 l 7 0 l 481 972 l 1108 972 l 1108 869 l 729 869 l 729 546 l 1081 546 l 1081 444 l 729 444 l 729 103 l 1131 103 l 1131 0 m 616 375 l 616 869 l 551 869 l 317 375 l 616 375 z "},"Ø":{"ha":1047,"x_min":64,"x_max":983,"o":"m 220 89 l 117 -35 l 64 9 l 171 139 q 64 475 64 271 q 190 848 64 707 q 536 989 317 989 q 808 901 694 989 l 900 1011 l 953 968 l 859 856 q 983 498 983 720 q 857 122 983 260 q 519 -16 731 -16 q 220 89 339 -16 m 739 817 q 528 886 654 886 q 278 774 374 886 q 183 485 183 663 q 250 232 183 334 l 739 817 m 785 766 l 293 179 q 519 86 382 86 q 772 191 680 86 q 864 483 864 296 q 785 766 864 659 z "},"∞":{"ha":1135,"x_min":56,"x_max":1081,"o":"m 567 327 q 308 140 453 140 q 126 213 196 140 q 56 401 56 285 q 129 590 56 511 q 308 668 202 668 q 570 483 468 668 q 827 668 681 668 q 1010 596 940 668 q 1081 407 1081 524 q 1008 219 1081 298 q 827 140 935 140 q 567 327 674 140 m 611 404 q 827 228 700 228 q 946 277 901 228 q 990 407 990 326 q 944 533 990 483 q 827 583 898 583 q 611 404 710 583 m 525 406 q 308 583 435 583 q 189 532 233 583 q 144 401 144 481 q 190 277 144 327 q 308 228 236 228 q 525 406 427 228 z "},"±":{"ha":950,"x_min":157,"x_max":795,"o":"m 795 442 l 521 442 l 521 168 l 432 168 l 432 442 l 157 442 l 157 532 l 432 532 l 432 806 l 521 806 l 521 532 l 795 532 l 795 442 m 795 0 l 157 0 l 157 90 l 795 90 l 795 0 z "},"≤":{"ha":951,"x_min":157,"x_max":795,"o":"m 768 172 l 184 467 l 184 506 l 768 832 l 768 730 l 332 490 l 332 488 l 768 275 l 768 172 m 795 0 l 157 0 l 157 90 l 795 90 l 795 0 z "},"≥":{"ha":951,"x_min":157,"x_max":795,"o":"m 768 468 l 184 174 l 184 277 l 621 486 l 621 490 l 184 732 l 184 833 l 768 507 l 768 468 m 795 0 l 157 0 l 157 90 l 795 90 l 795 0 z "},"¥":{"ha":749,"x_min":46,"x_max":707,"o":"m 707 972 l 465 528 l 659 528 l 659 433 l 432 433 l 432 293 l 659 293 l 659 199 l 432 199 l 432 0 l 321 0 l 321 199 l 87 199 l 87 293 l 321 293 l 321 433 l 87 433 l 87 528 l 285 528 l 46 972 l 176 972 l 346 624 q 378 549 365 585 l 380 549 q 414 628 389 577 l 585 972 l 707 972 z "},"µ":{"ha":802,"x_min":113,"x_max":711,"o":"m 711 0 l 595 0 q 580 114 580 49 l 576 114 q 387 -16 519 -16 q 226 68 274 -16 l 223 68 l 223 -269 l 113 -269 l 113 694 l 223 694 l 223 270 q 270 133 223 184 q 392 82 317 82 q 525 140 474 82 q 576 297 576 199 l 576 694 l 689 694 l 689 180 q 711 0 689 52 z "},"∂":{"ha":743,"x_min":53,"x_max":697,"o":"m 585 591 l 587 591 q 407 914 605 914 q 240 860 323 914 l 267 966 q 435 1010 347 1010 q 632 920 566 1010 q 697 633 697 831 q 653 321 697 484 q 517 71 609 158 q 301 -16 426 -16 q 121 56 189 -16 q 53 251 53 128 q 153 570 53 435 q 407 705 253 705 q 585 591 528 705 m 576 469 q 420 611 537 611 q 239 505 312 611 q 167 256 167 398 q 205 125 167 173 q 309 77 243 77 q 485 185 412 77 q 576 469 558 294 z "},"∑":{"ha":857,"x_min":35,"x_max":821,"o":"m 821 -318 l 35 -318 l 35 -265 l 493 334 l 60 911 l 60 972 l 793 972 l 793 868 l 227 868 l 629 336 l 205 -214 l 821 -214 l 821 -318 z "},"∏":{"ha":1047,"x_min":127,"x_max":924,"o":"m 924 -318 l 810 -318 l 810 868 l 241 868 l 241 -318 l 127 -318 l 127 972 l 924 972 l 924 -318 z "},"∫":{"ha":749,"x_min":129,"x_max":621,"o":"m 621 930 q 546 949 589 949 q 431 802 431 949 l 431 -95 q 367 -266 431 -202 q 210 -330 304 -330 q 129 -317 159 -330 l 129 -217 q 203 -235 161 -235 q 319 -87 319 -235 l 319 807 q 383 979 319 916 q 540 1043 446 1043 q 621 1031 591 1043 l 621 930 z "},"ª":{"ha":545,"x_min":56,"x_max":467,"o":"m 467 486 l 379 486 l 379 554 l 376 554 q 220 473 323 473 q 101 514 146 473 q 56 617 56 554 q 224 777 56 754 l 379 798 q 277 911 379 911 q 104 853 184 911 l 104 940 q 285 987 180 987 q 418 939 370 987 q 467 802 467 890 l 467 486 m 379 729 l 257 712 q 143 621 143 696 q 169 565 143 587 q 239 543 195 543 q 337 585 294 543 q 379 684 379 626 l 379 729 z "},"º":{"ha":598,"x_min":53,"x_max":545,"o":"m 296 472 q 118 540 182 472 q 53 725 53 608 q 122 917 53 848 q 307 986 192 986 q 481 919 417 986 q 545 735 545 851 q 477 543 545 614 q 296 472 410 472 m 301 911 q 187 863 229 911 q 144 728 144 814 q 185 596 144 644 q 300 549 225 549 q 413 597 371 549 q 454 729 454 646 q 413 863 454 814 q 301 911 372 911 z "},"Ω":{"ha":1048,"x_min":68,"x_max":983,"o":"m 983 0 l 631 0 l 631 100 q 865 529 865 273 q 770 792 865 695 q 528 888 676 888 q 281 792 377 888 q 186 530 186 696 q 420 100 186 273 l 420 0 l 68 0 l 68 100 l 304 100 q 68 532 68 259 q 193 867 68 745 q 524 989 319 989 q 858 868 733 989 q 983 533 983 747 q 747 100 983 260 l 983 100 l 983 0 z "},"æ":{"ha":1156,"x_min":61,"x_max":1100,"o":"m 1100 319 l 608 319 q 670 140 610 203 q 833 77 730 77 q 1051 155 954 77 l 1051 50 q 808 -16 962 -16 q 549 139 625 -16 l 546 139 q 283 -16 448 -16 q 120 38 180 -16 q 61 184 61 93 q 321 404 61 388 l 498 415 q 353 617 498 617 q 129 534 234 617 l 129 646 q 365 711 229 711 q 568 575 522 711 l 571 575 q 812 711 650 711 q 1025 622 949 711 q 1100 376 1100 534 l 1100 319 m 986 414 q 940 564 985 511 q 814 617 895 617 q 679 562 735 617 q 610 414 623 506 l 986 414 m 498 278 l 498 321 l 361 313 q 220 279 267 307 q 174 187 174 252 q 210 107 174 138 q 307 77 245 77 q 443 135 387 77 q 498 278 498 192 z "},"ø":{"ha":814,"x_min":33,"x_max":796,"o":"m 796 711 l 682 589 q 749 354 749 495 q 654 83 749 183 q 403 -16 560 -16 q 187 53 273 -16 l 89 -56 l 33 -3 l 134 109 q 65 339 65 201 q 161 612 65 514 q 420 711 258 711 q 629 644 545 711 l 739 764 l 796 711 m 557 567 q 411 617 503 617 q 241 544 303 617 q 179 343 179 471 q 213 191 179 254 l 557 567 m 604 503 l 260 129 q 410 77 319 77 q 578 148 520 77 q 636 347 636 218 q 604 503 636 438 z "},"¿":{"ha":623,"x_min":97,"x_max":562,"o":"m 424 427 q 435 381 430 410 q 439 326 439 353 q 422 247 439 282 q 379 182 405 212 q 323 123 353 151 q 267 66 292 95 q 223 6 241 37 q 206 -64 206 -26 q 219 -121 206 -96 q 253 -163 231 -146 q 303 -189 275 -180 q 363 -197 332 -197 q 562 -107 478 -197 l 562 -227 q 347 -292 458 -292 q 250 -278 296 -292 q 171 -238 205 -264 q 117 -171 137 -211 q 97 -78 97 -131 q 115 12 97 -28 q 159 84 132 51 q 217 145 186 117 q 275 202 248 174 q 319 260 302 230 q 337 328 337 291 q 330 384 337 359 q 315 427 322 410 l 424 427 m 363 709 q 416 688 393 709 q 438 635 438 667 q 416 582 438 604 q 363 559 393 559 q 310 582 332 559 q 288 635 288 604 q 310 688 288 667 q 363 709 333 709 z "}," ":{"ha":380,"x_min":0,"x_max":0,"o":""},"¡":{"ha":395,"x_min":122,"x_max":273,"o":"m 197 560 q 144 582 166 560 q 122 635 122 604 q 144 688 122 666 q 197 709 166 709 q 250 688 228 709 q 273 635 273 666 q 250 582 273 604 q 197 560 228 560 m 257 -275 l 140 -275 l 153 423 l 244 423 l 257 -275 z "},"¬":{"ha":950,"x_min":157,"x_max":795,"o":"m 795 172 l 705 172 l 705 464 l 157 464 l 157 554 l 795 554 l 795 172 z "},"√":{"ha":903,"x_min":83,"x_max":755,"o":"m 755 1028 l 492 0 l 415 0 l 199 509 l 83 509 l 83 590 l 262 590 l 449 142 l 675 1028 l 755 1028 z "},"ƒ":{"ha":749,"x_min":64,"x_max":646,"o":"m 646 859 q 572 878 613 878 q 457 769 473 878 l 436 628 l 549 628 l 549 534 l 422 534 l 361 95 q 125 -189 321 -189 q 64 -178 104 -189 l 64 -81 q 122 -95 88 -95 q 251 103 224 -95 l 313 534 l 243 534 l 243 628 l 327 628 l 346 777 q 417 919 357 865 q 567 972 476 972 q 646 960 610 972 l 646 859 z "},"≈":{"ha":951,"x_min":142,"x_max":810,"o":"m 810 651 q 755 497 805 552 q 620 442 705 442 q 440 515 546 442 q 332 562 374 562 q 233 442 237 562 l 142 442 q 196 595 145 540 q 332 651 246 651 q 492 591 404 651 q 625 530 581 530 q 692 564 667 530 q 718 651 717 597 l 810 651 m 810 372 q 755 218 805 273 q 620 163 705 163 q 440 236 546 163 q 332 281 376 281 q 233 163 237 281 l 142 163 q 196 316 145 260 q 332 372 246 372 q 492 313 404 372 q 625 251 581 251 q 692 285 667 251 q 718 372 717 319 l 810 372 z "},"∆":{"ha":895,"x_min":35,"x_max":863,"o":"m 863 0 l 35 0 l 35 52 l 388 972 l 506 972 l 863 52 l 863 0 m 717 103 l 472 760 q 446 856 450 819 l 444 856 q 416 760 439 823 l 178 103 l 717 103 z "},"«":{"ha":703,"x_min":62,"x_max":643,"o":"m 642 136 l 528 136 l 325 363 l 528 597 l 643 597 l 435 363 l 642 136 m 378 136 l 265 136 l 62 363 l 265 597 l 378 597 l 172 363 l 378 136 z "},"»":{"ha":703,"x_min":61,"x_max":643,"o":"m 643 365 l 439 136 l 327 136 l 532 365 l 327 597 l 439 597 l 643 365 m 379 365 l 176 136 l 61 136 l 270 365 l 61 597 l 176 597 l 379 365 z "},"…":{"ha":1018,"x_min":95,"x_max":924,"o":"m 849 -12 q 797 9 818 -12 q 775 62 775 31 q 797 116 775 94 q 849 139 818 139 q 902 116 880 139 q 924 62 924 94 q 902 9 924 31 q 849 -12 880 -12 m 509 -12 q 455 9 477 -12 q 433 62 433 31 q 455 116 433 94 q 509 139 477 139 q 561 116 539 139 q 583 62 583 94 q 561 9 583 31 q 509 -12 539 -12 m 168 -12 q 116 9 137 -12 q 95 62 95 31 q 116 116 95 94 q 168 139 137 139 q 221 116 199 139 q 243 62 243 94 q 221 9 243 31 q 168 -12 199 -12 z "},"À":{"ha":896,"x_min":15,"x_max":880,"o":"m 880 0 l 754 0 l 651 273 l 239 273 l 142 0 l 15 0 l 388 972 l 506 972 l 880 0 m 614 375 l 461 789 q 446 854 454 810 l 444 854 q 428 789 437 813 l 277 375 l 614 375 m 514 1062 l 428 1062 l 250 1284 l 364 1284 l 514 1062 z "},"Ã":{"ha":896,"x_min":15,"x_max":880,"o":"m 880 0 l 754 0 l 651 273 l 239 273 l 142 0 l 15 0 l 388 972 l 506 972 l 880 0 m 614 375 l 461 789 q 446 854 454 810 l 444 854 q 428 789 437 813 l 277 375 l 614 375 m 663 1223 q 630 1106 663 1152 q 542 1061 597 1061 q 432 1097 494 1061 q 351 1126 380 1126 q 292 1049 292 1126 l 228 1049 q 260 1165 228 1122 q 351 1209 293 1209 q 452 1174 395 1209 q 539 1144 503 1144 q 596 1223 596 1144 l 663 1223 z "},"Õ":{"ha":1047,"x_min":64,"x_max":983,"o":"m 519 -16 q 188 120 313 -16 q 64 475 64 256 q 191 849 64 709 q 536 989 317 989 q 860 853 737 989 q 983 498 983 718 q 857 122 983 260 q 519 -16 731 -16 m 528 886 q 279 775 374 886 q 183 485 183 665 q 276 196 183 305 q 519 86 370 86 q 772 191 680 86 q 864 483 864 295 q 774 781 864 675 q 528 886 685 886 m 748 1222 q 715 1106 748 1151 q 627 1061 683 1061 q 517 1096 579 1061 q 437 1125 465 1125 q 377 1048 377 1125 l 313 1048 q 346 1165 313 1121 q 437 1208 378 1208 q 538 1173 481 1208 q 625 1143 588 1143 q 682 1222 682 1143 l 748 1222 z "},"Œ":{"ha":1293,"x_min":64,"x_max":1227,"o":"m 1227 0 l 739 0 q 646 -9 728 0 q 522 -16 579 -16 q 187 120 311 -16 q 64 475 64 256 q 192 849 64 709 q 541 989 321 989 q 662 982 602 989 q 739 972 738 972 l 1206 972 l 1206 869 l 826 869 l 826 546 l 1177 546 l 1177 444 l 826 444 l 826 103 l 1227 103 l 1227 0 m 712 109 l 712 867 q 530 886 604 886 q 279 773 375 886 q 183 485 183 661 q 278 198 183 310 q 526 86 372 86 q 712 109 605 86 z "},"œ":{"ha":1289,"x_min":65,"x_max":1238,"o":"m 1238 319 l 746 319 q 808 140 748 203 q 972 77 868 77 q 1189 155 1091 77 l 1189 50 q 947 -16 1097 -16 q 688 144 764 -16 l 685 144 q 403 -16 596 -16 q 156 81 248 -16 q 65 338 65 178 q 161 612 65 513 q 420 711 258 711 q 693 551 620 711 l 696 551 q 957 711 777 711 q 1164 622 1090 711 q 1238 379 1238 532 l 1238 319 m 1124 414 q 1077 564 1122 510 q 953 617 1031 617 q 815 559 871 617 q 747 414 758 501 l 1124 414 m 411 617 q 241 544 304 617 q 179 340 179 470 q 241 148 179 218 q 410 77 304 77 q 576 147 517 77 q 635 345 635 216 q 576 547 635 476 q 411 617 517 617 z "},"–":{"ha":694,"x_min":0,"x_max":694,"o":"m 694 343 l 0 343 l 0 431 l 694 431 l 694 343 z "},"—":{"ha":1389,"x_min":0,"x_max":1389,"o":"m 1389 343 l 0 343 l 0 431 l 1389 431 l 1389 343 z "},"“":{"ha":524,"x_min":72,"x_max":453,"o":"m 453 989 l 378 686 l 278 686 l 374 989 l 453 989 m 247 989 l 174 686 l 72 686 l 167 989 l 247 989 z "},"”":{"ha":524,"x_min":75,"x_max":456,"o":"m 456 989 l 361 686 l 281 686 l 354 989 l 456 989 m 250 989 l 155 686 l 75 686 l 150 989 l 250 989 z "},"‘":{"ha":318,"x_min":72,"x_max":247,"o":"m 247 989 l 174 686 l 72 686 l 167 989 l 247 989 z "},"’":{"ha":318,"x_min":75,"x_max":250,"o":"m 250 989 l 155 686 l 75 686 l 150 989 l 250 989 z "},"÷":{"ha":950,"x_min":157,"x_max":795,"o":"m 480 589 q 430 609 450 589 q 410 660 410 630 q 429 712 410 690 q 480 734 449 734 q 550 661 550 734 q 529 609 550 629 q 480 589 509 589 m 795 359 l 157 359 l 157 450 l 795 450 l 795 359 m 477 76 q 427 96 448 76 q 406 146 406 117 q 426 199 406 176 q 477 221 446 221 q 546 147 546 221 q 526 96 546 117 q 477 76 507 76 z "},"◊":{"ha":810,"x_min":73,"x_max":738,"o":"m 738 486 l 431 0 l 379 0 l 73 485 l 379 972 l 431 972 l 738 486 m 647 486 l 406 876 l 164 486 l 406 95 l 647 486 z "},"ÿ":{"ha":672,"x_min":9,"x_max":665,"o":"m 665 694 l 346 -111 q 106 -327 260 -327 q 33 -318 62 -327 l 33 -218 q 99 -231 69 -231 q 225 -130 183 -231 l 281 1 l 9 694 l 133 694 l 321 160 q 335 107 324 150 l 339 107 q 353 159 342 123 l 550 694 l 665 694 m 467 826 q 420 845 440 826 q 401 893 401 864 q 420 941 401 922 q 466 960 439 960 q 514 940 494 960 q 534 893 534 921 q 515 846 534 865 q 467 826 496 826 m 207 826 q 158 846 178 826 q 138 893 138 866 q 158 941 138 922 q 205 960 177 960 q 253 940 233 960 q 273 893 273 921 q 254 846 273 865 q 207 826 234 826 z "},"Ÿ":{"ha":768,"x_min":12,"x_max":760,"o":"m 760 972 l 439 359 l 439 0 l 325 0 l 325 357 l 12 972 l 142 972 l 359 533 q 383 473 363 525 l 385 473 q 411 533 392 496 l 639 972 l 760 972 m 515 1061 q 468 1080 488 1061 q 448 1128 448 1099 q 467 1176 448 1157 q 513 1195 486 1195 q 562 1176 542 1195 q 581 1128 581 1156 q 562 1081 581 1101 q 515 1061 543 1061 m 254 1061 q 206 1081 226 1061 q 186 1128 186 1101 q 205 1176 186 1157 q 252 1195 224 1195 q 300 1176 280 1195 q 321 1128 321 1156 q 301 1081 321 1101 q 254 1061 281 1061 z "},"⁄":{"ha":240,"x_min":-212,"x_max":468,"o":"m 468 972 l -114 0 l -212 0 l 371 972 l 468 972 z "},"€":{"ha":749,"x_min":69,"x_max":688,"o":"m 688 34 q 496 -16 597 -16 q 151 327 207 -16 l 69 327 l 69 422 l 142 422 q 140 474 140 443 q 144 547 140 507 l 69 547 l 69 642 l 158 642 q 289 897 193 805 q 522 989 385 989 q 688 951 614 989 l 688 841 q 514 894 610 894 q 363 826 429 894 q 271 642 297 758 l 608 642 l 608 547 l 256 547 q 255 422 250 480 l 608 422 l 608 327 l 266 327 q 503 79 315 79 q 688 138 592 79 l 688 34 z "},"‹":{"ha":439,"x_min":62,"x_max":379,"o":"m 378 136 l 265 136 l 62 363 l 265 597 l 379 597 l 172 363 l 378 136 z "},"›":{"ha":439,"x_min":62,"x_max":379,"o":"m 379 365 l 175 136 l 62 136 l 269 365 l 62 597 l 175 597 l 379 365 z "},"ﬁ":{"ha":770,"x_min":36,"x_max":680,"o":"m 456 930 q 382 949 423 949 q 265 802 265 949 l 265 694 l 428 694 l 428 600 l 265 600 l 265 0 l 155 0 l 155 600 l 36 600 l 36 694 l 155 694 l 155 807 q 218 980 155 916 q 375 1043 281 1043 q 456 1031 426 1043 l 456 930 m 606 871 q 554 891 575 871 q 533 943 533 911 q 554 994 533 973 q 606 1015 575 1015 q 658 995 636 1015 q 680 943 680 974 q 658 892 680 913 q 606 871 636 871 m 660 0 l 549 0 l 549 694 l 660 694 l 660 0 z "},"ﬂ":{"ha":770,"x_min":36,"x_max":661,"o":"m 456 930 q 382 949 423 949 q 265 802 265 949 l 265 694 l 428 694 l 428 600 l 265 600 l 265 0 l 155 0 l 155 600 l 36 600 l 36 694 l 155 694 l 155 807 q 218 980 155 916 q 375 1043 281 1043 q 456 1031 426 1043 l 456 930 m 661 0 l 551 0 l 551 1028 l 661 1028 l 661 0 z "},"‡":{"ha":521,"x_min":33,"x_max":494,"o":"m 494 352 l 289 366 l 316 155 l 210 155 l 237 366 l 33 352 l 33 454 l 210 433 l 250 564 l 210 694 l 33 673 l 33 775 l 237 762 l 210 972 l 316 972 l 289 762 l 494 775 l 494 673 l 316 694 l 277 564 l 316 433 l 494 454 l 494 352 z "},"·":{"ha":301,"x_min":76,"x_max":228,"o":"m 151 346 q 98 368 120 346 q 76 422 76 391 q 98 476 76 454 q 151 498 120 498 q 205 476 183 498 q 228 422 228 454 q 205 368 228 391 q 151 346 183 346 z "},"‚":{"ha":318,"x_min":60,"x_max":235,"o":"m 235 147 l 139 -155 l 60 -155 l 134 147 l 235 147 z "},"„":{"ha":524,"x_min":60,"x_max":440,"o":"m 440 147 l 346 -155 l 265 -155 l 339 147 l 440 147 m 235 147 l 139 -155 l 60 -155 l 134 147 l 235 147 z "},"‰":{"ha":1681,"x_min":54,"x_max":1626,"o":"m 274 485 q 114 551 174 485 q 54 728 54 617 q 117 918 54 848 q 288 987 180 987 q 449 923 391 987 q 506 742 506 859 q 442 555 506 625 q 274 485 378 485 m 283 913 q 182 865 219 913 q 144 734 144 817 q 181 606 144 652 q 281 560 218 560 q 380 608 345 560 q 416 739 416 655 q 381 867 416 821 q 283 913 345 913 m 926 972 l 301 -7 l 204 -7 l 829 972 l 926 972 m 1394 -15 q 1234 52 1294 -15 q 1175 228 1175 118 q 1239 418 1175 348 q 1408 489 1303 489 q 1569 424 1512 489 q 1626 241 1626 359 q 1563 55 1626 125 q 1394 -15 1499 -15 m 1404 412 q 1302 365 1339 412 q 1265 233 1265 317 q 1302 106 1265 152 q 1401 61 1338 61 q 1501 109 1466 61 q 1537 240 1537 157 q 1501 367 1537 322 q 1404 412 1466 412 m 853 -15 q 693 52 753 -15 q 633 228 633 118 q 697 419 633 349 q 867 489 761 489 q 1027 424 970 489 q 1085 241 1085 359 q 1021 55 1085 125 q 853 -15 957 -15 m 863 412 q 761 365 798 412 q 724 233 724 317 q 760 107 724 153 q 860 61 797 61 q 960 109 924 61 q 996 240 996 157 q 960 368 996 323 q 863 412 924 412 z "},"Â":{"ha":896,"x_min":15,"x_max":880,"o":"m 880 0 l 754 0 l 651 273 l 239 273 l 142 0 l 15 0 l 388 972 l 506 972 l 880 0 m 614 375 l 461 789 q 446 854 454 810 l 444 854 q 428 789 437 813 l 277 375 l 614 375 m 629 1061 l 546 1061 l 435 1217 l 323 1061 l 246 1061 l 392 1286 l 482 1286 l 629 1061 z "},"Ê":{"ha":703,"x_min":127,"x_max":643,"o":"m 643 0 l 127 0 l 127 972 l 621 972 l 621 869 l 241 869 l 241 546 l 593 546 l 593 444 l 241 444 l 241 103 l 643 103 l 643 0 m 561 1063 l 478 1063 l 367 1219 l 255 1063 l 178 1063 l 324 1288 l 414 1288 l 561 1063 z "},"Á":{"ha":896,"x_min":15,"x_max":880,"o":"m 880 0 l 754 0 l 651 273 l 239 273 l 142 0 l 15 0 l 388 972 l 506 972 l 880 0 m 614 375 l 461 789 q 446 854 454 810 l 444 854 q 428 789 437 813 l 277 375 l 614 375 m 588 1284 l 410 1062 l 324 1062 l 475 1284 l 588 1284 z "},"Ë":{"ha":703,"x_min":127,"x_max":643,"o":"m 643 0 l 127 0 l 127 972 l 621 972 l 621 869 l 241 869 l 241 546 l 593 546 l 593 444 l 241 444 l 241 103 l 643 103 l 643 0 m 508 1062 q 461 1081 481 1062 q 441 1129 441 1100 q 460 1177 441 1158 q 507 1196 479 1196 q 555 1176 535 1196 q 574 1129 574 1157 q 555 1082 574 1101 q 508 1062 536 1062 m 248 1062 q 199 1082 219 1062 q 179 1129 179 1102 q 198 1177 179 1158 q 245 1196 218 1196 q 294 1176 273 1196 q 314 1129 314 1157 q 294 1082 314 1101 q 248 1062 275 1062 z "},"È":{"ha":703,"x_min":127,"x_max":643,"o":"m 643 0 l 127 0 l 127 972 l 621 972 l 621 869 l 241 869 l 241 546 l 593 546 l 593 444 l 241 444 l 241 103 l 643 103 l 643 0 m 477 1062 l 391 1062 l 213 1284 l 327 1284 l 477 1062 z "},"Í":{"ha":370,"x_min":81,"x_max":345,"o":"m 241 0 l 127 0 l 127 972 l 241 972 l 241 0 m 345 1284 l 168 1062 l 81 1062 l 233 1284 l 345 1284 z "},"Î":{"ha":370,"x_min":-3,"x_max":380,"o":"m 241 0 l 127 0 l 127 972 l 241 972 l 241 0 m 380 1063 l 297 1063 l 186 1219 l 74 1063 l -3 1063 l 143 1288 l 233 1288 l 380 1063 z "},"Ï":{"ha":370,"x_min":-10,"x_max":385,"o":"m 241 0 l 127 0 l 127 972 l 241 972 l 241 0 m 319 1062 q 272 1081 292 1062 q 252 1129 252 1100 q 271 1177 252 1158 q 317 1196 290 1196 q 366 1176 346 1196 q 385 1129 385 1157 q 366 1082 385 1101 q 319 1062 347 1062 m 58 1062 q 10 1082 30 1062 q -10 1129 -10 1102 q 9 1177 -10 1158 q 56 1196 28 1196 q 104 1176 84 1196 q 125 1129 125 1157 q 105 1082 125 1101 q 58 1062 85 1062 z "},"Ì":{"ha":370,"x_min":18,"x_max":282,"o":"m 241 0 l 127 0 l 127 972 l 241 972 l 241 0 m 282 1062 l 196 1062 l 18 1284 l 132 1284 l 282 1062 z "},"Ó":{"ha":1047,"x_min":64,"x_max":983,"o":"m 519 -16 q 188 120 313 -16 q 64 475 64 256 q 191 849 64 709 q 536 989 317 989 q 860 853 737 989 q 983 498 983 718 q 857 122 983 260 q 519 -16 731 -16 m 528 886 q 279 775 374 886 q 183 485 183 665 q 276 196 183 305 q 519 86 370 86 q 772 191 680 86 q 864 483 864 295 q 774 781 864 675 q 528 886 685 886 m 697 1284 l 519 1062 l 433 1062 l 585 1284 l 697 1284 z "},"Ô":{"ha":1047,"x_min":64,"x_max":983,"o":"m 519 -16 q 188 120 313 -16 q 64 475 64 256 q 191 849 64 709 q 536 989 317 989 q 860 853 737 989 q 983 498 983 718 q 857 122 983 260 q 519 -16 731 -16 m 528 886 q 279 775 374 886 q 183 485 183 665 q 276 196 183 305 q 519 86 370 86 q 772 191 680 86 q 864 483 864 295 q 774 781 864 675 q 528 886 685 886 m 721 1062 l 638 1062 l 527 1218 l 415 1062 l 338 1062 l 484 1287 l 574 1287 l 721 1062 z "},"Ò":{"ha":1047,"x_min":64,"x_max":983,"o":"m 519 -16 q 188 120 313 -16 q 64 475 64 256 q 191 849 64 709 q 536 989 317 989 q 860 853 737 989 q 983 498 983 718 q 857 122 983 260 q 519 -16 731 -16 m 528 886 q 279 775 374 886 q 183 485 183 665 q 276 196 183 305 q 519 86 370 86 q 772 191 680 86 q 864 483 864 295 q 774 781 864 675 q 528 886 685 886 m 597 1062 l 511 1062 l 333 1284 l 447 1284 l 597 1062 z "},"Ú":{"ha":954,"x_min":115,"x_max":839,"o":"m 839 393 q 469 -16 839 -16 q 115 378 115 -16 l 115 972 l 229 972 l 229 385 q 481 86 229 86 q 725 375 725 86 l 725 972 l 839 972 l 839 393 m 651 1284 l 473 1061 l 387 1061 l 538 1284 l 651 1284 z "},"Û":{"ha":954,"x_min":115,"x_max":839,"o":"m 839 393 q 469 -16 839 -16 q 115 378 115 -16 l 115 972 l 229 972 l 229 385 q 481 86 229 86 q 725 375 725 86 l 725 972 l 839 972 l 839 393 m 669 1063 l 587 1063 l 475 1219 l 363 1063 l 287 1063 l 433 1288 l 523 1288 l 669 1063 z "},"Ù":{"ha":954,"x_min":115,"x_max":839,"o":"m 839 393 q 469 -16 839 -16 q 115 378 115 -16 l 115 972 l 229 972 l 229 385 q 481 86 229 86 q 725 375 725 86 l 725 972 l 839 972 l 839 393 m 563 1062 l 477 1062 l 299 1284 l 413 1284 l 563 1062 z "},"ı":{"ha":336,"x_min":113,"x_max":224,"o":"m 224 0 l 113 0 l 113 694 l 224 694 l 224 0 z "},"ˆ":{"ha":515,"x_min":62,"x_max":445,"o":"m 445 826 l 362 826 l 251 982 l 139 826 l 62 826 l 208 1051 l 298 1051 l 445 826 z "},"˜":{"ha":468,"x_min":24,"x_max":458,"o":"m 458 989 q 426 872 458 918 q 338 827 393 827 q 228 863 290 827 q 147 892 176 892 q 87 815 87 892 l 24 815 q 56 931 24 888 q 147 975 89 975 q 248 940 191 975 q 335 910 298 910 q 392 989 392 910 l 458 989 z "},"ˉ":{"ha":431,"x_min":42,"x_max":387,"o":"m 387 826 l 42 826 l 42 900 l 387 900 l 387 826 z "},"˘":{"ha":422,"x_min":25,"x_max":397,"o":"m 397 997 q 337 873 391 920 q 208 826 284 826 q 79 873 129 826 q 25 997 28 920 l 93 997 q 210 892 101 892 q 289 920 256 892 q 328 997 321 949 l 397 997 z "},"˙":{"ha":279,"x_min":73,"x_max":207,"o":"m 140 826 q 93 845 113 826 q 73 893 73 865 q 93 939 73 920 q 140 958 113 958 q 188 940 168 958 q 207 893 207 921 q 188 846 207 865 q 140 826 168 826 z "},"˚":{"ha":389,"x_min":56,"x_max":335,"o":"m 193 798 q 95 833 134 798 q 56 926 56 869 q 96 1024 56 987 q 197 1061 136 1061 q 296 1024 258 1061 q 335 930 335 987 q 294 836 335 873 q 193 798 252 798 m 193 1006 q 138 984 160 1006 q 117 929 117 962 q 193 853 117 853 q 249 875 227 853 q 271 929 271 897 q 249 984 271 962 q 193 1006 227 1006 z "},"¸":{"ha":285,"x_min":35,"x_max":265,"o":"m 265 -174 q 79 -293 265 -293 q 35 -292 53 -293 l 35 -231 q 82 -235 64 -235 q 178 -174 178 -235 q 90 -121 178 -121 q 62 -123 83 -121 l 62 0 l 136 0 l 136 -71 q 230 -98 195 -71 q 265 -174 265 -125 z "},"˝":{"ha":450,"x_min":43,"x_max":439,"o":"m 439 1042 l 273 826 l 207 826 l 349 1042 l 439 1042 m 271 1042 l 109 826 l 43 826 l 183 1042 l 271 1042 z "},"˛":{"ha":257,"x_min":42,"x_max":229,"o":"m 229 0 q 127 -151 127 -96 q 174 -199 127 -199 q 212 -190 194 -199 l 212 -262 q 156 -271 191 -271 q 73 -244 104 -271 q 42 -170 42 -217 q 149 0 42 -87 l 229 0 z "},"ˇ":{"ha":515,"x_min":69,"x_max":450,"o":"m 450 1050 l 305 826 l 216 826 l 69 1050 l 147 1050 l 258 895 l 370 1050 l 450 1050 z "},"Ł":{"ha":654,"x_min":22,"x_max":632,"o":"m 632 0 l 127 0 l 127 371 l 22 305 l 22 408 l 127 473 l 127 972 l 241 972 l 241 545 l 464 682 l 464 578 l 241 442 l 241 103 l 632 103 l 632 0 z "},"ł":{"ha":380,"x_min":15,"x_max":359,"o":"m 359 550 l 241 467 l 241 0 l 130 0 l 130 392 l 15 311 l 15 418 l 130 498 l 130 1028 l 241 1028 l 241 574 l 359 656 l 359 550 z "},"Š":{"ha":738,"x_min":82,"x_max":671,"o":"m 82 39 l 82 174 q 137 137 105 153 q 205 110 170 121 q 277 92 241 98 q 343 86 313 86 q 500 125 448 86 q 552 237 552 164 q 535 306 552 277 q 487 359 517 335 q 415 405 456 383 q 325 452 373 427 q 230 504 274 477 q 153 562 186 530 q 102 634 121 594 q 83 729 83 675 q 113 845 83 795 q 189 926 142 894 q 297 973 237 958 q 421 989 358 989 q 631 954 565 989 l 631 826 q 410 886 545 886 q 335 878 372 886 q 269 852 298 870 q 221 807 239 835 q 203 739 203 779 q 217 675 203 702 q 258 625 231 648 q 324 582 285 603 q 414 536 363 561 q 513 481 466 510 q 595 418 559 453 q 651 342 630 384 q 671 245 671 300 q 643 124 671 174 q 567 43 615 74 q 457 -2 519 12 q 326 -16 395 -16 q 269 -13 302 -16 q 199 -2 235 -9 q 133 16 164 5 q 82 39 101 26 m 560 1287 l 415 1063 l 326 1063 l 179 1287 l 257 1287 l 368 1132 l 479 1287 l 560 1287 z "},"š":{"ha":589,"x_min":71,"x_max":531,"o":"m 71 25 l 71 144 q 271 77 161 77 q 417 175 417 77 q 405 222 417 203 q 371 256 392 241 q 320 283 349 271 q 258 308 292 295 q 177 345 212 326 q 119 387 142 363 q 84 440 96 410 q 72 510 72 470 q 94 596 72 559 q 154 660 117 634 q 239 698 191 685 q 338 711 287 711 q 499 680 428 711 l 499 567 q 323 617 422 617 q 267 610 292 617 q 223 590 241 603 q 196 559 205 577 q 186 519 186 541 q 196 474 186 492 q 224 441 205 456 q 271 416 243 427 q 332 391 298 404 q 415 354 378 373 q 477 312 452 336 q 517 258 503 289 q 531 186 531 228 q 508 96 531 134 q 448 33 486 58 q 360 -4 410 8 q 256 -16 311 -16 q 71 25 149 -16 m 463 1050 l 317 826 l 228 826 l 81 1050 l 159 1050 l 271 895 l 382 1050 l 463 1050 z "},"Ž":{"ha":792,"x_min":22,"x_max":762,"o":"m 762 945 l 193 103 l 749 103 l 749 0 l 22 0 l 22 32 l 587 869 l 68 869 l 68 972 l 762 972 l 762 945 m 610 1285 l 465 1061 l 376 1061 l 229 1285 l 307 1285 l 418 1130 l 530 1285 l 610 1285 z "},"ž":{"ha":628,"x_min":22,"x_max":597,"o":"m 597 663 l 186 95 l 593 95 l 593 0 l 22 0 l 22 35 l 433 600 l 61 600 l 61 694 l 597 694 l 597 663 m 530 1050 l 385 826 l 296 826 l 149 1050 l 227 1050 l 338 895 l 450 1050 l 530 1050 z "},"¦":{"ha":332,"x_min":117,"x_max":217,"o":"m 217 485 l 117 485 l 117 1062 l 217 1062 l 217 485 m 217 -327 l 117 -327 l 117 251 l 217 251 l 217 -327 z "},"Ð":{"ha":974,"x_min":19,"x_max":910,"o":"m 127 0 l 127 435 l 19 435 l 19 540 l 127 540 l 127 972 l 396 972 q 910 498 910 972 q 767 136 910 272 q 385 0 625 0 l 127 0 m 241 869 l 241 540 l 469 540 l 469 435 l 241 435 l 241 103 l 387 103 q 684 205 578 103 q 791 496 791 308 q 393 869 791 869 l 241 869 z "},"ð":{"ha":777,"x_min":65,"x_max":711,"o":"m 533 656 l 536 659 q 401 839 475 768 l 199 736 l 164 803 l 347 892 q 168 1028 267 963 l 318 1028 q 435 936 369 993 l 631 1034 l 668 970 l 489 882 q 711 357 711 673 q 623 90 711 194 q 385 -15 536 -15 q 150 80 235 -15 q 65 339 65 175 q 153 607 65 504 q 391 709 241 709 q 533 656 474 709 m 395 617 q 237 544 294 617 q 179 343 179 470 q 235 149 179 220 q 392 77 292 77 q 542 151 486 77 q 597 346 597 224 q 395 617 597 617 z "},"Ý":{"ha":768,"x_min":12,"x_max":760,"o":"m 760 972 l 439 359 l 439 0 l 325 0 l 325 357 l 12 972 l 142 972 l 359 533 q 383 473 363 525 l 385 473 q 411 533 392 496 l 639 972 l 760 972 m 564 1284 l 386 1062 l 300 1062 l 451 1284 l 564 1284 z "},"ý":{"ha":672,"x_min":9,"x_max":665,"o":"m 665 694 l 346 -111 q 106 -327 260 -327 q 33 -318 62 -327 l 33 -218 q 99 -231 69 -231 q 225 -130 183 -231 l 281 1 l 9 694 l 133 694 l 321 160 q 335 107 324 150 l 339 107 q 353 159 342 123 l 550 694 l 665 694 m 517 1048 l 339 826 l 253 826 l 404 1048 l 517 1048 z "},"Þ":{"ha":778,"x_min":127,"x_max":722,"o":"m 241 216 l 241 0 l 127 0 l 127 972 l 241 972 l 241 819 l 395 819 q 637 744 552 819 q 722 529 722 668 q 626 303 722 391 q 368 216 530 216 l 241 216 m 241 717 l 241 318 l 361 318 q 541 371 478 318 q 603 522 603 424 q 375 717 603 717 l 241 717 z "},"þ":{"ha":817,"x_min":113,"x_max":751,"o":"m 227 100 l 224 100 l 224 -319 l 113 -319 l 113 1028 l 224 1028 l 224 572 l 227 572 q 467 711 309 711 q 676 617 601 711 q 751 368 751 524 q 667 89 751 193 q 435 -16 582 -16 q 227 100 300 -16 m 224 380 l 224 283 q 280 137 224 197 q 422 77 336 77 q 580 155 523 77 q 637 370 637 232 q 584 551 637 486 q 439 617 530 617 q 283 550 342 617 q 224 380 224 482 z "},"−":{"ha":950,"x_min":157,"x_max":795,"o":"m 795 359 l 157 359 l 157 450 l 795 450 l 795 359 z "},"×":{"ha":950,"x_min":182,"x_max":769,"o":"m 769 175 l 705 111 l 475 342 l 245 111 l 182 175 l 412 404 l 182 635 l 245 699 l 475 468 l 705 699 l 769 635 l 538 404 l 769 175 z "},"¹":{"ha":488,"x_min":86,"x_max":433,"o":"m 433 396 l 92 396 l 92 472 l 217 472 l 217 875 l 86 838 l 86 922 l 305 987 l 305 472 l 433 472 l 433 396 z "},"²":{"ha":509,"x_min":71,"x_max":446,"o":"m 446 396 l 71 396 l 71 473 l 233 633 q 323 740 304 703 q 342 814 342 777 q 316 878 342 853 q 248 903 290 903 q 102 833 168 903 l 102 935 q 261 986 159 986 q 388 941 341 986 q 435 823 435 897 q 296 587 435 720 l 184 481 l 184 479 l 446 479 l 446 396 z "},"³":{"ha":509,"x_min":87,"x_max":444,"o":"m 87 418 l 87 514 q 235 463 157 463 q 320 488 289 463 q 351 557 351 513 q 203 652 351 652 l 146 652 l 146 732 l 200 732 q 334 823 334 732 q 236 904 334 904 q 110 857 172 904 l 110 951 q 254 986 169 986 q 376 946 331 986 q 422 840 422 905 q 323 701 422 738 l 323 699 q 444 562 444 670 q 386 432 444 482 q 232 382 328 382 q 87 418 139 382 z "},"½":{"ha":1293,"x_min":86,"x_max":1185,"o":"m 433 396 l 92 396 l 92 472 l 217 472 l 217 875 l 86 838 l 86 922 l 305 987 l 305 472 l 433 472 l 433 396 m 945 972 l 363 0 l 265 0 l 848 972 l 945 972 m 1185 1 l 810 1 l 810 78 l 972 238 q 1062 344 1043 307 q 1081 418 1081 381 q 1055 483 1081 458 q 987 507 1029 507 q 841 438 907 507 l 841 539 q 1000 591 898 591 q 1127 546 1080 591 q 1174 428 1174 501 q 1035 192 1174 324 l 924 86 l 924 83 l 1185 83 l 1185 1 z "},"¼":{"ha":1259,"x_min":86,"x_max":1157,"o":"m 433 396 l 92 396 l 92 472 l 217 472 l 217 875 l 86 838 l 86 922 l 305 987 l 305 472 l 433 472 l 433 396 m 945 972 l 363 0 l 265 0 l 848 972 l 945 972 m 1157 138 l 1082 138 l 1082 0 l 993 0 l 993 138 l 726 138 l 726 201 l 977 576 l 1082 576 l 1082 212 l 1157 212 l 1157 138 m 996 491 l 993 491 q 967 441 985 470 l 819 212 l 993 212 l 993 431 q 996 491 993 453 z "},"¾":{"ha":1322,"x_min":87,"x_max":1201,"o":"m 87 418 l 87 514 q 235 463 157 463 q 320 488 289 463 q 351 557 351 513 q 203 652 351 652 l 146 652 l 146 732 l 200 732 q 334 823 334 732 q 236 904 334 904 q 110 857 172 904 l 110 951 q 254 986 169 986 q 376 946 331 986 q 422 840 422 905 q 323 701 422 738 l 323 699 q 444 562 444 670 q 386 432 444 482 q 232 382 328 382 q 87 418 139 382 m 993 972 l 411 0 l 313 0 l 896 972 l 993 972 m 1201 138 l 1126 138 l 1126 0 l 1037 0 l 1037 138 l 770 138 l 770 201 l 1021 576 l 1126 576 l 1126 212 l 1201 212 l 1201 138 m 1040 491 l 1037 491 q 1011 441 1029 470 l 863 212 l 1037 212 l 1037 431 q 1040 491 1037 453 z "},"¯":{"ha":576,"x_min":0,"x_max":576,"o":"m 576 947 l 0 947 l 0 1028 l 576 1028 l 576 947 z "},"∙":{"ha":301,"x_min":76,"x_max":228,"o":"m 151 346 q 98 368 120 346 q 76 422 76 391 q 98 476 76 454 q 151 498 120 498 q 205 476 183 498 q 228 422 228 454 q 205 368 228 391 q 151 346 183 346 z "},"¤":{"ha":772,"x_min":68,"x_max":704,"o":"m 704 240 l 642 175 l 549 269 q 387 217 477 217 q 224 269 294 217 l 130 175 l 68 240 l 161 331 q 110 492 110 408 q 161 652 110 579 l 68 745 l 130 810 l 224 717 q 387 769 298 769 q 547 717 474 769 l 642 810 l 704 745 l 611 652 q 664 492 664 576 q 611 331 664 410 l 704 240 m 387 680 q 254 625 308 680 q 200 493 200 570 q 255 361 200 416 q 387 307 309 307 q 518 361 463 307 q 574 493 574 416 q 517 625 574 570 q 387 680 461 680 z "},"⁴":{"ha":488,"x_min":32,"x_max":463,"o":"m 463 534 l 388 534 l 388 396 l 298 396 l 298 534 l 32 534 l 32 597 l 282 972 l 388 972 l 388 608 l 463 608 l 463 534 m 301 887 l 298 887 q 273 838 290 866 l 125 608 l 298 608 l 298 827 q 301 887 298 849 z "},"π":{"ha":871,"x_min":12,"x_max":813,"o":"m 813 604 l 663 604 l 663 184 q 731 90 663 90 q 791 102 754 90 l 791 7 q 708 -8 749 -8 q 551 180 551 -8 l 551 604 l 287 604 l 287 190 q 265 0 287 60 l 152 0 q 176 190 176 59 l 176 604 q 12 544 93 602 l 12 646 q 178 694 62 694 l 813 694 l 813 604 z "},"ก":{"ha":797,"x_min":79,"x_max":700,"o":"m 97 0 l 97 254 q 131 349 97 313 q 229 403 165 385 l 79 403 l 79 477 q 112 567 88 526 q 175 640 136 609 q 267 689 214 671 q 389 707 321 707 q 532 686 473 707 q 629 629 591 665 q 683 541 666 592 q 700 429 700 490 l 700 0 l 598 0 l 598 422 q 547 567 598 516 q 390 617 496 617 q 304 605 341 617 q 240 572 267 592 q 199 528 214 553 q 180 480 184 504 l 345 480 l 345 400 q 235 348 272 386 q 199 248 199 309 l 199 0 l 97 0 z "},"ข":{"ha":838,"x_min":25,"x_max":734,"o":"m 25 488 q 38 564 25 525 q 79 634 50 602 q 155 686 108 666 q 271 707 202 707 q 378 693 333 707 q 453 655 422 680 q 499 597 483 631 q 523 524 516 564 q 419 441 456 503 q 382 285 382 380 l 382 91 l 520 91 q 602 118 572 91 q 632 193 632 144 l 632 694 l 734 694 l 734 186 q 725 119 734 153 q 692 60 715 86 q 629 17 668 33 q 530 0 590 0 l 281 0 l 281 286 q 316 439 281 381 q 421 525 351 498 q 411 558 419 541 q 385 589 402 575 q 339 613 368 604 q 268 622 311 622 q 182 608 220 622 q 127 568 144 594 q 138 570 131 570 q 151 571 145 571 q 197 562 176 571 q 234 538 218 553 q 258 501 250 522 q 267 454 267 479 q 258 408 267 429 q 234 371 250 387 q 197 346 218 355 q 151 337 176 337 q 96 349 119 337 q 56 380 72 360 q 33 428 41 400 q 25 488 25 456 m 203 454 q 187 491 203 475 q 150 507 172 507 q 130 503 139 507 q 113 491 120 498 q 102 474 106 484 q 98 454 98 465 q 113 417 98 432 q 150 401 128 401 q 171 406 161 401 q 188 417 180 410 q 199 433 195 424 q 203 454 203 443 z "},"ฃ":{"ha":854,"x_min":25,"x_max":751,"o":"m 25 444 q 35 525 25 486 q 63 599 45 565 q 108 659 81 633 q 167 701 134 686 l 268 610 l 355 701 q 421 685 390 698 q 475 651 452 673 q 512 597 498 629 q 526 524 526 566 q 420 441 457 503 q 382 285 382 380 l 382 91 l 530 91 q 617 118 585 91 q 649 193 649 144 l 649 694 l 751 694 l 751 186 q 741 119 751 153 q 707 60 732 86 q 642 17 683 33 q 539 0 602 0 l 281 0 l 281 286 q 317 439 281 381 q 425 525 353 498 q 421 553 425 538 q 409 580 417 568 q 387 602 400 593 q 356 615 374 610 l 268 525 l 168 615 q 148 599 157 608 q 132 579 139 590 q 121 558 125 569 q 115 534 117 547 q 132 539 121 537 q 151 541 143 541 q 197 532 176 541 q 234 507 218 523 q 258 470 250 492 q 267 424 267 449 q 258 377 267 399 q 234 340 250 356 q 197 315 218 324 q 151 307 176 307 q 96 317 119 307 q 56 346 72 327 q 33 389 41 364 q 25 444 25 414 m 203 423 q 187 460 203 445 q 150 476 172 476 q 130 472 139 476 q 113 461 120 468 q 102 444 106 454 q 98 423 98 434 q 113 386 98 401 q 150 371 128 371 q 171 375 161 371 q 188 386 180 379 q 199 403 195 393 q 203 423 203 412 z "},"ค":{"ha":798,"x_min":68,"x_max":701,"o":"m 290 360 q 267 331 279 349 q 243 287 254 312 q 225 227 233 261 q 218 146 218 193 l 218 0 l 117 0 l 117 186 q 108 248 116 218 q 92 307 100 277 q 75 371 83 337 q 68 449 68 406 q 90 560 68 512 q 153 641 112 608 q 252 690 194 673 q 383 707 311 707 q 620 638 538 707 q 701 429 701 569 l 701 0 l 600 0 l 600 422 q 589 496 600 460 q 553 558 578 531 q 486 601 528 585 q 383 616 445 616 q 283 601 324 616 q 217 561 243 585 q 181 507 192 537 q 170 449 170 477 q 179 372 170 408 q 196 305 188 336 q 231 368 212 338 q 273 420 250 397 q 327 456 297 443 q 393 470 357 470 q 444 462 420 470 q 485 439 468 454 q 512 401 503 424 q 522 351 522 379 q 513 304 522 326 q 489 267 505 283 q 451 243 473 252 q 405 234 430 234 q 358 243 380 234 q 321 267 337 252 q 297 304 306 283 q 288 351 288 326 q 290 360 288 357 m 406 298 q 426 302 416 298 q 443 314 435 307 q 454 331 450 321 q 458 351 458 340 q 443 388 458 373 q 406 404 427 404 q 385 399 395 404 q 368 388 375 395 q 357 372 361 381 q 353 351 353 362 q 368 314 353 330 q 406 298 384 298 z "},"ฅ":{"ha":798,"x_min":68,"x_max":701,"o":"m 218 0 l 117 0 l 117 186 q 108 248 116 218 q 92 307 100 277 q 75 371 83 337 q 68 449 68 406 q 86 556 68 511 q 133 631 104 601 q 199 678 162 661 q 273 701 235 695 l 383 589 l 493 700 q 573 678 535 694 q 639 629 610 661 q 684 548 667 597 q 701 429 701 499 l 701 0 l 600 0 l 600 422 q 594 490 600 459 q 578 544 589 521 q 547 583 566 568 q 500 602 528 597 l 383 490 l 265 602 q 222 583 240 597 q 192 547 203 568 q 175 501 180 526 q 170 449 170 475 q 179 372 170 408 q 196 305 188 336 q 231 355 212 331 q 273 396 250 378 q 327 425 297 414 q 393 436 357 436 q 444 428 420 436 q 485 405 468 420 q 512 368 503 390 q 522 317 522 345 q 513 270 522 292 q 489 233 505 249 q 451 209 473 218 q 405 200 430 200 q 358 209 380 200 q 321 233 337 218 q 297 270 306 249 q 288 317 288 292 q 290 326 288 323 q 267 302 279 317 q 243 267 254 288 q 225 220 233 246 q 218 161 218 193 l 218 0 m 406 264 q 426 269 416 264 q 443 280 435 273 q 454 297 450 287 q 458 317 458 307 q 443 354 458 339 q 406 370 427 370 q 385 366 395 370 q 368 354 375 361 q 357 338 361 347 q 353 317 353 328 q 368 280 353 296 q 406 264 384 264 z "},"ฆ":{"ha":860,"x_min":25,"x_max":747,"o":"m 281 182 q 250 173 264 180 q 225 156 235 166 q 210 133 215 146 q 204 104 204 119 q 216 68 204 79 q 242 57 227 57 q 269 67 258 57 q 281 104 281 78 l 281 182 m 268 525 l 168 615 q 148 599 157 608 q 132 579 139 590 q 121 558 125 569 q 115 534 117 547 q 132 539 121 537 q 151 541 143 541 q 197 532 176 541 q 234 507 218 523 q 258 470 250 492 q 267 424 267 449 q 258 377 267 399 q 234 340 250 356 q 197 315 218 324 q 151 307 176 307 q 96 317 119 307 q 56 346 72 327 q 33 389 41 364 q 25 444 25 414 q 35 525 25 486 q 63 599 45 565 q 108 659 81 633 q 167 701 134 686 l 268 610 l 355 701 q 421 685 390 698 q 475 651 452 673 q 512 597 498 629 q 526 524 526 566 q 420 441 457 503 q 382 285 382 380 l 382 247 q 454 231 416 242 q 526 204 491 220 q 592 167 562 188 q 646 121 623 146 l 646 694 l 747 694 l 747 0 l 646 0 q 591 64 624 34 q 523 117 559 94 q 449 157 486 140 q 382 179 412 173 l 382 119 q 375 65 382 89 q 352 24 368 41 q 308 -2 335 7 q 242 -11 281 -11 q 145 21 177 -11 q 113 104 113 52 q 127 163 113 137 q 163 207 140 189 q 217 236 186 225 q 281 250 248 247 l 281 286 q 317 439 281 381 q 425 525 353 498 q 421 553 425 538 q 409 580 417 568 q 387 602 400 593 q 356 615 374 610 l 268 525 m 203 423 q 187 460 203 445 q 150 476 172 476 q 130 472 139 476 q 113 461 120 468 q 102 444 106 454 q 98 423 98 434 q 113 386 98 401 q 150 371 128 371 q 171 375 161 371 q 188 386 180 379 q 199 403 195 393 q 203 423 203 412 z "},"ง":{"ha":539,"x_min":0,"x_max":433,"o":"m 199 584 q 208 630 199 609 q 233 668 217 652 q 270 692 248 684 q 316 701 291 701 q 362 692 341 701 q 400 668 384 684 q 425 630 416 652 q 433 584 433 609 l 433 0 l 330 0 l 0 313 l 0 437 l 332 121 l 332 468 q 324 467 328 467 q 316 467 319 467 q 270 476 291 467 q 233 500 248 485 q 208 537 217 516 q 199 584 199 559 m 264 585 q 279 547 264 563 q 317 532 295 532 q 337 536 328 532 q 354 547 347 540 q 365 564 361 554 q 369 585 369 574 q 354 622 369 606 q 317 637 338 637 q 296 633 306 637 q 279 622 286 629 q 268 605 272 614 q 264 585 264 595 z "},"จ":{"ha":707,"x_min":54,"x_max":616,"o":"m 515 147 l 515 428 q 503 501 515 467 q 467 561 492 536 q 405 602 443 587 q 314 616 367 616 q 246 608 281 616 q 177 584 211 600 q 112 548 143 569 q 54 503 80 527 l 54 618 q 171 684 105 661 q 314 707 236 707 q 446 686 389 707 q 541 628 503 665 q 597 541 578 591 q 616 429 616 490 l 616 0 l 515 0 l 351 231 q 310 189 338 207 q 248 171 282 171 q 201 180 222 171 q 164 204 180 189 q 140 241 149 220 q 131 288 131 262 q 139 334 131 313 q 164 371 148 355 q 204 396 180 387 q 256 405 227 405 q 323 388 291 405 q 385 328 355 370 l 515 147 m 195 288 q 211 251 195 267 q 248 235 227 235 q 285 251 270 235 q 300 288 300 266 q 285 325 300 310 q 248 340 270 340 q 211 325 226 340 q 195 288 195 310 z "},"ฉ":{"ha":859,"x_min":68,"x_max":832,"o":"m 563 427 q 552 500 563 466 q 516 561 541 535 q 454 602 492 587 q 363 616 416 616 q 295 608 330 616 q 226 584 260 600 q 160 548 192 569 q 103 503 129 527 l 103 618 q 219 684 154 661 q 363 707 285 707 q 495 686 438 707 q 589 628 551 665 q 646 541 627 591 q 665 429 665 490 l 665 250 q 728 236 698 247 q 782 208 759 226 q 819 164 805 190 q 832 106 832 139 q 824 59 832 81 q 800 22 816 37 q 760 -2 784 6 q 703 -11 736 -11 q 637 -2 664 -11 q 594 24 610 7 q 570 65 577 41 q 563 119 563 89 l 563 176 q 488 153 526 170 q 416 112 450 136 q 353 59 382 88 q 302 0 323 31 l 200 0 l 200 232 q 192 231 197 231 q 184 231 188 231 q 138 240 159 231 q 101 264 117 249 q 77 301 85 280 q 68 348 68 323 q 77 394 68 373 q 101 432 85 416 q 138 456 117 448 q 184 465 159 465 q 231 456 210 465 q 268 432 252 448 q 293 394 284 416 q 302 348 302 373 l 302 116 q 354 162 326 140 q 414 201 382 184 q 484 230 447 218 q 563 247 522 242 l 563 427 m 132 349 q 148 311 132 327 q 185 296 163 296 q 205 300 196 296 q 222 311 215 304 q 233 328 229 318 q 237 349 237 338 q 222 386 237 370 q 185 401 207 401 q 164 397 174 401 q 148 386 155 393 q 136 369 140 378 q 132 349 132 359 m 665 106 q 676 67 665 79 q 703 56 688 56 q 730 67 718 56 q 741 104 741 78 q 720 154 741 134 q 665 178 699 174 l 665 106 z "},"ช":{"ha":835,"x_min":25,"x_max":802,"o":"m 271 707 q 378 693 333 707 q 453 655 422 680 q 499 597 483 631 q 523 524 516 564 q 419 441 456 503 q 382 285 382 380 l 382 91 l 545 91 q 614 118 589 91 q 639 193 639 144 l 639 453 q 633 500 639 479 q 617 539 627 522 q 594 568 608 556 q 567 585 581 580 l 567 627 q 653 673 622 641 q 696 751 684 705 l 802 751 q 780 700 795 723 q 743 658 764 676 q 697 627 722 640 q 647 606 672 614 q 682 589 665 601 q 712 557 699 576 q 733 512 725 538 q 741 453 741 486 l 741 186 q 732 119 741 153 q 702 60 724 86 q 645 17 681 33 q 555 0 610 0 l 281 0 l 281 286 q 316 439 281 381 q 421 525 351 498 q 411 558 419 541 q 385 589 402 575 q 339 613 368 604 q 268 622 311 622 q 182 608 220 622 q 127 568 144 594 q 138 570 131 570 q 151 571 145 571 q 197 562 176 571 q 234 538 218 553 q 258 501 250 522 q 267 454 267 479 q 258 408 267 429 q 234 371 250 387 q 197 346 218 355 q 151 337 176 337 q 96 349 119 337 q 56 380 72 360 q 33 428 41 400 q 25 488 25 456 q 38 564 25 525 q 79 634 50 602 q 155 686 108 666 q 271 707 202 707 m 203 454 q 187 491 203 475 q 150 507 172 507 q 130 503 139 507 q 113 491 120 498 q 102 474 106 484 q 98 454 98 465 q 113 417 98 432 q 150 401 128 401 q 171 406 161 401 q 188 417 180 410 q 199 433 195 424 q 203 454 203 443 z "},"ซ":{"ha":845,"x_min":25,"x_max":812,"o":"m 268 525 l 168 615 q 148 599 157 608 q 132 579 139 590 q 121 558 125 569 q 115 534 117 547 q 132 539 121 537 q 151 541 143 541 q 197 532 176 541 q 234 507 218 523 q 258 470 250 492 q 267 424 267 449 q 258 377 267 399 q 234 340 250 356 q 197 315 218 324 q 151 307 176 307 q 96 317 119 307 q 56 346 72 327 q 33 389 41 364 q 25 444 25 414 q 35 525 25 486 q 63 599 45 565 q 108 659 81 633 q 167 701 134 686 l 268 610 l 355 701 q 421 685 390 698 q 475 651 452 673 q 512 597 498 629 q 526 524 526 566 q 420 441 457 503 q 382 285 382 380 l 382 91 l 555 91 q 624 118 599 91 q 649 193 649 144 l 649 453 q 643 500 649 479 q 628 539 637 522 q 605 568 618 556 q 577 585 591 580 l 577 627 q 663 673 632 641 q 706 751 694 705 l 812 751 q 790 700 806 723 q 753 658 774 676 q 708 627 732 640 q 658 606 683 614 q 692 589 675 601 q 722 557 709 576 q 743 512 735 538 q 751 453 751 486 l 751 186 q 742 119 751 153 q 712 60 734 86 q 655 17 691 33 q 565 0 620 0 l 281 0 l 281 286 q 317 439 281 381 q 425 525 353 498 q 421 553 425 538 q 409 580 417 568 q 387 602 400 593 q 356 615 374 610 l 268 525 m 203 423 q 187 460 203 445 q 150 476 172 476 q 130 472 139 476 q 113 461 120 468 q 102 444 106 454 q 98 423 98 434 q 113 386 98 401 q 150 371 128 371 q 171 375 161 371 q 188 386 180 379 q 199 403 195 393 q 203 423 203 412 z "},"ฌ":{"ha":1154,"x_min":83,"x_max":1042,"o":"m 575 422 q 565 505 575 469 q 531 566 554 541 q 470 604 507 591 q 380 617 433 617 q 297 605 332 617 q 238 572 262 592 q 201 528 214 553 q 184 480 188 504 l 345 480 l 345 400 q 236 348 273 386 q 199 248 199 309 l 199 222 q 207 223 203 223 q 215 223 212 223 q 261 214 240 223 q 298 190 283 205 q 323 153 314 174 q 332 106 332 132 q 323 60 332 81 q 298 23 314 39 q 261 -2 283 7 q 215 -11 240 -11 q 169 -2 190 -11 q 131 23 147 7 q 106 60 115 39 q 98 106 98 81 l 98 254 q 132 349 98 313 q 229 403 165 385 l 83 403 l 83 477 q 114 567 92 526 q 173 640 136 609 q 260 689 209 671 q 380 707 312 707 q 522 686 465 707 q 613 629 578 665 q 662 541 648 592 q 677 429 677 490 l 677 247 q 743 232 707 242 q 814 207 779 222 q 883 169 850 191 q 940 121 916 148 l 940 694 l 1042 694 l 1042 0 l 940 0 q 889 61 921 31 q 820 115 857 90 q 745 156 783 139 q 677 179 707 173 l 677 119 q 670 65 677 89 q 646 24 663 41 q 603 -2 629 7 q 536 -11 576 -11 q 439 21 471 -11 q 408 104 408 52 q 421 163 408 137 q 458 207 435 189 q 511 236 481 225 q 575 250 542 247 l 575 422 m 267 106 q 252 143 267 127 q 214 159 236 159 q 194 155 203 159 q 177 143 184 151 q 166 126 170 136 q 162 106 162 117 q 177 69 162 84 q 214 54 193 54 q 235 58 225 54 q 252 69 245 62 q 263 85 259 76 q 267 106 267 95 m 575 182 q 544 173 558 180 q 519 156 530 166 q 504 133 509 146 q 498 104 498 119 q 510 68 498 79 q 536 57 522 57 q 564 67 552 57 q 575 104 575 78 l 575 182 z "},"ญ":{"ha":1145,"x_min":83,"x_max":1042,"o":"m 814 -144 q 812 -167 814 -154 q 802 -189 809 -180 q 859 -167 828 -183 q 919 -128 890 -151 q 974 -77 949 -105 q 1016 -17 1000 -48 l 1016 -131 q 969 -178 997 -155 q 906 -219 941 -201 q 828 -250 871 -238 q 736 -261 785 -261 q 674 -252 701 -261 q 629 -228 648 -243 q 602 -190 611 -212 q 593 -144 593 -169 q 601 -100 593 -121 q 624 -65 610 -80 q 659 -42 639 -50 q 703 -33 680 -33 q 747 -42 727 -33 q 783 -65 768 -50 q 806 -100 798 -80 q 814 -144 814 -121 m 656 -144 q 670 -178 656 -164 q 704 -191 684 -191 q 737 -178 724 -191 q 751 -144 751 -164 q 737 -111 751 -124 q 704 -97 724 -97 q 670 -111 684 -97 q 656 -144 656 -124 m 267 106 q 252 143 267 127 q 214 159 236 159 q 194 155 203 159 q 177 143 184 151 q 166 126 170 136 q 162 106 162 117 q 177 69 162 84 q 214 54 193 54 q 235 58 225 54 q 252 69 245 62 q 263 85 259 76 q 267 106 267 95 m 677 91 l 846 91 q 915 118 890 91 q 940 193 940 144 l 940 694 l 1042 694 l 1042 186 q 1033 119 1042 153 q 1003 60 1025 86 q 946 17 982 33 q 856 0 911 0 l 575 0 l 575 422 q 565 505 575 469 q 531 566 554 541 q 470 604 507 591 q 380 617 433 617 q 297 605 332 617 q 238 572 262 592 q 201 528 214 553 q 184 480 188 504 l 345 480 l 345 400 q 236 348 273 386 q 199 248 199 309 l 199 222 q 207 223 203 223 q 215 223 212 223 q 261 214 240 223 q 298 190 283 205 q 323 153 314 174 q 332 106 332 132 q 323 60 332 81 q 298 23 314 39 q 261 -2 283 7 q 215 -11 240 -11 q 169 -2 190 -11 q 131 23 147 7 q 106 60 115 39 q 98 106 98 81 l 98 254 q 132 349 98 313 q 229 403 165 385 l 83 403 l 83 477 q 114 567 92 526 q 173 640 136 609 q 260 689 209 671 q 380 707 312 707 q 522 686 465 707 q 613 629 578 665 q 662 541 648 592 q 677 429 677 490 l 677 91 z "},"ฎ":{"ha":831,"x_min":29,"x_max":734,"o":"m 375 -129 q 358 -126 370 -127 q 336 -124 346 -124 q 299 -128 315 -124 q 275 -139 284 -132 q 261 -155 265 -146 q 257 -174 257 -164 q 268 -200 257 -190 q 296 -211 278 -211 q 327 -204 313 -211 q 350 -185 340 -197 q 366 -159 360 -174 q 375 -129 372 -144 m 734 -278 l 621 -278 q 532 -189 579 -221 q 437 -144 484 -157 q 422 -189 433 -166 q 394 -230 412 -212 q 352 -260 377 -248 q 296 -272 328 -272 q 255 -266 274 -272 q 223 -247 237 -260 q 201 -216 209 -235 q 193 -174 193 -198 q 203 -128 193 -149 q 232 -93 213 -108 q 278 -71 251 -79 q 338 -63 304 -63 q 349 -63 342 -63 q 363 -64 356 -64 q 376 -66 370 -65 q 385 -67 382 -66 q 404 -18 390 -39 q 437 12 417 3 l 527 12 q 474 -25 493 0 q 448 -79 454 -50 q 552 -119 504 -94 q 632 -174 601 -145 l 632 422 q 622 505 632 469 q 588 566 611 541 q 527 604 564 591 q 437 617 490 617 q 353 605 389 617 q 294 572 318 592 q 258 528 271 553 q 241 480 245 504 l 402 480 l 402 400 q 296 348 330 386 q 263 248 263 309 l 263 106 q 254 60 263 81 q 230 23 245 39 q 192 -2 214 7 q 146 -11 171 -11 q 99 -2 121 -11 q 62 23 78 7 q 38 60 47 39 q 29 106 29 81 q 38 153 29 132 q 62 190 47 174 q 99 214 78 205 q 146 223 121 223 q 154 223 149 223 q 161 222 158 223 l 161 254 q 194 350 161 314 q 290 403 226 385 l 140 403 l 140 477 q 171 567 149 526 q 229 640 193 609 q 317 689 265 671 q 437 707 368 707 q 578 686 521 707 q 669 629 635 665 q 719 541 704 592 q 734 429 734 490 l 734 -278 m 94 106 q 98 85 94 95 q 109 69 102 76 q 126 58 116 62 q 146 54 136 54 q 183 69 168 54 q 199 106 199 84 q 195 126 199 117 q 183 143 191 136 q 167 155 176 151 q 146 159 157 159 q 109 143 125 159 q 94 106 94 127 z "},"ฏ":{"ha":831,"x_min":29,"x_max":734,"o":"m 325 -95 q 312 -93 321 -94 q 294 -92 303 -92 q 240 -113 258 -92 q 222 -159 222 -133 q 232 -189 222 -178 q 260 -201 241 -201 q 290 -191 279 -201 q 309 -165 302 -180 q 319 -131 316 -149 q 325 -95 323 -112 m 632 -278 q 624 -243 629 -261 q 611 -211 618 -226 q 592 -188 604 -197 q 566 -178 581 -178 q 539 -188 549 -178 q 522 -210 528 -197 q 512 -237 515 -223 q 508 -260 509 -251 l 446 -260 q 422 -167 436 -203 q 385 -119 408 -131 q 373 -174 381 -148 q 350 -219 364 -200 q 313 -250 335 -239 q 260 -262 291 -262 q 186 -236 214 -262 q 158 -159 158 -210 q 169 -103 158 -127 q 199 -63 180 -79 q 242 -39 218 -47 q 294 -31 267 -31 q 314 -33 303 -31 q 332 -35 326 -34 q 369 47 343 15 q 433 97 394 79 l 541 97 q 490 74 514 87 q 446 43 465 61 q 413 2 427 26 q 393 -54 399 -22 q 447 -97 423 -68 q 481 -174 471 -127 q 518 -131 496 -143 q 564 -119 541 -119 q 602 -127 583 -119 q 632 -150 621 -136 l 632 422 q 622 505 632 469 q 588 566 611 541 q 527 604 564 591 q 437 617 490 617 q 353 605 389 617 q 294 572 318 592 q 258 528 271 553 q 241 480 245 504 l 402 480 l 402 400 q 296 348 330 386 q 263 248 263 309 l 263 106 q 254 60 263 81 q 230 23 245 39 q 192 -2 214 7 q 146 -11 171 -11 q 99 -2 121 -11 q 62 23 78 7 q 38 60 47 39 q 29 106 29 81 q 38 153 29 132 q 62 190 47 174 q 99 214 78 205 q 146 223 121 223 q 154 223 149 223 q 161 222 158 223 l 161 254 q 194 350 161 314 q 290 403 226 385 l 140 403 l 140 477 q 171 567 149 526 q 229 640 193 609 q 317 689 265 671 q 437 707 368 707 q 578 686 521 707 q 669 629 635 665 q 719 541 704 592 q 734 429 734 490 l 734 -278 l 632 -278 m 94 106 q 98 85 94 95 q 109 69 102 76 q 126 58 116 62 q 146 54 136 54 q 183 69 168 54 q 199 106 199 84 q 195 126 199 117 q 183 143 191 136 q 167 155 176 151 q 146 159 157 159 q 109 143 125 159 q 94 106 94 127 z "},"ฐ":{"ha":676,"x_min":53,"x_max":629,"o":"m 540 -278 l 458 -243 l 382 -278 l 321 -278 q 312 -227 317 -248 q 303 -193 308 -206 q 292 -171 298 -179 q 279 -159 287 -163 q 262 -212 274 -189 q 234 -249 250 -234 q 196 -271 217 -264 q 153 -278 176 -278 q 80 -253 108 -278 q 53 -180 53 -227 q 87 -103 53 -132 q 184 -73 121 -73 q 208 -75 194 -73 q 225 -77 221 -76 q 230 -54 227 -66 q 239 -29 233 -41 l 309 -29 q 296 -60 301 -45 q 288 -92 292 -76 q 313 -106 300 -96 q 338 -131 326 -115 q 360 -170 350 -147 q 378 -222 371 -192 l 458 -185 l 555 -227 l 555 -167 q 542 -172 552 -169 q 521 -174 532 -174 q 491 -168 505 -174 q 466 -152 477 -162 q 450 -127 456 -142 q 444 -97 444 -113 q 450 -68 444 -82 q 466 -44 455 -55 q 491 -27 476 -34 q 526 -21 507 -21 q 588 -44 566 -21 q 610 -100 610 -66 l 610 -278 l 540 -278 m 216 -140 q 202 -137 212 -138 q 183 -136 193 -136 q 118 -180 118 -136 q 127 -205 118 -196 q 154 -214 137 -214 q 183 -205 172 -214 q 202 -185 195 -197 q 212 -160 209 -173 q 216 -140 216 -148 m 186 526 q 215 532 198 529 q 253 537 233 535 q 294 542 273 540 q 335 543 315 543 q 451 531 403 543 q 531 492 500 519 q 578 425 563 466 q 593 326 593 384 l 593 163 q 581 93 593 124 q 545 38 570 61 q 483 3 521 16 q 393 -9 446 -9 q 301 2 339 -9 q 240 34 264 13 q 207 83 217 54 q 196 146 196 112 l 196 152 q 188 151 193 151 q 180 151 184 151 q 134 160 155 151 q 97 184 113 169 q 73 221 81 200 q 64 268 64 243 q 73 314 64 293 q 97 352 81 336 q 134 376 113 368 q 180 385 155 385 q 227 376 205 385 q 264 352 248 368 q 289 314 280 336 q 298 268 298 293 l 298 165 q 305 124 298 141 q 325 98 312 108 q 355 85 338 89 q 393 81 373 81 q 433 85 415 81 q 464 99 451 89 q 484 127 477 109 q 491 172 491 145 l 491 325 q 482 385 491 360 q 454 424 473 409 q 405 446 435 439 q 330 453 374 453 q 259 450 294 453 q 193 444 224 448 q 136 435 162 440 q 91 427 110 431 l 91 507 q 99 587 91 550 q 129 650 107 623 q 190 692 151 677 q 288 707 228 707 q 350 705 315 707 q 421 700 385 703 q 491 695 458 697 q 545 693 524 693 q 567 694 554 693 q 592 695 580 694 q 614 697 604 696 q 629 700 625 699 l 629 605 q 613 602 624 603 q 591 601 603 601 q 566 600 578 600 q 545 600 553 600 q 492 602 525 600 q 424 608 460 605 q 354 614 388 611 q 296 616 319 616 q 234 607 256 616 q 201 584 212 597 q 189 554 191 570 q 186 526 186 538 m 128 269 q 144 231 128 247 q 181 216 159 216 q 201 220 192 216 q 218 231 211 224 q 229 248 225 238 q 233 269 233 258 q 218 306 233 290 q 181 321 203 321 q 160 317 170 321 q 143 306 151 313 q 132 289 136 298 q 128 269 128 279 m 486 -97 q 496 -121 486 -111 q 521 -132 507 -132 q 546 -121 536 -132 q 555 -97 555 -111 q 546 -73 555 -83 q 521 -62 536 -62 q 496 -73 507 -62 q 486 -97 486 -83 z "},"ฑ":{"ha":943,"x_min":25,"x_max":839,"o":"m 268 610 l 355 701 q 421 685 390 698 q 475 651 452 673 q 512 597 498 629 q 526 524 526 566 q 420 441 457 503 q 382 285 382 380 l 382 111 l 682 694 l 710 694 q 759 687 736 694 q 800 666 782 680 q 828 629 818 651 q 839 576 839 606 l 839 0 l 737 0 l 737 576 q 728 597 737 593 q 713 602 719 602 l 403 0 l 281 0 l 281 286 q 317 439 281 381 q 425 525 353 498 q 421 553 425 538 q 409 580 417 568 q 387 602 400 593 q 356 615 374 610 l 268 525 l 168 615 q 148 599 157 608 q 132 579 139 590 q 121 558 125 569 q 115 534 117 547 q 132 539 121 537 q 151 541 143 541 q 197 532 176 541 q 234 507 218 523 q 258 470 250 492 q 267 424 267 449 q 258 377 267 399 q 234 340 250 356 q 197 315 218 324 q 151 307 176 307 q 96 317 119 307 q 56 346 72 327 q 33 389 41 364 q 25 444 25 414 q 35 525 25 486 q 63 599 45 565 q 108 659 81 633 q 167 701 134 686 l 268 610 m 203 423 q 187 460 203 445 q 150 476 172 476 q 130 472 139 476 q 113 461 120 468 q 102 444 106 454 q 98 423 98 434 q 113 386 98 401 q 150 371 128 371 q 171 375 161 371 q 188 386 180 379 q 199 403 195 393 q 203 423 203 412 z "},"ฒ":{"ha":1179,"x_min":68,"x_max":1066,"o":"m 600 182 q 544 156 565 178 q 523 104 523 135 q 534 68 523 79 q 561 57 546 57 q 588 67 576 57 q 600 104 600 78 l 600 182 m 304 345 q 319 308 304 323 q 357 292 335 292 q 394 308 378 292 q 409 345 409 323 q 394 382 409 367 q 357 397 378 397 q 319 382 334 397 q 304 345 304 367 m 117 0 l 117 132 q 109 224 117 184 q 93 299 102 264 q 76 370 83 335 q 68 449 68 406 q 86 556 68 511 q 133 631 104 601 q 199 678 162 661 q 273 701 235 695 l 383 589 l 493 700 q 573 678 535 694 q 639 629 610 661 q 684 548 667 597 q 701 429 701 499 l 701 247 q 768 232 732 242 q 839 206 804 222 q 907 170 874 191 q 964 121 940 149 l 964 694 l 1066 694 l 1066 0 l 964 0 q 913 61 945 31 q 845 115 882 90 q 770 156 808 139 q 701 179 732 173 l 701 119 q 694 65 701 89 q 670 24 687 41 q 627 -2 654 7 q 561 -11 600 -11 q 464 21 496 -11 q 432 104 432 52 q 446 163 432 137 q 482 207 459 189 q 536 236 505 225 q 600 250 566 247 l 600 422 q 594 490 600 459 q 578 544 589 521 q 547 583 566 568 q 500 602 528 597 l 383 490 l 265 602 q 222 583 240 597 q 192 547 203 568 q 175 500 180 526 q 170 448 170 475 q 177 368 170 406 q 194 292 185 330 q 211 211 203 253 q 218 119 218 170 l 218 94 q 296 164 265 127 q 340 230 328 201 q 300 242 319 233 q 269 266 282 252 q 247 300 255 281 q 239 345 239 320 q 248 391 239 370 q 273 428 257 412 q 310 453 288 444 q 356 462 331 462 q 407 452 385 462 q 445 425 429 442 q 468 384 460 408 q 475 333 475 361 q 463 261 475 296 q 429 194 450 226 q 380 133 408 162 q 325 80 353 104 q 268 35 296 55 q 218 0 241 15 l 117 0 z "},"ณ":{"ha":1238,"x_min":83,"x_max":1209,"o":"m 267 106 q 252 143 267 127 q 214 159 236 159 q 194 155 203 159 q 177 143 184 151 q 166 126 170 136 q 162 106 162 117 q 177 69 162 84 q 214 54 193 54 q 235 58 225 54 q 252 69 245 62 q 263 85 259 76 q 267 106 267 95 m 677 121 q 734 169 701 148 q 802 207 767 191 q 873 232 838 222 q 940 247 909 242 l 940 694 l 1042 694 l 1042 250 q 1105 236 1075 247 q 1159 207 1136 225 q 1196 163 1182 189 q 1209 104 1209 137 q 1177 21 1209 52 q 1080 -11 1145 -11 q 1014 -2 1041 -11 q 971 24 987 7 q 947 65 954 41 q 940 119 940 89 l 940 179 q 872 156 909 173 q 797 115 834 139 q 728 61 760 90 q 677 0 696 31 l 575 0 l 575 422 q 565 505 575 469 q 531 566 554 541 q 470 604 507 591 q 380 617 433 617 q 297 605 332 617 q 238 572 262 592 q 201 528 214 553 q 184 480 188 504 l 345 480 l 345 400 q 236 348 273 386 q 199 248 199 309 l 199 222 q 207 223 203 223 q 215 223 212 223 q 261 214 240 223 q 298 190 283 205 q 323 153 314 174 q 332 106 332 132 q 323 60 332 81 q 298 23 314 39 q 261 -2 283 7 q 215 -11 240 -11 q 169 -2 190 -11 q 131 23 147 7 q 106 60 115 39 q 98 106 98 81 l 98 254 q 132 349 98 313 q 229 403 165 385 l 83 403 l 83 477 q 114 567 92 526 q 173 640 136 609 q 260 689 209 671 q 380 707 312 707 q 522 686 465 707 q 613 629 578 665 q 662 541 648 592 q 677 429 677 490 l 677 121 m 1042 104 q 1053 67 1042 78 q 1080 57 1065 57 q 1107 68 1095 57 q 1118 104 1118 79 q 1113 133 1118 119 q 1097 156 1107 146 q 1073 173 1087 166 q 1042 182 1059 180 l 1042 104 z "},"ด":{"ha":798,"x_min":68,"x_max":701,"o":"m 363 230 q 294 266 321 237 q 267 345 267 296 q 275 391 267 370 q 300 428 284 412 q 337 453 315 444 q 383 462 358 462 q 434 452 412 462 q 472 425 456 442 q 495 384 487 408 q 503 333 503 360 q 488 261 503 296 q 449 194 473 226 q 394 133 425 162 q 331 80 363 104 q 270 35 300 56 q 218 0 241 15 l 117 0 l 117 132 q 109 224 117 184 q 93 299 102 264 q 76 370 83 335 q 68 449 68 406 q 90 560 68 512 q 154 641 113 608 q 254 690 195 673 q 383 707 312 707 q 620 638 538 707 q 701 429 701 569 l 701 0 l 600 0 l 600 422 q 588 500 600 465 q 550 561 576 535 q 483 602 524 587 q 383 616 441 616 q 287 602 328 616 q 221 564 247 588 q 182 511 195 541 q 170 449 170 481 q 177 369 170 407 q 194 292 185 331 q 211 212 203 254 q 218 119 218 170 l 218 94 q 313 167 276 132 q 363 230 351 202 m 331 345 q 347 308 331 323 q 384 292 362 292 q 404 296 395 292 q 421 308 414 300 q 432 325 428 315 q 436 345 436 334 q 421 382 436 367 q 384 397 406 397 q 363 393 373 397 q 346 382 353 389 q 335 366 339 375 q 331 345 331 356 z "},"ต":{"ha":798,"x_min":68,"x_max":701,"o":"m 218 94 q 313 167 276 132 q 363 230 351 202 q 294 266 321 237 q 267 345 267 296 q 275 391 267 370 q 300 428 284 412 q 337 453 315 444 q 383 462 358 462 q 434 452 412 462 q 472 425 456 442 q 495 384 487 408 q 503 333 503 360 q 488 261 503 296 q 449 194 473 226 q 394 133 425 162 q 331 80 363 104 q 270 35 300 56 q 218 0 241 15 l 117 0 l 117 132 q 109 224 117 184 q 93 299 102 264 q 76 370 83 335 q 68 449 68 406 q 86 556 68 511 q 133 631 104 601 q 199 678 162 661 q 273 701 235 695 l 383 589 l 493 700 q 573 678 535 694 q 639 629 610 661 q 684 548 667 597 q 701 429 701 499 l 701 0 l 600 0 l 600 422 q 594 490 600 459 q 578 544 589 521 q 547 583 566 568 q 500 602 528 597 l 383 490 l 265 602 q 222 583 240 597 q 192 547 203 568 q 175 501 180 526 q 170 449 170 475 q 177 369 170 407 q 194 292 185 331 q 211 212 203 254 q 218 119 218 170 l 218 94 m 331 345 q 347 308 331 323 q 384 292 362 292 q 404 296 395 292 q 421 308 414 300 q 432 325 428 315 q 436 345 436 334 q 421 382 436 367 q 384 397 406 397 q 363 393 373 397 q 346 382 353 389 q 335 366 339 375 q 331 345 331 356 z "},"ถ":{"ha":797,"x_min":79,"x_max":700,"o":"m 598 0 l 598 422 q 547 567 598 516 q 389 617 495 617 q 303 605 340 617 q 240 572 266 592 q 199 528 214 553 q 180 480 184 504 l 341 480 l 341 400 q 234 348 269 386 q 199 248 199 309 l 199 222 q 207 223 202 223 q 214 223 211 223 q 261 214 239 223 q 298 190 282 205 q 322 153 313 174 q 331 106 331 132 q 322 60 331 81 q 298 23 313 39 q 261 -2 282 7 q 214 -11 239 -11 q 168 -2 189 -11 q 131 23 146 7 q 106 60 115 39 q 97 106 97 81 l 97 254 q 131 349 97 313 q 229 403 165 385 l 79 403 l 79 481 q 112 570 88 529 q 174 642 136 612 q 267 689 213 672 q 389 707 320 707 q 532 686 473 707 q 629 629 591 665 q 683 541 666 592 q 700 429 700 490 l 700 0 l 598 0 m 267 106 q 251 143 267 127 q 214 159 235 159 q 193 155 203 159 q 177 143 184 151 q 165 126 170 136 q 161 106 161 117 q 177 69 161 84 q 214 54 192 54 q 234 58 224 54 q 251 69 244 62 q 262 85 258 76 q 267 106 267 95 z "},"ท":{"ha":819,"x_min":29,"x_max":715,"o":"m 263 121 l 562 694 l 587 694 q 635 687 612 694 q 676 664 659 680 q 705 626 694 649 q 715 572 715 603 l 715 0 l 614 0 l 614 572 q 605 594 614 589 q 590 599 596 599 l 279 0 l 161 0 l 161 468 q 154 467 158 467 q 146 467 149 467 q 99 476 121 467 q 62 500 78 485 q 38 537 47 516 q 29 584 29 559 q 38 630 29 609 q 62 668 47 652 q 99 692 78 684 q 146 701 121 701 q 192 692 171 701 q 230 668 214 684 q 254 630 245 652 q 263 584 263 609 l 263 121 m 94 585 q 109 547 94 563 q 146 532 125 532 q 167 536 157 532 q 183 547 176 540 q 195 564 191 554 q 199 585 199 574 q 183 622 199 606 q 146 637 168 637 q 126 633 136 637 q 109 622 116 629 q 98 605 102 614 q 94 585 94 595 z "},"ธ":{"ha":708,"x_min":75,"x_max":625,"o":"m 625 186 q 616 119 625 153 q 586 60 608 86 q 529 17 565 33 q 439 0 494 0 l 83 0 l 83 319 l 185 319 l 185 91 l 429 91 q 498 118 473 91 q 523 193 523 144 l 523 298 q 514 357 523 333 q 483 396 505 381 q 425 416 460 410 q 334 422 389 422 q 259 420 298 422 q 186 413 221 417 q 123 405 152 410 q 75 396 94 400 l 75 480 q 83 570 75 528 q 113 642 91 611 q 173 689 135 672 q 272 707 212 707 q 334 705 298 707 q 405 700 369 703 q 474 695 441 697 q 528 693 507 693 q 551 694 538 693 q 576 695 564 694 q 598 697 588 696 q 612 700 608 699 l 612 605 q 597 602 608 603 q 574 601 587 601 q 550 600 562 600 q 528 600 537 600 q 476 602 509 600 q 408 608 444 605 q 337 614 372 611 q 280 616 303 616 q 223 604 243 616 q 192 573 202 591 q 178 534 181 555 q 176 498 176 514 q 207 505 187 502 q 250 510 227 508 q 296 514 273 513 q 339 516 319 516 q 471 504 417 516 q 560 465 526 492 q 609 398 594 439 q 625 299 625 357 l 625 186 z "},"น":{"ha":825,"x_min":29,"x_max":795,"o":"m 94 585 q 109 547 94 563 q 146 532 125 532 q 167 536 157 532 q 183 547 176 540 q 195 564 191 554 q 199 585 199 574 q 183 622 199 606 q 146 637 168 637 q 126 633 136 637 q 109 622 116 629 q 98 605 102 614 q 94 585 94 595 m 263 121 q 320 169 288 148 q 389 207 353 191 q 460 232 424 222 q 526 247 496 242 l 526 694 l 628 694 l 628 250 q 692 236 661 247 q 745 207 722 225 q 782 163 768 189 q 795 104 795 137 q 764 21 795 52 q 667 -11 732 -11 q 601 -2 627 -11 q 557 24 574 7 q 533 65 541 41 q 526 119 526 89 l 526 179 q 458 156 496 173 q 383 115 420 139 q 314 61 346 90 q 263 0 282 31 l 161 0 l 161 468 q 154 467 158 467 q 146 467 149 467 q 99 476 121 467 q 62 500 78 485 q 38 537 47 516 q 29 584 29 559 q 38 630 29 609 q 62 668 47 652 q 99 692 78 684 q 146 701 121 701 q 192 692 171 701 q 230 668 214 684 q 254 630 245 652 q 263 584 263 609 l 263 121 m 628 104 q 640 67 628 78 q 667 57 651 57 q 693 68 682 57 q 705 104 705 79 q 699 133 705 119 q 684 156 694 146 q 660 173 673 166 q 628 182 646 180 l 628 104 z "},"บ":{"ha":790,"x_min":29,"x_max":686,"o":"m 94 585 q 109 547 94 563 q 146 532 125 532 q 167 536 157 532 q 183 547 176 540 q 195 564 191 554 q 199 585 199 574 q 183 622 199 606 q 146 637 168 637 q 126 633 136 637 q 109 622 116 629 q 98 605 102 614 q 94 585 94 595 m 491 91 q 559 118 534 91 q 585 193 585 144 l 585 694 l 686 694 l 686 186 q 678 119 686 153 q 648 60 669 86 q 591 17 627 33 q 500 0 555 0 l 161 0 l 161 468 q 154 467 158 467 q 146 467 149 467 q 99 476 121 467 q 62 500 78 485 q 38 537 47 516 q 29 584 29 559 q 38 630 29 609 q 62 668 47 652 q 99 692 78 684 q 146 701 121 701 q 192 692 171 701 q 230 668 214 684 q 254 630 245 652 q 263 584 263 609 l 263 91 l 491 91 z "},"ป":{"ha":790,"x_min":29,"x_max":686,"o":"m 94 585 q 109 547 94 563 q 146 532 125 532 q 167 536 157 532 q 183 547 176 540 q 195 564 191 554 q 199 585 199 574 q 183 622 199 606 q 146 637 168 637 q 126 633 136 637 q 109 622 116 629 q 98 605 102 614 q 94 585 94 595 m 491 91 q 559 118 534 91 q 585 193 585 144 l 585 972 l 686 972 l 686 186 q 678 119 686 153 q 648 60 669 86 q 591 17 627 33 q 500 0 555 0 l 161 0 l 161 468 q 154 467 158 467 q 146 467 149 467 q 99 476 121 467 q 62 500 78 485 q 38 537 47 516 q 29 584 29 559 q 38 630 29 609 q 62 668 47 652 q 99 692 78 684 q 146 701 121 701 q 192 692 171 701 q 230 668 214 684 q 254 630 245 652 q 263 584 263 609 l 263 91 l 491 91 z "},"ผ":{"ha":831,"x_min":106,"x_max":718,"o":"m 275 585 q 271 605 275 595 q 260 622 267 614 q 243 633 253 629 q 222 637 233 637 q 185 622 201 637 q 170 585 170 606 q 174 564 170 574 q 185 547 178 554 q 202 536 193 540 q 222 532 212 532 q 260 547 244 532 q 275 585 275 563 m 412 412 l 616 132 l 616 694 l 718 694 l 718 0 l 613 0 l 412 285 l 211 0 l 106 0 l 106 584 q 115 630 106 609 q 139 668 123 652 q 177 692 155 684 q 223 701 198 701 q 270 692 248 701 q 307 668 291 684 q 331 630 322 652 q 340 584 340 609 q 331 537 340 559 q 307 500 322 516 q 270 476 291 485 q 223 467 248 467 q 215 467 220 467 q 208 468 211 467 l 208 132 l 412 412 z "},"ฝ":{"ha":831,"x_min":106,"x_max":718,"o":"m 275 585 q 271 605 275 595 q 260 622 267 614 q 243 633 253 629 q 222 637 233 637 q 185 622 201 637 q 170 585 170 606 q 174 564 170 574 q 185 547 178 554 q 202 536 193 540 q 222 532 212 532 q 260 547 244 532 q 275 585 275 563 m 412 412 l 616 132 l 616 972 l 718 972 l 718 0 l 613 0 l 412 285 l 211 0 l 106 0 l 106 584 q 115 630 106 609 q 139 668 123 652 q 177 692 155 684 q 223 701 198 701 q 270 692 248 701 q 307 668 291 684 q 331 630 322 652 q 340 584 340 609 q 331 537 340 559 q 307 500 322 516 q 270 476 291 485 q 223 467 248 467 q 215 467 220 467 q 208 468 211 467 l 208 132 l 412 412 z "},"พ":{"ha":927,"x_min":27,"x_max":814,"o":"m 261 136 q 271 175 265 153 q 282 217 277 197 q 294 256 288 238 q 302 283 299 274 l 448 694 l 528 694 l 671 283 q 680 256 675 274 q 692 217 686 238 q 703 174 698 196 q 713 135 709 153 l 713 694 l 814 694 l 814 0 l 684 0 l 528 449 q 516 489 523 465 q 502 536 509 513 q 487 591 494 562 q 472 536 479 563 q 458 489 465 513 q 446 448 451 465 l 290 0 l 159 0 l 159 468 q 152 467 156 467 q 144 467 147 467 q 97 476 119 467 q 60 500 76 485 q 36 537 45 516 q 27 584 27 559 q 36 630 27 609 q 60 668 45 652 q 97 692 76 684 q 144 701 119 701 q 190 692 169 701 q 228 668 212 684 q 252 630 243 652 q 261 584 261 609 l 261 136 m 92 585 q 107 547 92 563 q 144 532 123 532 q 165 536 155 532 q 181 547 174 540 q 193 564 189 554 q 197 585 197 574 q 181 622 197 606 q 144 637 166 637 q 124 633 134 637 q 107 622 114 629 q 96 605 100 614 q 92 585 92 595 z "},"ฟ":{"ha":927,"x_min":27,"x_max":814,"o":"m 261 136 q 271 175 265 153 q 282 217 277 197 q 294 256 288 238 q 302 283 299 274 l 448 694 l 528 694 l 671 283 q 680 256 675 274 q 692 217 686 238 q 703 174 698 196 q 713 135 709 153 l 713 972 l 814 972 l 814 0 l 684 0 l 528 449 q 516 489 523 465 q 502 536 509 513 q 487 591 494 562 q 472 536 479 563 q 458 489 465 513 q 446 448 451 465 l 290 0 l 159 0 l 159 468 q 152 467 156 467 q 144 467 147 467 q 97 476 119 467 q 60 500 76 485 q 36 537 45 516 q 27 584 27 559 q 36 630 27 609 q 60 668 45 652 q 97 692 76 684 q 144 701 119 701 q 190 692 169 701 q 228 668 212 684 q 252 630 243 652 q 261 584 261 609 l 261 136 m 92 585 q 107 547 92 563 q 144 532 123 532 q 165 536 155 532 q 181 547 174 540 q 193 564 189 554 q 197 585 197 574 q 181 622 197 606 q 144 637 166 637 q 124 633 134 637 q 107 622 114 629 q 96 605 100 614 q 92 585 92 595 z "},"ภ":{"ha":831,"x_min":29,"x_max":734,"o":"m 632 422 q 622 505 632 469 q 588 566 611 541 q 527 604 564 591 q 437 617 490 617 q 353 605 389 617 q 294 572 318 592 q 258 528 271 553 q 241 480 245 504 l 402 480 l 402 400 q 296 348 330 386 q 263 248 263 309 l 263 106 q 254 60 263 81 q 230 23 245 39 q 192 -2 214 7 q 146 -11 171 -11 q 99 -2 121 -11 q 62 23 78 7 q 38 60 47 39 q 29 106 29 81 q 38 153 29 132 q 62 190 47 174 q 99 214 78 205 q 146 223 121 223 q 154 223 149 223 q 161 222 158 223 l 161 254 q 194 350 161 314 q 290 403 226 385 l 140 403 l 140 477 q 171 567 149 526 q 229 640 193 609 q 317 689 265 671 q 437 707 368 707 q 578 686 521 707 q 669 629 635 665 q 719 541 704 592 q 734 429 734 490 l 734 0 l 632 0 l 632 422 m 94 106 q 98 85 94 95 q 109 69 102 76 q 126 58 116 62 q 146 54 136 54 q 183 69 168 54 q 199 106 199 84 q 195 126 199 117 q 183 143 191 136 q 167 155 176 151 q 146 159 157 159 q 109 143 125 159 q 94 106 94 127 z "},"ม":{"ha":779,"x_min":33,"x_max":667,"o":"m 200 468 q 192 467 197 467 q 184 467 188 467 q 138 476 159 467 q 101 500 117 485 q 77 537 85 516 q 68 584 68 559 q 77 630 68 609 q 101 668 85 652 q 138 692 117 684 q 184 701 159 701 q 231 692 210 701 q 268 668 252 684 q 293 630 284 652 q 302 584 302 609 l 302 247 q 368 232 332 242 q 439 207 404 222 q 508 169 475 191 q 565 121 541 148 l 565 694 l 667 694 l 667 0 l 565 0 q 514 61 546 31 q 445 115 482 90 q 370 156 408 139 q 302 179 332 173 l 302 119 q 295 65 302 89 q 271 24 288 41 q 228 -2 254 7 q 161 -11 201 -11 q 64 21 96 -11 q 33 104 33 52 q 46 163 33 137 q 83 207 60 189 q 136 236 106 225 q 200 250 167 247 l 200 468 m 132 585 q 148 547 132 563 q 185 532 163 532 q 205 536 196 532 q 222 547 215 540 q 233 564 229 554 q 237 585 237 574 q 222 622 237 606 q 185 637 207 637 q 164 633 174 637 q 148 622 155 629 q 136 605 140 614 q 132 585 132 595 m 200 182 q 169 173 183 180 q 144 156 155 166 q 129 133 134 146 q 123 104 123 119 q 135 68 123 79 q 161 57 146 57 q 189 67 177 57 q 200 104 200 78 l 200 182 z "},"ย":{"ha":728,"x_min":96,"x_max":624,"o":"m 265 585 q 261 605 265 595 q 250 622 257 614 q 233 633 243 629 q 212 637 223 637 q 175 622 191 637 q 160 585 160 606 q 164 564 160 574 q 175 547 168 554 q 192 536 182 540 q 212 532 201 532 q 250 547 234 532 q 265 585 265 563 m 96 584 q 104 630 96 609 q 129 668 113 652 q 166 692 145 684 q 213 701 188 701 q 259 692 238 701 q 296 668 281 684 q 321 630 312 652 q 330 584 330 609 q 321 537 330 559 q 296 500 312 516 q 259 476 281 485 q 213 467 238 467 q 205 467 210 467 q 197 468 201 467 q 210 419 197 439 q 239 387 222 399 q 276 367 257 374 q 309 358 295 361 l 309 303 q 276 294 295 300 q 239 275 257 288 q 210 244 222 263 q 197 197 197 225 l 197 91 l 432 91 q 499 118 475 91 q 522 193 522 144 l 522 694 l 624 694 l 624 186 q 615 119 624 153 q 586 60 607 86 q 529 17 564 33 q 438 0 493 0 l 96 0 l 96 199 q 104 253 96 231 q 127 292 113 276 q 159 316 142 307 q 194 330 177 326 q 159 345 177 335 q 127 370 142 354 q 104 408 113 385 q 96 463 96 431 l 96 584 z "},"ร":{"ha":596,"x_min":29,"x_max":567,"o":"m 498 106 q 489 60 498 81 q 464 23 480 39 q 427 -2 448 7 q 380 -11 406 -11 q 334 -2 355 -11 q 297 23 313 7 q 273 60 281 39 q 264 106 264 81 q 273 153 264 132 q 297 190 281 174 q 334 214 313 205 q 380 223 355 223 q 388 223 384 223 q 396 222 393 223 l 396 298 q 387 357 396 333 q 359 397 378 382 q 309 419 340 412 q 235 426 279 426 q 185 424 212 426 q 129 418 157 422 q 75 410 101 414 q 29 399 49 405 l 29 480 q 36 570 29 528 q 64 642 43 611 q 122 689 85 672 q 220 707 159 707 q 276 705 246 707 q 336 700 307 703 q 394 695 366 697 q 442 693 421 693 q 471 694 452 693 q 510 695 490 694 q 546 697 530 696 q 567 700 563 699 l 567 605 q 545 602 562 603 q 509 601 528 601 q 470 600 489 600 q 442 600 451 600 q 395 602 422 600 q 339 608 368 605 q 280 614 309 611 q 228 616 251 616 q 172 605 191 616 q 144 575 153 593 q 135 539 136 558 q 134 504 134 519 q 260 516 188 516 q 367 504 322 516 q 441 465 412 492 q 484 398 471 439 q 498 299 498 357 l 498 106 m 328 106 q 332 85 328 95 q 343 69 336 76 q 360 58 351 62 q 381 54 370 54 q 418 69 403 54 q 433 106 433 84 q 429 126 433 117 q 418 143 425 136 q 401 155 411 151 q 381 159 392 159 q 344 143 359 159 q 328 106 328 127 z "},"ฤ":{"ha":797,"x_min":79,"x_max":700,"o":"m 598 -278 l 598 422 q 547 567 598 516 q 389 617 495 617 q 303 605 340 617 q 240 572 266 592 q 199 528 214 553 q 180 480 184 504 l 341 480 l 341 400 q 234 348 269 386 q 199 248 199 309 l 199 222 q 207 223 202 223 q 214 223 211 223 q 261 214 239 223 q 298 190 282 205 q 322 153 313 174 q 331 106 331 132 q 322 60 331 81 q 298 23 313 39 q 261 -2 282 7 q 214 -11 239 -11 q 168 -2 189 -11 q 131 23 146 7 q 106 60 115 39 q 97 106 97 81 l 97 254 q 131 349 97 313 q 229 403 165 385 l 79 403 l 79 481 q 112 570 88 529 q 174 642 136 612 q 267 689 213 672 q 389 707 320 707 q 532 686 473 707 q 629 629 591 665 q 683 541 666 592 q 700 429 700 490 l 700 -278 l 598 -278 m 267 106 q 251 143 267 127 q 214 159 235 159 q 193 155 203 159 q 177 143 184 151 q 165 126 170 136 q 161 106 161 117 q 177 69 161 84 q 214 54 192 54 q 234 58 224 54 q 251 69 244 62 q 262 85 258 76 q 267 106 267 95 z "},"ล":{"ha":749,"x_min":83,"x_max":652,"o":"m 652 0 l 549 0 l 549 172 q 536 242 549 210 q 498 300 524 275 q 435 340 473 326 q 349 354 398 354 q 185 231 185 354 l 185 222 q 193 223 189 222 q 201 223 197 223 q 247 214 226 223 q 284 190 269 205 q 309 153 300 174 q 317 106 317 132 q 309 60 317 81 q 284 23 300 39 q 247 -2 269 7 q 201 -11 226 -11 q 154 -2 176 -11 q 117 23 133 7 q 92 60 101 39 q 83 106 83 81 l 83 237 q 100 322 83 283 q 149 388 117 361 q 228 431 181 416 q 334 446 275 446 q 467 413 412 446 q 547 326 521 381 l 549 326 l 549 428 q 538 501 549 467 q 503 561 527 536 q 440 602 478 587 q 349 616 402 616 q 282 609 317 616 q 214 588 248 602 q 149 553 180 574 q 90 507 117 533 l 90 622 q 208 686 140 665 q 349 707 275 707 q 481 686 425 707 q 576 628 538 665 q 633 541 614 591 q 652 429 652 490 l 652 0 m 253 106 q 237 143 253 127 q 200 159 222 159 q 180 155 189 159 q 163 143 170 151 q 152 126 156 136 q 148 106 148 117 q 163 69 148 84 q 200 54 178 54 q 221 58 211 54 q 238 69 231 62 q 249 85 245 76 q 253 106 253 95 z "},"ฦ":{"ha":831,"x_min":29,"x_max":734,"o":"m 632 422 q 622 505 632 469 q 588 566 611 541 q 527 604 564 591 q 437 617 490 617 q 353 605 389 617 q 294 572 318 592 q 258 528 271 553 q 241 480 245 504 l 402 480 l 402 400 q 296 348 330 386 q 263 248 263 309 l 263 106 q 254 60 263 81 q 230 23 245 39 q 192 -2 214 7 q 146 -11 171 -11 q 99 -2 121 -11 q 62 23 78 7 q 38 60 47 39 q 29 106 29 81 q 38 153 29 132 q 62 190 47 174 q 99 214 78 205 q 146 223 121 223 q 154 223 149 223 q 161 222 158 223 l 161 254 q 194 350 161 314 q 290 403 226 385 l 140 403 l 140 477 q 171 567 149 526 q 229 640 193 609 q 317 689 265 671 q 437 707 368 707 q 578 686 521 707 q 669 629 635 665 q 719 541 704 592 q 734 429 734 490 l 734 -278 l 632 -278 l 632 422 m 94 106 q 98 85 94 95 q 109 69 102 76 q 126 58 116 62 q 146 54 136 54 q 183 69 168 54 q 199 106 199 84 q 195 126 199 117 q 183 143 191 136 q 167 155 176 151 q 146 159 157 159 q 109 143 125 159 q 94 106 94 127 z "},"ว":{"ha":632,"x_min":14,"x_max":535,"o":"m 433 433 q 387 573 433 530 q 253 617 342 617 q 188 610 222 617 q 121 591 153 603 q 61 565 89 579 q 14 536 33 550 l 14 651 q 59 673 33 663 q 116 691 85 684 q 182 703 147 699 q 253 707 217 707 q 467 641 398 707 q 535 434 535 575 l 535 106 q 526 60 535 81 q 501 23 517 39 q 464 -2 486 7 q 417 -11 442 -11 q 371 -2 392 -11 q 334 23 349 7 q 309 60 318 39 q 300 106 300 81 q 309 153 300 132 q 334 190 318 174 q 371 214 349 205 q 417 223 392 223 q 425 223 420 223 q 433 222 429 223 l 433 433 m 365 106 q 369 85 365 95 q 380 69 373 76 q 397 58 387 62 q 418 54 407 54 q 455 69 439 54 q 470 106 470 84 q 466 126 470 117 q 455 143 462 136 q 438 155 448 151 q 418 159 429 159 q 380 143 396 159 q 365 106 365 127 z "},"ศ":{"ha":800,"x_min":68,"x_max":703,"o":"m 218 0 l 117 0 l 117 186 q 108 248 116 218 q 92 307 100 277 q 75 371 83 337 q 68 449 68 406 q 90 560 68 512 q 153 641 112 608 q 252 690 194 673 q 383 707 311 707 q 555 677 484 707 q 581 722 571 699 q 594 764 590 744 l 703 764 q 632 626 682 686 q 684 543 667 591 q 701 429 701 494 l 701 0 l 600 0 l 600 422 q 588 497 600 461 q 551 559 577 532 q 508 530 531 545 q 463 503 486 515 l 366 503 q 391 520 376 509 q 422 543 406 530 q 456 571 439 556 q 488 600 473 585 q 441 612 467 608 q 383 616 415 616 q 283 601 324 616 q 217 561 243 585 q 181 507 192 537 q 170 449 170 477 q 179 372 170 408 q 196 305 188 336 q 231 355 212 331 q 273 396 250 378 q 327 425 297 414 q 393 436 357 436 q 444 428 420 436 q 485 405 468 420 q 512 368 503 390 q 522 317 522 345 q 513 270 522 292 q 489 233 505 249 q 451 209 473 218 q 405 200 430 200 q 358 209 380 200 q 321 233 337 218 q 297 270 306 249 q 288 317 288 292 q 290 326 288 323 q 267 302 279 317 q 243 267 254 288 q 225 220 233 246 q 218 161 218 193 l 218 0 m 406 264 q 426 269 416 264 q 443 280 435 273 q 454 297 450 287 q 458 317 458 307 q 443 354 458 339 q 406 370 427 370 q 385 366 395 370 q 368 354 375 361 q 357 338 361 347 q 353 317 353 328 q 368 280 353 296 q 406 264 384 264 z "},"ษ":{"ha":820,"x_min":29,"x_max":799,"o":"m 538 371 q 535 349 538 361 q 525 326 532 336 q 585 347 555 334 l 585 694 l 686 694 l 686 406 q 799 524 754 458 l 799 410 q 750 363 779 387 q 686 319 722 340 l 686 186 q 678 119 686 153 q 648 60 669 86 q 591 17 627 33 q 500 0 555 0 l 161 0 l 161 468 q 154 467 158 467 q 146 467 149 467 q 99 476 121 467 q 62 500 78 485 q 38 537 47 516 q 29 584 29 559 q 38 630 29 609 q 62 668 47 652 q 99 692 78 684 q 146 701 121 701 q 192 692 171 701 q 230 668 214 684 q 254 630 245 652 q 263 584 263 609 l 263 91 l 491 91 q 559 118 534 91 q 585 193 585 144 l 585 275 q 523 260 554 265 q 460 254 492 254 q 398 263 425 254 q 353 288 371 272 q 325 325 334 304 q 316 371 316 347 q 325 415 316 395 q 348 450 333 435 q 382 474 362 465 q 427 482 403 482 q 471 474 450 482 q 506 450 491 465 q 529 415 521 435 q 538 371 538 395 m 94 585 q 109 547 94 563 q 146 532 125 532 q 167 536 157 532 q 183 547 176 540 q 195 564 191 554 q 199 585 199 574 q 183 622 199 606 q 146 637 168 637 q 126 633 136 637 q 109 622 116 629 q 98 605 102 614 q 94 585 94 595 m 380 372 q 393 338 380 351 q 427 324 407 324 q 460 338 447 324 q 474 372 474 351 q 460 405 474 391 q 427 418 447 418 q 393 405 407 418 q 380 372 380 391 z "},"ส":{"ha":749,"x_min":83,"x_max":654,"o":"m 652 0 l 549 0 l 549 172 q 536 242 549 210 q 498 300 524 275 q 435 340 473 326 q 349 354 398 354 q 185 231 185 354 l 185 222 q 193 223 189 222 q 201 223 197 223 q 247 214 226 223 q 284 190 269 205 q 309 153 300 174 q 317 106 317 132 q 309 60 317 81 q 284 23 300 39 q 247 -2 269 7 q 201 -11 226 -11 q 154 -2 176 -11 q 117 23 133 7 q 92 60 101 39 q 83 106 83 81 l 83 237 q 100 322 83 283 q 149 388 117 361 q 228 431 181 416 q 334 446 275 446 q 467 413 412 446 q 547 326 521 381 l 549 326 l 549 428 q 538 501 549 467 q 503 561 527 535 q 460 530 483 546 q 414 503 437 515 l 317 503 q 343 520 328 509 q 375 544 358 531 q 409 572 391 557 q 441 602 426 587 q 398 613 421 609 q 349 616 376 616 q 282 609 317 616 q 214 588 248 602 q 149 553 180 574 q 90 507 117 533 l 90 622 q 208 686 140 665 q 349 707 275 707 q 506 675 440 707 q 531 721 521 698 q 545 764 541 745 l 654 764 q 625 689 644 725 q 581 623 606 652 q 634 537 616 586 q 652 429 652 488 l 652 0 m 253 106 q 237 143 253 127 q 200 159 222 159 q 180 155 189 159 q 163 143 170 151 q 152 126 156 136 q 148 106 148 117 q 163 69 148 84 q 200 54 178 54 q 221 58 211 54 q 238 69 231 62 q 249 85 245 76 q 253 106 253 95 z "},"ห":{"ha":819,"x_min":29,"x_max":715,"o":"m 263 0 l 161 0 l 161 469 q 154 468 158 468 q 146 467 149 467 q 99 476 121 467 q 62 500 78 485 q 38 537 47 516 q 29 584 29 559 q 38 630 29 609 q 62 668 47 652 q 99 692 78 684 q 146 701 121 701 q 192 692 171 701 q 230 668 214 684 q 254 630 245 652 q 263 584 263 609 l 263 212 q 316 279 286 244 q 380 350 347 315 q 449 418 414 385 q 514 479 484 452 q 489 499 503 488 q 464 524 475 510 q 444 556 452 538 q 436 596 436 574 q 445 640 436 621 q 471 673 454 659 q 511 694 488 687 q 562 701 534 701 q 659 675 623 701 q 695 603 695 649 q 688 568 695 585 q 672 537 682 551 q 651 510 662 522 q 631 489 640 498 q 697 417 680 455 q 715 334 715 379 l 715 0 l 613 0 l 613 333 q 609 372 613 355 q 598 401 604 389 q 584 422 591 414 q 571 435 576 430 q 520 386 551 416 q 455 319 490 356 q 387 242 421 283 q 325 162 353 202 q 280 86 298 123 q 263 19 263 49 l 263 0 m 94 585 q 109 547 94 563 q 146 532 125 532 q 167 536 157 532 q 183 547 176 540 q 195 564 191 554 q 199 585 199 574 q 183 622 199 606 q 146 637 168 637 q 126 633 136 637 q 109 622 116 629 q 98 605 102 614 q 94 585 94 595 m 606 593 q 595 622 606 610 q 562 633 585 633 q 532 623 544 633 q 519 594 519 612 q 534 558 519 574 q 570 530 549 542 q 595 557 583 541 q 606 593 606 573 z "},"ฬ":{"ha":930,"x_min":27,"x_max":930,"o":"m 261 136 q 271 175 265 153 q 282 217 277 197 q 294 256 288 238 q 302 283 299 274 l 448 694 l 528 694 l 671 283 q 680 256 675 274 q 692 217 686 238 q 703 174 698 196 q 713 135 709 153 l 713 637 q 705 637 709 637 q 697 637 701 637 q 651 646 672 637 q 614 670 629 654 q 589 707 598 686 q 581 753 581 728 q 589 800 581 779 q 614 837 598 821 q 651 862 629 853 q 697 871 672 871 q 744 862 722 871 q 781 837 765 853 q 806 800 797 821 q 814 753 814 779 q 846 780 830 764 q 876 815 861 795 q 905 857 891 835 q 930 901 918 879 l 930 781 q 878 724 906 749 q 814 685 850 699 l 814 0 l 684 0 l 528 449 q 516 488 523 465 q 503 533 509 511 q 492 572 496 555 q 487 590 488 588 q 482 572 486 588 q 471 533 477 555 q 458 487 465 511 q 446 448 451 464 l 290 0 l 159 0 l 159 468 q 152 467 156 467 q 144 467 147 467 q 97 476 119 467 q 60 500 76 485 q 36 537 45 516 q 27 584 27 559 q 36 630 27 609 q 60 668 45 652 q 97 692 76 684 q 144 701 119 701 q 190 692 169 701 q 228 668 212 684 q 252 630 243 652 q 261 584 261 609 l 261 136 m 92 585 q 107 547 92 563 q 144 532 123 532 q 165 536 155 532 q 181 547 174 540 q 193 564 189 554 q 197 585 197 574 q 181 622 197 606 q 144 637 166 637 q 124 633 134 637 q 107 622 114 629 q 96 605 100 614 q 92 585 92 595 m 645 754 q 661 717 645 732 q 698 701 676 701 q 718 705 709 701 q 735 716 728 709 q 746 733 742 724 q 750 754 750 743 q 735 791 750 776 q 698 806 720 806 q 677 802 687 806 q 660 791 667 798 q 649 774 653 784 q 645 754 645 765 z "},"อ":{"ha":734,"x_min":75,"x_max":637,"o":"m 199 197 q 241 109 199 138 q 367 81 283 81 q 494 113 453 81 q 534 205 534 144 l 534 428 q 523 501 534 467 q 488 561 512 536 q 425 602 463 587 q 334 616 387 616 q 268 609 302 616 q 199 588 233 602 q 134 553 165 574 q 75 507 102 533 l 75 622 q 193 686 125 665 q 334 707 260 707 q 466 686 410 707 q 561 628 523 665 q 618 541 599 591 q 637 429 637 490 l 637 200 q 621 116 637 155 q 572 50 605 78 q 488 6 538 22 q 367 -9 437 -9 q 244 6 295 -9 q 160 50 193 22 q 112 117 127 78 q 97 202 97 156 l 97 317 q 106 364 97 342 q 131 401 115 385 q 168 426 146 417 q 214 435 189 435 q 261 426 239 435 q 298 401 282 417 q 322 364 313 385 q 331 317 331 342 q 322 271 331 292 q 298 234 313 250 q 261 210 282 218 q 214 201 239 201 q 207 201 211 201 q 199 201 202 201 l 199 197 m 267 318 q 262 338 267 329 q 251 355 258 348 q 234 366 244 362 q 214 370 224 370 q 177 355 192 370 q 161 318 161 340 q 165 297 161 307 q 177 280 170 288 q 193 269 184 273 q 214 265 203 265 q 251 281 235 265 q 267 318 267 296 z "},"ฮ":{"ha":747,"x_min":85,"x_max":699,"o":"m 327 629 q 259 624 286 629 q 217 613 232 620 q 196 597 201 606 q 190 581 190 589 q 195 565 190 573 q 214 550 201 557 q 249 540 227 544 q 303 536 271 536 q 357 538 329 536 q 413 545 385 541 q 465 554 440 549 q 511 567 490 560 q 482 593 500 582 q 440 613 464 605 q 387 625 416 621 q 327 629 359 629 m 637 200 q 621 116 637 155 q 572 50 605 78 q 488 6 538 22 q 367 -9 437 -9 q 244 6 295 -9 q 160 51 193 22 q 112 117 127 79 q 97 202 97 156 l 97 304 q 106 350 97 329 q 131 388 115 372 q 168 412 146 404 q 214 421 189 421 q 261 412 239 421 q 298 388 282 404 q 322 350 313 372 q 331 304 331 329 q 322 257 331 279 q 298 220 313 236 q 261 196 282 205 q 214 187 239 187 q 207 187 211 187 q 199 188 202 187 q 239 110 200 138 q 367 81 279 81 q 494 112 453 81 q 534 203 534 144 l 534 447 q 533 472 534 460 q 530 492 532 484 q 426 465 486 475 q 301 454 367 454 q 207 464 247 454 q 139 490 166 473 q 99 530 112 507 q 85 581 85 553 q 100 631 85 608 q 144 671 114 654 q 219 697 174 688 q 327 707 264 707 q 493 681 425 707 q 595 608 560 655 q 648 649 621 625 q 699 697 675 672 l 699 589 q 664 559 680 572 q 628 535 649 547 q 635 495 633 517 q 637 448 637 473 l 637 200 m 267 304 q 262 325 267 315 q 251 341 258 334 q 234 353 244 349 q 214 357 224 357 q 177 341 192 357 q 161 304 161 326 q 165 284 161 294 q 177 267 170 274 q 193 256 184 260 q 214 252 203 252 q 251 267 235 252 q 267 304 267 283 z "},"ฯ":{"ha":702,"x_min":43,"x_max":589,"o":"m 589 694 l 589 0 l 488 0 l 488 545 l 485 545 q 435 472 464 507 q 370 409 406 437 q 291 366 334 382 q 198 349 248 349 q 84 388 125 349 q 43 496 43 427 q 56 562 43 534 q 89 608 68 590 q 136 634 110 625 q 189 642 162 642 q 254 631 225 642 l 254 535 q 223 546 240 541 q 189 551 207 551 q 148 537 165 551 q 130 496 130 523 q 149 452 130 469 q 207 434 167 434 q 305 455 260 434 q 385 512 350 476 q 446 595 420 548 q 486 694 472 642 l 589 694 z "},"ะ":{"ha":475,"x_min":26,"x_max":449,"o":"m 248 190 q 245 168 248 180 q 235 145 242 155 q 292 167 261 151 q 352 206 323 183 q 407 258 382 229 q 449 317 433 286 l 449 203 q 402 157 430 180 q 339 115 374 134 q 261 85 304 96 q 170 73 218 73 q 107 82 134 73 q 62 107 81 91 q 35 144 44 123 q 26 190 26 165 q 34 234 26 214 q 57 269 43 254 q 92 293 72 284 q 136 301 113 301 q 180 293 160 301 q 216 269 201 284 q 239 234 231 254 q 248 190 248 214 m 90 191 q 103 157 90 170 q 137 143 117 143 q 170 157 157 143 q 184 191 184 170 q 170 224 184 210 q 137 237 157 237 q 103 224 117 237 q 90 191 90 210 m 248 549 q 245 526 248 539 q 235 504 242 513 q 292 526 261 510 q 352 565 323 542 q 407 616 382 588 q 449 676 433 645 l 449 562 q 402 516 430 539 q 339 474 374 492 q 261 444 304 455 q 170 432 218 432 q 107 441 134 432 q 62 466 81 450 q 35 503 44 481 q 26 549 26 524 q 34 593 26 572 q 57 628 43 613 q 92 651 72 643 q 136 660 113 660 q 180 651 160 660 q 216 628 201 643 q 239 593 231 613 q 248 549 248 572 m 90 549 q 103 515 90 529 q 137 502 117 502 q 170 515 157 502 q 184 549 184 529 q 170 583 184 569 q 137 596 157 596 q 103 583 117 596 q 90 549 90 569 z "},"ั":{"ha":0,"x_min":-437,"x_max":-14,"o":"m -215 880 q -218 858 -215 871 q -228 836 -220 845 q -171 858 -201 842 q -110 897 -140 873 q -55 948 -81 920 q -14 1008 -30 977 l -14 894 q -60 847 -33 871 q -123 805 -88 824 q -201 775 -159 787 q -293 764 -244 764 q -355 772 -328 764 q -400 797 -382 781 q -428 834 -418 813 q -437 880 -437 856 q -429 924 -437 904 q -406 960 -420 945 q -370 983 -391 975 q -326 991 -350 991 q -282 983 -302 991 q -247 960 -262 975 q -223 924 -232 945 q -215 880 -215 904 m -373 881 q -359 847 -373 861 q -326 833 -346 833 q -292 847 -306 833 q -279 881 -279 861 q -292 914 -279 901 q -326 928 -306 928 q -359 914 -346 928 q -373 881 -373 901 z "},"า":{"ha":632,"x_min":14,"x_max":535,"o":"m 433 0 l 433 433 q 387 573 433 530 q 253 617 342 617 q 188 610 222 617 q 121 591 153 603 q 61 565 89 579 q 14 536 33 550 l 14 651 q 59 673 33 663 q 116 691 85 684 q 182 703 147 699 q 253 707 217 707 q 467 641 398 707 q 535 434 535 575 l 535 0 l 433 0 z "},"ำ":{"ha":632,"x_min":-262,"x_max":535,"o":"m 433 0 l 433 433 q 387 573 433 530 q 253 617 342 617 q 188 610 222 617 q 121 591 153 603 q 61 565 89 579 q 14 536 33 550 l 14 651 q 59 673 33 663 q 116 691 85 684 q 182 703 147 699 q 253 707 217 707 q 467 641 398 707 q 535 434 535 575 l 535 0 l 433 0 m -109 860 q -122 893 -109 880 q -155 907 -136 907 q -189 893 -175 907 q -203 860 -203 880 q -189 826 -203 840 q -155 812 -175 812 q -122 826 -136 812 q -109 860 -109 840 m -262 860 q -254 902 -262 882 q -231 936 -245 922 q -197 959 -217 951 q -155 968 -178 968 q -113 959 -133 968 q -79 936 -94 951 q -56 902 -64 922 q -47 860 -47 882 q -56 818 -47 838 q -79 784 -64 798 q -113 761 -94 770 q -155 753 -133 753 q -197 761 -178 753 q -231 784 -217 770 q -254 818 -245 798 q -262 860 -262 838 z "},"ิ":{"ha":0,"x_min":-661,"x_max":-137,"o":"m -137 744 q -273 767 -208 758 q -402 781 -338 776 q -529 789 -465 787 q -661 791 -593 791 q -579 927 -642 880 q -416 975 -517 975 q -325 960 -369 975 q -243 917 -280 945 q -178 846 -205 888 q -137 750 -151 804 l -137 744 m -420 922 q -525 900 -484 922 q -581 838 -566 878 q -216 808 -380 838 q -248 851 -229 831 q -294 888 -268 872 q -351 913 -319 903 q -420 922 -382 922 z "},"ี":{"ha":0,"x_min":-661,"x_max":-137,"o":"m -137 744 q -273 767 -208 758 q -402 781 -338 776 q -529 789 -465 787 q -661 791 -593 791 q -579 927 -642 880 q -416 975 -517 975 q -292 947 -351 975 q -191 865 -233 918 l -191 1018 l -137 1018 l -137 744 m -420 922 q -525 900 -484 922 q -581 838 -566 878 q -216 808 -380 838 q -248 851 -229 831 q -294 888 -268 872 q -351 913 -319 903 q -420 922 -382 922 z "},"ึ":{"ha":0,"x_min":-661,"x_max":-91,"o":"m -137 744 q -273 767 -208 758 q -402 781 -338 776 q -529 789 -465 787 q -661 791 -593 791 q -579 927 -642 880 q -416 975 -517 975 q -348 967 -381 975 q -283 943 -314 958 q -272 975 -281 960 q -251 1000 -263 989 q -222 1017 -238 1011 q -189 1023 -206 1023 q -151 1016 -168 1023 q -120 995 -133 1008 q -99 964 -106 982 q -91 926 -91 947 q -113 865 -91 890 q -170 833 -136 840 q -137 750 -148 795 l -137 744 m -420 922 q -525 900 -484 922 q -581 838 -566 878 q -216 808 -380 838 q -248 851 -229 831 q -294 888 -268 872 q -351 913 -319 903 q -420 922 -382 922 m -145 926 q -158 957 -145 944 q -189 970 -171 970 q -219 957 -206 970 q -231 926 -231 944 q -219 896 -231 909 q -189 884 -206 884 q -158 896 -171 884 q -145 926 -145 909 z "},"ื":{"ha":0,"x_min":-661,"x_max":-137,"o":"m -137 744 q -273 767 -208 758 q -402 781 -338 776 q -529 789 -465 787 q -661 791 -593 791 q -579 927 -642 880 q -416 975 -517 975 q -354 968 -385 975 q -296 949 -324 962 l -296 1018 l -241 1018 l -241 915 q -191 865 -214 893 l -191 1018 l -137 1018 l -137 744 m -420 922 q -525 900 -484 922 q -581 838 -566 878 q -216 808 -380 838 q -248 851 -229 831 q -294 888 -268 872 q -351 913 -319 903 q -420 922 -382 922 z "},"ุ":{"ha":0,"x_min":-274,"x_max":-109,"o":"m -109 -326 l -163 -326 l -163 -219 q -176 -224 -166 -221 q -197 -227 -186 -227 q -228 -220 -214 -227 q -252 -204 -241 -214 q -268 -180 -262 -194 q -274 -149 -274 -165 q -269 -121 -274 -134 q -253 -97 -263 -107 q -227 -80 -242 -86 q -192 -73 -212 -73 q -130 -96 -152 -73 q -109 -153 -109 -119 l -109 -326 m -232 -149 q -222 -174 -232 -163 q -197 -184 -212 -184 q -173 -174 -182 -184 q -163 -149 -163 -163 q -173 -125 -163 -135 q -197 -115 -182 -115 q -222 -125 -212 -115 q -232 -149 -232 -135 z "},"ู":{"ha":0,"x_min":-488,"x_max":-105,"o":"m -446 -149 q -436 -174 -446 -163 q -412 -184 -426 -184 q -387 -174 -397 -184 q -377 -149 -377 -163 q -387 -125 -377 -135 q -412 -115 -397 -115 q -436 -125 -426 -115 q -446 -149 -446 -135 m -377 -326 l -377 -219 q -390 -224 -380 -221 q -412 -227 -400 -227 q -442 -220 -428 -227 q -466 -204 -456 -214 q -483 -180 -477 -194 q -488 -149 -488 -165 q -483 -121 -488 -134 q -467 -97 -477 -107 q -441 -80 -456 -86 q -406 -73 -426 -73 q -345 -96 -366 -73 q -323 -153 -323 -119 l -323 -273 l -286 -273 q -232 -262 -252 -273 q -201 -227 -212 -250 q -186 -168 -190 -203 q -183 -85 -183 -132 l -105 -85 q -106 -146 -105 -116 q -112 -203 -107 -176 q -129 -252 -117 -230 q -160 -291 -140 -275 q -210 -317 -180 -308 q -286 -326 -241 -326 l -377 -326 z "},"ฺ":{"ha":0,"x_min":-231,"x_max":-106,"o":"m -106 -149 q -124 -193 -106 -175 q -169 -211 -142 -211 q -214 -193 -196 -211 q -231 -149 -231 -175 q -227 -124 -231 -136 q -214 -104 -222 -113 q -194 -90 -205 -95 q -169 -85 -182 -85 q -144 -90 -156 -85 q -124 -104 -133 -95 q -111 -124 -116 -113 q -106 -149 -106 -136 z "},"฿":{"ha":810,"x_min":127,"x_max":726,"o":"m 127 0 l 127 972 l 348 972 l 348 1084 l 432 1084 l 432 972 q 604 911 538 966 q 678 750 678 849 q 633 606 678 667 q 510 519 589 545 l 510 517 q 667 442 608 506 q 726 279 726 380 q 637 77 726 155 q 432 0 555 6 l 432 -107 l 348 -107 l 348 0 l 127 0 m 610 281 q 432 452 610 432 l 432 99 q 564 156 517 107 q 610 281 610 204 m 238 456 l 238 98 l 348 98 l 348 456 l 238 456 m 238 875 l 238 553 l 348 553 l 348 875 l 238 875 m 562 728 q 530 824 562 787 q 432 871 497 860 l 432 561 q 528 619 494 576 q 562 728 562 662 z "},"เ":{"ha":369,"x_min":106,"x_max":340,"o":"m 275 111 q 260 148 275 132 q 222 163 244 163 q 202 159 212 163 q 185 148 193 155 q 174 131 178 141 q 170 111 170 121 q 185 74 170 89 q 222 58 201 58 q 243 62 233 58 q 260 74 253 66 q 271 90 267 81 q 275 111 275 100 m 208 694 l 208 227 q 215 228 211 227 q 223 228 220 228 q 270 219 248 228 q 307 195 291 210 q 331 158 322 179 q 340 111 340 136 q 331 65 340 86 q 307 27 322 43 q 270 3 291 12 q 223 -6 248 -6 q 177 3 198 -6 q 139 27 155 12 q 115 65 123 43 q 106 111 106 86 l 106 694 l 208 694 z "},"แ":{"ha":671,"x_min":106,"x_max":642,"o":"m 275 111 q 260 148 275 132 q 222 163 244 163 q 202 159 212 163 q 185 148 193 155 q 174 131 178 141 q 170 111 170 121 q 185 74 170 89 q 222 58 201 58 q 243 62 233 58 q 260 74 253 66 q 271 90 267 81 q 275 111 275 100 m 208 694 l 208 227 q 215 228 211 227 q 223 228 220 228 q 270 219 248 228 q 307 195 291 210 q 331 158 322 179 q 340 111 340 136 q 331 65 340 86 q 307 27 322 43 q 270 3 291 12 q 223 -6 248 -6 q 177 3 198 -6 q 139 27 155 12 q 115 65 123 43 q 106 111 106 86 l 106 694 l 208 694 m 577 111 q 562 148 577 132 q 524 163 546 163 q 504 159 513 163 q 487 148 494 155 q 476 131 480 141 q 472 111 472 121 q 487 74 472 89 q 524 58 503 58 q 545 62 535 58 q 562 74 555 66 q 573 90 569 81 q 577 111 577 100 m 509 694 l 509 227 q 517 228 513 227 q 525 228 522 228 q 571 219 550 228 q 608 195 593 210 q 633 158 624 179 q 642 111 642 136 q 633 65 642 86 q 608 27 624 43 q 571 3 593 12 q 525 -6 550 -6 q 478 3 500 -6 q 441 27 457 12 q 416 65 425 43 q 408 111 408 86 l 408 694 l 509 694 z "},"โ":{"ha":568,"x_min":29,"x_max":539,"o":"m 475 111 q 459 148 475 132 q 422 163 444 163 q 401 159 411 163 q 385 148 392 155 q 374 131 378 141 q 370 111 370 121 q 385 74 370 89 q 422 58 400 58 q 443 62 433 58 q 459 74 452 66 q 471 90 467 81 q 475 111 475 100 m 407 227 q 415 228 410 227 q 422 228 419 228 q 469 219 448 228 q 506 195 490 210 q 530 158 522 179 q 539 111 539 136 q 530 65 539 86 q 506 27 522 43 q 469 3 490 12 q 422 -6 448 -6 q 376 3 397 -6 q 339 27 355 12 q 314 65 323 43 q 305 111 305 86 l 305 890 q 279 980 305 954 q 199 1006 254 1006 q 159 1003 180 1006 q 115 995 137 1000 q 71 984 92 990 q 29 970 49 977 l 29 1055 q 44 1161 29 1118 q 86 1232 58 1204 q 154 1271 114 1259 q 246 1283 195 1283 q 300 1281 273 1283 q 354 1276 328 1279 q 405 1272 380 1274 q 448 1270 429 1270 q 499 1272 477 1270 q 531 1276 522 1274 l 531 1184 q 499 1178 522 1181 q 449 1176 477 1176 q 407 1179 432 1176 q 354 1184 382 1181 q 299 1190 326 1187 q 250 1193 271 1193 q 191 1185 214 1193 q 152 1164 167 1178 q 131 1128 138 1149 q 125 1079 125 1107 q 169 1091 142 1085 q 222 1097 195 1097 q 304 1086 269 1097 q 362 1050 339 1075 q 396 986 385 1025 q 407 890 407 947 l 407 227 z "},"ใ":{"ha":543,"x_min":24,"x_max":522,"o":"m 450 111 q 434 148 450 132 q 397 163 418 163 q 376 159 386 163 q 360 148 367 155 q 349 131 353 141 q 345 111 345 121 q 360 74 345 89 q 397 58 375 58 q 417 62 408 58 q 434 74 427 66 q 446 90 441 81 q 450 111 450 100 m 271 1283 q 377 1270 332 1283 q 452 1232 422 1256 q 499 1174 482 1207 q 522 1100 515 1140 q 418 1018 455 1079 q 382 861 382 956 l 382 227 q 390 228 385 227 q 397 228 394 228 q 444 219 422 228 q 481 195 465 210 q 505 158 496 179 q 514 111 514 136 q 505 65 514 86 q 481 27 496 43 q 444 3 465 12 q 397 -6 422 -6 q 351 3 372 -6 q 314 27 330 12 q 289 65 298 43 q 280 111 280 86 l 280 863 q 315 1016 280 958 q 420 1101 351 1074 q 410 1134 418 1117 q 385 1166 401 1152 q 339 1189 368 1180 q 267 1198 310 1198 q 181 1184 219 1198 q 127 1145 143 1171 q 137 1147 130 1146 q 150 1147 144 1147 q 196 1139 175 1147 q 233 1114 218 1130 q 258 1077 249 1099 q 267 1031 267 1056 q 258 984 267 1006 q 233 947 249 963 q 196 922 218 931 q 150 913 175 913 q 95 925 119 913 q 56 957 71 937 q 32 1004 40 977 q 24 1065 24 1032 q 37 1140 24 1101 q 78 1211 50 1179 q 154 1263 107 1242 q 271 1283 201 1283 m 202 1030 q 186 1067 202 1052 q 149 1083 171 1083 q 129 1079 138 1083 q 112 1068 119 1075 q 101 1051 105 1061 q 97 1030 97 1041 q 112 993 97 1008 q 149 978 127 978 q 170 982 160 978 q 187 993 180 986 q 198 1010 194 1000 q 202 1030 202 1019 z "},"ไ":{"ha":554,"x_min":-24,"x_max":539,"o":"m 475 111 q 459 148 475 132 q 422 163 444 163 q 401 159 411 163 q 385 148 392 155 q 374 131 378 141 q 370 111 370 121 q 385 74 370 89 q 422 58 400 58 q 443 62 433 58 q 459 74 452 66 q 471 90 467 81 q 475 111 475 100 m 305 1118 q 301 1185 305 1161 q 280 1210 297 1210 q 257 1185 264 1210 q 245 1118 251 1161 l 235 1038 q 223 978 231 1005 q 204 932 216 951 q 174 903 192 913 q 131 893 157 893 q 86 904 104 893 q 57 933 68 914 q 38 978 45 951 q 26 1038 31 1005 l 5 1203 q -7 1249 1 1228 q -24 1283 -15 1270 l 57 1283 q 72 1246 66 1270 q 81 1202 77 1223 l 104 1042 q 110 1002 107 1017 q 116 979 113 987 q 123 969 119 971 q 131 966 127 966 q 138 969 134 966 q 144 980 141 972 q 151 1003 148 988 q 157 1042 154 1018 l 170 1136 q 183 1199 174 1171 q 207 1245 192 1226 q 244 1273 222 1263 q 296 1283 266 1283 q 381 1245 356 1283 q 407 1136 407 1206 l 407 227 q 415 228 410 228 q 422 228 419 228 q 469 219 448 228 q 506 195 490 210 q 530 158 522 179 q 539 111 539 136 q 530 65 539 86 q 506 27 522 43 q 469 3 490 12 q 422 -6 448 -6 q 376 3 397 -6 q 339 27 355 12 q 314 65 323 43 q 305 111 305 86 l 305 1118 z "},"ๅ":{"ha":632,"x_min":14,"x_max":535,"o":"m 433 -278 l 433 433 q 387 573 433 530 q 253 617 342 617 q 188 610 222 617 q 121 591 153 603 q 61 565 89 579 q 14 536 33 550 l 14 651 q 59 673 33 663 q 116 691 85 684 q 182 703 147 699 q 253 707 217 707 q 467 641 398 707 q 535 434 535 575 l 535 -278 l 433 -278 z "},"ๆ":{"ha":616,"x_min":25,"x_max":513,"o":"m 261 505 l 168 612 q 148 591 157 605 q 132 561 139 578 q 121 527 125 545 q 115 493 117 509 q 132 498 121 496 q 151 500 143 500 q 197 491 176 500 q 234 467 218 482 q 258 430 250 451 q 267 383 267 408 q 258 337 267 358 q 234 299 250 315 q 197 275 218 283 q 151 266 176 266 q 96 277 119 266 q 56 309 72 289 q 33 357 41 329 q 25 417 25 385 q 35 508 25 464 q 63 589 45 551 q 108 655 81 626 q 167 701 134 684 l 261 589 l 355 701 q 415 685 387 698 q 465 651 444 673 q 500 597 487 629 q 513 524 513 566 l 513 -278 l 410 -278 l 410 521 q 407 550 410 534 q 396 578 404 565 q 378 601 389 591 q 351 612 367 610 l 261 505 m 203 382 q 187 420 203 404 q 150 435 172 435 q 130 431 139 435 q 113 420 120 427 q 102 403 106 413 q 98 382 98 393 q 113 346 98 361 q 150 330 128 330 q 171 334 161 330 q 188 346 180 338 q 199 362 195 353 q 203 382 203 372 z "},"็":{"ha":0,"x_min":-591,"x_max":-93,"o":"m -176 809 q -218 828 -201 810 q -235 870 -235 846 q -219 912 -235 894 q -171 930 -203 930 q -121 910 -139 930 q -104 860 -104 890 q -112 816 -104 837 q -136 780 -120 795 q -174 755 -151 764 q -226 745 -197 745 q -279 759 -256 745 q -319 789 -301 772 q -353 819 -337 806 q -385 833 -368 833 q -410 826 -399 833 q -430 807 -420 819 q -447 780 -439 795 q -466 745 -456 764 q -514 771 -492 757 q -554 804 -536 786 q -581 844 -571 822 q -591 890 -591 865 q -577 950 -591 926 q -541 988 -564 974 q -488 1009 -518 1003 q -425 1015 -458 1015 l -263 1015 q -161 1038 -203 1015 q -93 1085 -119 1061 l -93 1022 q -156 978 -119 994 q -235 962 -193 962 l -441 962 q -478 958 -461 962 q -508 945 -495 954 q -528 922 -520 936 q -535 890 -535 909 q -522 852 -535 869 q -485 823 -509 834 q -439 872 -464 854 q -377 890 -414 890 q -325 876 -348 890 q -281 845 -301 862 q -243 813 -261 827 q -205 799 -224 799 q -187 802 -193 799 q -176 809 -181 805 m -199 871 q -191 850 -199 858 q -172 842 -184 842 q -153 850 -161 842 q -146 869 -146 858 q -153 889 -146 881 q -172 897 -161 897 q -191 889 -184 897 q -199 871 -199 881 z "},"่":{"ha":0,"x_min":-190,"x_max":-122,"o":"m -190 977 l -122 977 l -122 753 l -190 753 l -190 977 z "},"้":{"ha":0,"x_min":-529,"x_max":-75,"o":"m -370 907 q -379 892 -374 900 q -394 878 -385 884 q -416 867 -404 871 q -445 863 -429 863 q -478 869 -463 863 q -505 887 -494 876 q -523 914 -516 899 q -529 948 -529 930 q -523 979 -529 964 q -504 1006 -516 994 q -473 1025 -492 1018 q -431 1031 -455 1031 q -385 1024 -406 1031 q -348 1001 -363 1016 q -324 964 -333 986 q -315 913 -315 942 q -329 856 -315 882 q -368 811 -342 830 q -254 831 -296 811 q -190 883 -212 851 q -161 954 -168 915 q -153 1031 -155 993 l -75 1031 q -82 969 -77 1001 q -98 905 -87 937 q -129 847 -109 874 q -182 798 -149 819 q -263 765 -215 777 q -378 753 -311 753 l -443 753 l -443 812 q -391 846 -412 822 q -370 907 -370 871 m -476 947 q -465 921 -476 932 q -438 909 -454 909 q -411 921 -422 909 q -400 947 -400 932 q -411 974 -400 963 q -438 985 -422 985 q -465 974 -454 985 q -476 947 -476 963 z "},"๊":{"ha":0,"x_min":-550,"x_max":-41,"o":"m -496 879 q -494 850 -496 862 q -486 825 -492 839 q -468 867 -486 850 q -425 884 -450 884 q -383 868 -401 884 q -365 820 -365 852 q -385 770 -365 787 q -435 753 -405 753 q -480 762 -459 753 q -517 787 -501 770 q -541 826 -532 803 q -550 879 -550 850 q -525 965 -550 928 q -453 1023 -500 1002 l -372 954 l -294 1023 q -222 967 -248 1002 q -197 884 -197 932 q -199 847 -197 865 q -202 823 -201 829 q -163 838 -179 823 q -138 880 -148 853 q -124 943 -129 907 q -119 1023 -119 980 l -41 1023 q -46 965 -43 996 q -57 904 -50 934 q -79 847 -64 874 q -118 798 -93 819 q -181 765 -143 777 q -273 753 -218 753 q -260 814 -264 784 q -256 865 -256 844 q -264 921 -256 900 q -296 956 -273 943 l -372 888 l -450 956 q -485 923 -474 943 q -496 879 -496 903 m -454 821 q -446 802 -454 810 q -426 793 -437 793 q -406 802 -414 793 q -398 821 -398 810 q -406 841 -398 833 q -426 849 -414 849 q -446 841 -437 849 q -454 821 -454 833 z "},"๋":{"ha":0,"x_min":-269,"x_max":-43,"o":"m -183 977 l -129 977 l -129 890 l -43 890 l -43 839 l -129 839 l -129 753 l -183 753 l -183 839 l -269 839 l -269 890 l -183 890 l -183 977 z "},"์":{"ha":0,"x_min":-473,"x_max":25,"o":"m -278 919 q -268 908 -273 915 q -257 892 -262 901 q -249 871 -252 882 q -245 847 -245 860 q -275 771 -245 800 q -358 743 -304 743 q -442 771 -411 743 q -473 848 -473 799 q -464 895 -473 873 q -437 932 -455 916 q -393 957 -419 948 q -332 966 -367 966 q -290 966 -309 966 q -253 964 -271 965 q -214 963 -235 964 q -168 962 -194 962 q -97 988 -121 962 q -65 1061 -73 1014 l 25 1061 q 11 1003 20 1031 q -13 955 2 976 q -52 922 -28 935 q -109 910 -75 910 q -158 911 -132 910 q -209 915 -184 913 q -251 918 -233 916 q -278 919 -270 919 m -411 848 q -396 811 -411 825 q -358 798 -382 798 q -322 811 -336 798 q -307 848 -307 825 q -322 885 -307 871 q -358 899 -336 899 q -396 885 -382 899 q -411 848 -411 871 z "},"ํ":{"ha":0,"x_min":-262,"x_max":-47,"o":"m -109 860 q -122 893 -109 880 q -155 907 -136 907 q -189 893 -175 907 q -203 860 -203 880 q -189 826 -203 840 q -155 812 -175 812 q -122 826 -136 812 q -109 860 -109 840 m -262 860 q -254 902 -262 882 q -231 936 -245 922 q -197 959 -217 951 q -155 968 -178 968 q -113 959 -133 968 q -79 936 -94 951 q -56 902 -64 922 q -47 860 -47 882 q -56 818 -47 838 q -79 784 -64 798 q -113 761 -94 770 q -155 753 -133 753 q -197 761 -178 753 q -231 784 -217 770 q -254 818 -245 798 q -262 860 -262 838 z "},"๎":{"ha":0,"x_min":-315,"x_max":-64,"o":"m -118 879 q -156 878 -134 879 q -198 872 -178 876 q -232 859 -218 867 q -246 837 -246 850 q -232 814 -246 823 q -193 805 -218 805 q -151 809 -172 805 q -113 819 -130 813 l -113 749 q -150 741 -127 744 q -193 739 -172 739 q -241 744 -219 739 q -280 761 -264 750 q -306 787 -296 772 q -315 822 -315 803 q -289 877 -315 856 q -214 908 -263 899 q -232 917 -223 911 q -249 931 -241 922 q -261 950 -256 939 q -266 972 -266 960 q -253 1015 -266 998 q -219 1043 -240 1032 q -173 1058 -198 1054 q -121 1063 -147 1063 q -92 1061 -109 1063 q -64 1055 -75 1059 l -64 989 q -76 991 -68 990 q -92 994 -83 993 q -108 995 -100 995 q -121 996 -116 996 q -183 987 -165 996 q -201 965 -201 978 q -194 947 -201 954 q -176 937 -187 941 q -149 932 -164 933 q -118 930 -134 930 l -118 879 z "},"๏":{"ha":751,"x_min":62,"x_max":689,"o":"m 62 307 q 87 429 62 372 q 154 528 112 486 q 254 595 197 570 q 376 619 311 619 q 498 595 441 619 q 597 528 555 570 q 664 429 640 486 q 689 307 689 372 q 664 185 689 242 q 597 85 640 127 q 498 18 555 43 q 376 -7 441 -7 q 254 18 311 -7 q 154 85 197 43 q 87 185 112 127 q 62 307 62 242 m 144 307 q 162 217 144 259 q 212 143 180 174 q 285 93 243 111 q 376 75 328 75 q 467 93 425 75 q 540 143 509 111 q 589 217 571 174 q 607 307 607 259 q 589 397 607 355 q 540 471 571 439 q 467 520 509 502 q 376 538 425 538 q 285 520 328 538 q 212 471 243 502 q 162 397 180 439 q 144 307 144 355 m 273 307 q 281 347 273 328 q 303 379 290 365 q 336 400 317 393 q 376 408 355 408 q 416 400 397 408 q 448 379 434 393 q 470 347 462 365 q 478 307 478 328 q 470 267 478 286 q 448 234 462 248 q 416 212 434 220 q 376 204 397 204 q 336 212 355 204 q 303 234 317 220 q 281 267 290 248 q 273 307 273 286 z "},"๐":{"ha":779,"x_min":56,"x_max":724,"o":"m 389 79 q 482 92 439 79 q 556 129 525 104 q 604 192 587 154 q 621 279 621 229 q 604 367 621 330 q 556 429 587 404 q 482 466 525 454 q 389 479 439 479 q 296 466 338 479 q 224 429 254 454 q 176 367 193 404 q 159 279 159 330 q 176 192 159 229 q 224 129 193 154 q 296 92 254 104 q 389 79 338 79 m 389 -7 q 258 13 319 -7 q 152 69 197 33 q 81 159 107 106 q 56 279 56 212 q 81 400 56 347 q 152 490 107 454 q 258 546 197 527 q 389 566 319 566 q 521 546 460 566 q 627 490 582 527 q 698 400 672 454 q 724 279 724 347 q 698 159 724 212 q 627 69 672 106 q 521 13 582 33 q 389 -7 460 -7 z "},"๑":{"ha":852,"x_min":58,"x_max":793,"o":"m 402 130 q 358 141 378 132 q 323 165 338 150 q 301 202 309 181 q 294 247 294 222 q 302 293 294 272 q 327 331 311 315 q 364 355 342 347 q 410 364 385 364 q 457 356 435 364 q 496 331 479 347 q 522 292 512 315 q 531 239 531 269 q 515 141 531 186 q 468 63 498 96 q 393 12 437 31 q 292 -7 349 -7 q 201 11 244 -7 q 127 62 159 28 q 77 146 96 96 q 58 260 58 196 q 84 382 58 326 q 157 479 109 438 q 273 543 205 519 q 426 566 340 566 q 576 543 509 566 q 692 480 644 521 q 767 384 741 440 q 793 261 793 328 q 778 157 793 203 q 732 79 762 112 q 662 25 703 46 q 568 -7 620 3 l 568 81 q 660 143 629 96 q 690 261 690 189 q 670 353 690 313 q 613 421 649 393 q 529 464 578 450 q 426 479 481 479 q 321 465 370 479 q 238 422 273 450 q 182 354 202 395 q 161 260 161 313 q 173 180 161 214 q 204 125 185 146 q 247 93 223 103 q 295 82 271 82 q 361 96 335 82 q 402 130 387 109 m 358 248 q 374 210 358 226 q 411 195 389 195 q 431 199 422 195 q 448 210 441 203 q 459 227 455 217 q 463 248 463 237 q 448 284 463 269 q 411 300 433 300 q 390 296 400 300 q 373 284 380 292 q 362 268 366 277 q 358 248 358 258 z "},"๒":{"ha":897,"x_min":104,"x_max":800,"o":"m 307 372 q 313 446 307 410 q 333 508 318 481 q 373 551 348 535 q 438 567 399 567 q 477 561 460 567 q 507 543 494 554 q 527 518 519 532 q 539 488 535 504 l 541 488 q 553 518 544 504 q 575 543 562 532 q 608 561 589 554 q 651 567 627 567 q 711 556 684 567 q 758 522 739 545 q 789 464 778 498 q 800 383 800 430 l 800 186 q 790 119 800 153 q 758 60 781 86 q 699 17 736 33 q 607 0 662 0 l 296 0 q 204 17 241 0 q 145 60 168 33 q 113 119 123 86 q 104 186 104 153 l 104 844 l 204 844 l 204 192 q 232 116 204 142 q 309 90 260 90 l 594 90 q 670 116 643 90 q 698 192 698 142 l 698 387 q 695 424 698 406 q 685 454 692 441 q 668 474 679 467 q 642 481 657 481 q 600 461 617 481 q 582 404 582 440 l 496 404 q 480 461 496 440 q 438 481 463 481 q 410 472 420 481 q 395 447 400 463 q 388 412 389 431 q 386 372 386 392 q 388 337 386 355 q 394 303 390 319 q 406 274 399 287 q 422 256 413 262 q 421 264 421 259 q 420 274 420 269 q 427 309 420 293 q 446 337 434 325 q 473 355 457 349 q 508 361 489 361 q 543 355 527 361 q 571 337 559 349 q 589 309 583 325 q 596 274 596 293 q 566 203 596 226 q 486 180 535 180 q 413 192 446 180 q 357 228 380 203 q 320 288 333 252 q 307 372 307 323 m 509 313 q 480 301 492 313 q 469 273 469 290 q 480 245 469 256 q 509 234 492 234 q 536 245 525 234 q 548 273 548 256 q 536 301 548 290 q 509 313 525 313 z "},"๓":{"ha":825,"x_min":58,"x_max":767,"o":"m 300 -7 q 198 15 243 -7 q 122 75 153 37 q 75 168 92 114 q 58 285 58 221 q 73 397 58 346 q 114 487 87 449 q 178 545 140 524 q 263 566 216 566 q 326 554 299 566 q 370 525 352 543 q 399 485 388 507 q 415 444 410 464 q 431 485 420 464 q 460 525 442 507 q 505 554 479 543 q 567 566 532 566 q 651 545 614 566 q 714 487 688 524 q 753 398 740 450 q 767 286 767 347 q 753 179 767 228 q 712 92 739 130 q 647 28 685 54 q 562 -7 609 3 l 562 81 q 639 150 614 98 q 664 286 664 201 q 655 361 664 326 q 631 423 646 397 q 595 465 616 450 q 551 480 574 480 q 488 440 512 480 q 463 313 463 401 l 363 313 q 338 440 363 401 q 273 480 313 480 q 228 465 249 480 q 193 423 208 450 q 170 361 178 397 q 161 285 161 326 q 164 228 161 253 q 171 184 167 203 q 180 151 175 165 q 191 125 186 136 q 202 169 193 149 q 227 202 212 188 q 263 223 242 216 q 308 231 283 231 q 355 222 333 231 q 392 198 376 213 q 417 161 408 182 q 426 114 426 140 q 417 67 426 89 q 393 28 409 45 q 353 3 376 12 q 300 -7 330 -7 m 309 167 q 271 151 287 166 q 256 113 256 135 q 271 76 256 92 q 309 61 287 61 q 346 76 330 61 q 361 113 361 92 q 357 134 361 124 q 346 151 353 144 q 329 162 338 158 q 309 167 319 167 z "},"๔":{"ha":828,"x_min":68,"x_max":753,"o":"m 393 241 q 405 309 393 277 q 441 363 417 340 q 500 399 465 386 q 581 412 535 412 q 680 380 643 412 q 717 291 717 348 q 708 244 717 266 q 683 207 699 222 q 646 183 667 192 q 599 174 624 174 q 554 182 574 174 q 518 203 533 189 q 493 236 503 217 q 482 280 484 256 q 472 260 475 273 q 469 234 469 247 q 481 183 469 205 q 515 146 494 161 q 565 121 536 130 q 625 107 593 111 q 698 96 665 103 q 753 79 732 88 l 753 -12 q 722 0 742 -7 q 677 12 702 6 q 626 20 653 17 q 574 24 600 24 q 514 20 548 24 q 447 11 481 16 q 380 1 412 5 q 323 -3 347 -3 q 212 15 260 -3 q 132 66 164 33 q 84 144 100 98 q 68 244 68 189 q 95 382 68 325 q 173 481 123 440 q 294 548 223 522 q 450 594 364 575 q 593 649 549 616 q 637 729 637 682 q 634 761 637 744 q 626 789 631 777 l 726 789 q 735 764 732 779 q 739 730 739 749 q 723 652 739 686 q 676 593 707 618 q 597 548 644 567 q 488 515 551 529 q 409 495 448 505 q 335 470 370 484 q 269 436 299 455 q 217 390 239 417 q 182 328 195 363 q 170 245 170 292 q 182 174 170 205 q 216 124 195 144 q 264 95 237 104 q 323 85 292 85 q 355 87 337 85 q 393 93 374 90 q 432 99 413 96 q 467 104 451 102 q 443 122 456 110 q 419 153 430 135 q 400 193 408 171 q 393 241 393 216 m 600 238 q 620 242 610 238 q 636 254 629 247 q 648 271 644 261 q 652 292 652 281 q 636 329 652 313 q 600 344 621 344 q 562 329 578 344 q 547 292 547 313 q 562 254 547 270 q 600 238 578 239 z "},"๕":{"ha":828,"x_min":68,"x_max":753,"o":"m 478 606 q 477 600 478 602 q 600 653 562 622 q 637 729 637 684 q 634 761 637 744 q 626 789 631 777 l 726 789 q 735 764 732 779 q 739 730 739 749 q 723 652 739 686 q 676 593 707 618 q 597 548 644 567 q 488 515 551 529 q 409 495 448 505 q 335 470 370 484 q 269 436 299 455 q 217 390 239 417 q 182 328 195 363 q 170 245 170 292 q 182 174 170 205 q 216 124 195 144 q 264 95 237 104 q 323 85 292 85 q 355 87 337 85 q 393 93 374 90 q 432 99 413 96 q 467 104 451 102 q 443 122 456 110 q 419 153 430 135 q 400 193 408 171 q 393 241 393 216 q 405 309 393 277 q 441 363 417 340 q 500 399 465 386 q 581 412 535 412 q 680 380 643 412 q 717 291 717 348 q 708 244 717 266 q 683 207 699 222 q 646 183 667 192 q 599 174 624 174 q 554 182 574 174 q 518 203 533 189 q 493 236 503 217 q 482 280 484 256 q 472 260 475 273 q 469 234 469 247 q 481 183 469 205 q 515 146 494 161 q 565 121 536 130 q 625 107 593 111 q 698 96 665 103 q 753 79 732 88 l 753 -12 q 722 0 742 -7 q 677 12 702 6 q 626 20 653 17 q 574 24 600 24 q 514 20 548 24 q 447 11 481 16 q 380 1 412 5 q 323 -3 347 -3 q 212 15 260 -3 q 132 66 164 33 q 84 144 100 98 q 68 244 68 189 q 82 347 68 302 q 123 429 96 393 q 187 492 149 465 q 273 540 225 519 q 241 625 241 571 q 250 671 241 650 q 274 709 258 693 q 311 733 289 724 q 357 743 332 743 q 446 706 414 743 q 478 606 478 669 m 600 238 q 620 242 610 238 q 636 254 629 247 q 648 271 644 261 q 652 292 652 281 q 636 329 652 313 q 600 344 621 344 q 562 329 578 344 q 547 292 547 313 q 562 254 547 270 q 600 238 578 239 m 304 625 q 320 588 304 604 q 357 572 336 572 q 395 588 379 572 q 410 625 410 604 q 395 663 410 647 q 357 678 379 678 q 320 663 336 678 q 304 625 304 647 z "},"๖":{"ha":680,"x_min":7,"x_max":632,"o":"m 212 107 q 234 94 221 100 q 263 85 248 89 q 295 80 278 81 q 328 78 311 78 q 409 91 372 78 q 472 130 446 104 q 514 194 499 156 q 529 282 529 232 q 515 368 529 332 q 476 425 500 403 q 418 458 451 448 q 349 468 385 468 q 303 465 327 468 q 257 457 280 462 q 214 444 235 452 q 175 429 193 437 q 156 487 168 455 q 131 551 145 518 q 101 617 117 585 q 70 680 85 650 q 37 734 54 710 q 7 775 21 759 l 132 775 q 159 722 146 751 q 183 659 172 692 q 202 593 193 627 q 218 528 211 559 q 276 545 239 537 q 356 553 313 553 q 472 535 420 553 q 558 483 523 517 q 613 398 594 448 q 632 282 632 347 q 612 165 632 218 q 555 74 592 113 q 465 15 518 36 q 344 -7 411 -7 q 242 8 290 -7 q 160 52 195 24 q 104 121 125 81 q 84 210 84 161 q 94 267 84 242 q 120 308 103 292 q 161 333 138 325 q 213 342 184 342 q 260 333 239 342 q 297 308 281 323 q 321 271 312 292 q 330 224 330 249 q 320 177 330 199 q 296 140 311 155 q 258 116 280 125 q 212 107 237 107 m 160 224 q 176 187 160 203 q 213 172 191 172 q 250 187 235 172 q 266 224 266 203 q 250 262 266 246 q 213 277 235 277 q 176 262 191 277 q 160 224 160 246 z "},"๗":{"ha":1013,"x_min":62,"x_max":928,"o":"m 62 285 q 72 395 62 344 q 104 485 82 447 q 162 545 126 524 q 250 567 198 567 q 307 554 283 567 q 348 524 331 542 q 376 487 366 507 q 392 451 387 467 q 407 487 397 467 q 434 524 417 507 q 475 554 451 542 q 530 567 498 567 q 616 545 581 567 q 674 486 652 524 q 707 397 696 448 q 717 286 717 345 q 714 225 717 255 q 706 169 711 195 q 697 122 702 142 q 687 91 692 102 l 722 91 q 800 117 773 91 q 827 192 827 142 l 827 844 l 928 844 l 928 186 q 916 119 928 153 q 880 60 905 86 q 817 17 856 33 q 724 0 779 0 l 561 0 q 603 135 591 66 q 614 286 614 205 q 609 362 614 326 q 594 424 604 397 q 568 466 584 450 q 528 481 551 481 q 464 439 489 481 q 438 310 438 397 l 342 310 q 319 440 342 398 q 257 481 296 481 q 215 466 233 481 q 186 424 197 450 q 171 361 176 397 q 165 285 165 326 q 168 228 165 253 q 175 184 171 203 q 184 151 179 165 q 195 125 190 136 q 207 169 197 149 q 231 202 216 188 q 267 223 246 216 q 312 231 288 231 q 359 222 337 231 q 396 198 380 213 q 421 161 412 182 q 430 114 430 140 q 421 67 430 89 q 397 28 413 45 q 357 3 380 12 q 304 -7 334 -7 q 202 15 247 -7 q 126 75 157 37 q 79 168 96 114 q 62 285 62 221 m 313 167 q 275 151 291 166 q 260 113 260 135 q 275 76 260 92 q 313 61 291 61 q 350 76 334 61 q 365 113 365 92 q 361 134 365 124 q 350 151 357 144 q 333 162 342 158 q 313 167 323 167 z "},"๘":{"ha":873,"x_min":68,"x_max":798,"o":"m 708 156 q 694 153 701 154 q 680 153 688 153 q 633 162 655 153 q 596 187 612 171 q 572 224 581 203 q 563 270 563 245 q 572 317 563 295 q 596 354 581 338 q 633 379 611 370 q 680 388 654 388 q 726 379 705 388 q 764 354 748 370 q 789 314 780 337 q 798 260 798 290 q 787 152 798 201 q 754 68 775 103 q 703 14 732 33 q 637 -5 673 -5 q 583 7 608 -5 q 535 38 557 19 q 494 78 513 56 q 457 118 474 100 q 424 149 439 137 q 393 161 408 161 q 366 146 376 161 q 350 108 356 132 q 340 55 344 85 q 334 -3 336 26 q 221 15 271 -3 q 138 66 172 33 q 86 144 104 98 q 68 244 68 189 q 95 382 68 325 q 173 481 123 440 q 294 548 223 522 q 450 594 364 575 q 593 649 549 616 q 637 729 637 682 q 634 761 637 744 q 626 789 631 777 l 726 789 q 735 764 732 779 q 739 730 739 749 q 723 652 739 686 q 676 593 707 618 q 597 548 644 567 q 488 515 551 529 q 409 495 448 505 q 335 470 370 484 q 269 436 299 455 q 217 390 239 417 q 182 328 195 363 q 170 245 170 292 q 196 152 170 186 q 265 104 222 117 q 279 163 270 136 q 303 210 288 190 q 340 240 318 229 q 393 252 362 252 q 441 239 418 252 q 486 208 465 227 q 528 168 508 189 q 567 127 549 146 q 603 96 586 109 q 637 83 621 83 q 657 87 647 83 q 677 99 667 91 q 695 122 687 108 q 708 156 703 136 m 627 271 q 643 233 627 249 q 680 218 659 218 q 717 233 702 218 q 732 271 732 249 q 717 308 732 292 q 680 323 702 323 q 660 319 669 323 q 643 308 650 315 q 631 291 635 300 q 627 271 627 281 z "},"๙":{"ha":860,"x_min":58,"x_max":860,"o":"m 58 267 q 74 390 58 335 q 119 484 89 445 q 192 545 149 524 q 292 566 235 566 q 347 556 322 566 q 392 531 372 546 q 427 498 412 516 q 450 464 441 480 q 463 516 456 490 q 481 563 470 542 q 508 596 492 583 q 545 608 523 608 q 572 600 558 608 q 601 579 587 592 q 630 552 616 567 q 659 525 645 538 q 684 505 672 513 q 707 496 696 496 q 731 514 720 496 q 748 561 741 531 q 759 630 755 590 q 762 715 762 670 l 860 715 q 855 648 860 684 q 842 576 850 612 q 820 508 833 541 q 789 451 806 476 q 752 412 772 427 q 707 397 731 397 q 674 406 690 397 q 641 426 657 414 q 611 453 625 439 q 584 480 597 468 q 562 501 572 493 q 545 509 551 509 q 527 496 534 509 q 514 463 519 484 q 505 417 509 443 q 498 367 501 392 l 653 0 l 541 0 l 412 325 q 387 385 400 357 q 359 434 374 413 q 326 468 345 456 q 285 481 308 481 q 223 459 247 481 q 185 405 199 437 q 166 336 172 373 q 161 268 161 298 q 171 184 161 220 q 191 125 180 147 q 202 169 193 149 q 227 202 212 188 q 263 223 242 216 q 308 231 283 231 q 355 222 333 231 q 392 198 376 213 q 417 161 408 182 q 426 114 426 140 q 417 67 426 89 q 393 28 409 45 q 353 3 376 12 q 300 -7 330 -7 q 198 13 243 -7 q 122 69 153 33 q 75 155 92 105 q 58 267 58 205 m 309 167 q 271 151 287 166 q 256 113 256 135 q 271 76 256 92 q 309 61 287 61 q 346 76 330 61 q 361 113 361 92 q 357 134 361 124 q 346 151 353 144 q 329 162 338 158 q 309 167 319 167 z "},"๚":{"ha":898,"x_min":43,"x_max":785,"o":"m 684 694 l 785 694 l 785 0 l 684 0 l 684 694 m 589 694 l 589 0 l 488 0 l 488 545 l 485 545 q 435 472 464 507 q 370 409 406 437 q 291 366 334 382 q 198 349 248 349 q 84 388 125 349 q 43 496 43 427 q 56 562 43 534 q 89 608 68 590 q 136 634 110 625 q 189 642 162 642 q 254 631 225 642 l 254 535 q 223 546 240 541 q 189 551 207 551 q 148 537 165 551 q 130 496 130 523 q 149 452 130 469 q 207 434 167 434 q 305 455 260 434 q 385 512 350 476 q 446 595 420 548 q 486 694 472 642 l 589 694 z "},"๛":{"ha":1236,"x_min":65,"x_max":1206,"o":"m 1206 358 q 1145 229 1188 273 q 1034 184 1101 184 q 947 207 982 184 q 891 266 913 229 l 800 96 l 715 264 l 640 96 l 553 262 q 522 169 541 216 q 474 83 503 121 q 405 21 446 45 q 309 -3 364 -3 q 190 24 237 -3 q 115 94 142 50 q 76 193 87 137 q 65 306 65 248 q 78 426 65 370 q 121 524 91 482 q 199 591 151 566 q 318 615 247 615 q 393 606 355 615 q 463 577 432 596 l 463 468 q 394 509 432 494 q 319 524 356 524 q 241 505 272 524 q 192 456 210 487 q 167 387 174 426 q 160 304 160 347 q 167 225 160 264 q 191 155 174 186 q 236 106 208 125 q 307 88 264 88 q 392 119 357 88 q 452 201 427 150 q 495 319 477 252 q 529 458 513 386 l 640 241 l 715 410 l 806 233 l 900 410 q 956 300 923 334 q 1032 266 989 266 q 1096 291 1074 266 q 1127 358 1118 315 l 1206 358 z "},"​":{"ha":0,"x_min":0,"x_max":0,"o":""},"◌":{"ha":825,"x_min":69,"x_max":756,"o":"m 665 623 q 632 589 665 589 q 597 623 597 589 q 632 656 597 656 q 665 623 665 656 m 564 689 q 532 656 564 656 q 496 689 496 656 q 532 724 496 724 q 564 689 564 724 m 732 522 q 697 488 732 488 q 664 522 664 488 q 699 555 664 555 q 732 522 732 555 m 756 404 q 724 370 756 370 q 688 404 688 370 q 724 438 688 438 q 756 404 756 438 m 446 714 q 412 680 446 680 q 378 714 378 680 q 412 747 378 747 q 446 714 446 747 m 329 689 q 294 656 329 656 q 261 689 261 656 q 294 724 261 724 q 329 689 329 724 m 732 286 q 697 253 732 253 q 664 286 664 253 q 697 321 664 321 q 732 286 732 321 m 229 623 q 195 589 229 589 q 161 621 161 589 q 195 656 161 656 q 229 623 229 656 m 665 184 q 632 151 665 151 q 597 184 597 151 q 632 219 597 219 q 665 184 665 219 m 564 118 q 532 85 564 85 q 496 118 496 85 q 532 153 496 153 q 564 118 564 153 m 161 522 q 129 488 161 488 q 94 522 94 488 q 127 555 94 555 q 161 522 161 555 m 137 404 q 104 370 138 370 q 69 404 69 370 q 104 438 69 438 q 137 404 138 438 m 446 96 q 412 61 446 61 q 378 96 378 61 q 412 129 378 129 q 446 96 446 129 m 161 286 q 127 253 161 253 q 94 286 94 253 q 127 321 94 321 q 161 286 161 321 m 329 121 q 294 85 329 85 q 261 118 261 85 q 294 153 261 153 q 329 121 329 153 m 229 184 q 195 151 229 151 q 161 184 161 151 q 195 219 161 219 q 229 184 229 219 z "},"∶":{"ha":301,"x_min":76,"x_max":228,"o":"m 151 694 q 98 717 120 694 q 76 770 76 739 q 98 823 76 802 q 151 845 120 845 q 205 823 183 845 q 228 770 228 802 q 205 717 228 739 q 151 694 183 694 m 151 121 q 98 143 120 121 q 76 197 76 165 q 98 251 76 228 q 151 273 120 273 q 205 251 183 273 q 228 197 228 228 q 205 143 228 165 q 151 121 183 121 z "}," ":{"ha":174,"x_min":0,"x_max":0,"o":""},"Ơ":{"ha":1059,"x_min":64,"x_max":1081,"o":"m 791 913 q 846 907 824 907 q 991 996 991 907 q 977 1084 991 1044 l 1069 1084 q 1081 993 1081 1047 q 1034 874 1081 920 q 903 829 986 829 l 880 829 q 983 498 983 697 q 857 122 983 260 q 519 -16 731 -16 q 188 120 313 -16 q 64 475 64 256 q 191 849 64 709 q 536 989 317 989 q 791 913 682 989 m 528 886 q 279 775 374 886 q 183 485 183 665 q 276 196 183 305 q 519 86 370 86 q 772 191 680 86 q 864 483 864 295 q 774 781 864 675 q 528 886 685 886 z "},"ơ":{"ha":829,"x_min":65,"x_max":809,"o":"m 705 865 l 796 865 q 809 773 809 827 q 661 616 809 643 q 749 350 749 520 q 655 84 749 184 q 403 -16 561 -16 q 157 81 249 -16 q 65 339 65 178 q 161 612 65 514 q 419 711 256 711 q 510 701 452 711 q 625 694 551 694 q 692 719 665 694 q 719 777 719 743 q 705 865 719 826 m 411 617 q 241 544 304 617 q 179 343 179 471 q 242 149 179 220 q 411 77 305 77 q 577 147 519 77 q 635 346 635 217 q 577 547 635 476 q 411 617 519 617 z "},"Ư":{"ha":983,"x_min":115,"x_max":1009,"o":"m 839 393 q 469 -16 839 -16 q 115 378 115 -16 l 115 972 l 229 972 l 229 385 q 481 86 229 86 q 725 375 725 86 l 725 972 l 825 972 q 892 997 865 972 q 919 1054 919 1021 q 905 1143 919 1104 l 997 1143 q 1009 1051 1009 1105 q 839 888 1009 909 l 839 393 z "},"ư":{"ha":817,"x_min":98,"x_max":829,"o":"m 674 0 l 563 0 l 563 110 l 560 110 q 346 -16 491 -16 q 98 279 98 -16 l 98 694 l 208 694 l 208 297 q 376 77 208 77 q 510 137 458 77 q 563 294 563 197 l 563 694 l 646 694 q 712 719 686 694 q 739 777 739 743 q 726 865 739 826 l 817 865 q 829 773 829 827 q 674 614 829 639 l 674 0 z "},"̉":{"ha":422,"x_min":116,"x_max":307,"o":"m 116 1065 q 170 1068 141 1068 q 268 1040 230 1068 q 307 963 307 1011 q 280 893 307 922 q 216 860 254 865 l 216 826 l 142 826 l 142 904 q 218 956 218 904 q 155 998 218 998 q 116 993 143 998 l 116 1065 z "},"̣":{"ha":463,"x_min":164,"x_max":298,"o":"m 231 -213 q 184 -193 203 -213 q 164 -146 164 -174 q 184 -99 164 -118 q 231 -81 205 -81 q 279 -99 259 -81 q 298 -146 298 -118 q 279 -193 298 -174 q 231 -213 259 -213 z "},"̀":{"ha":372,"x_min":69,"x_max":305,"o":"m 305 826 l 220 826 l 69 993 l 183 993 l 305 826 z "},"́":{"ha":372,"x_min":68,"x_max":304,"o":"m 68 826 l 190 993 l 304 993 l 155 826 l 68 826 z "},"Ạ":{"ha":896,"x_min":15,"x_max":880,"o":"m 880 0 l 754 0 l 651 273 l 239 273 l 142 0 l 15 0 l 388 972 l 506 972 l 880 0 m 614 375 l 461 789 q 446 854 454 810 l 444 854 q 428 789 437 813 l 277 375 l 614 375 m 463 -213 q 416 -193 435 -213 q 396 -146 396 -174 q 416 -99 396 -118 q 463 -81 437 -81 q 511 -99 491 -81 q 530 -146 530 -118 q 511 -193 530 -174 q 463 -213 491 -213 z "},"ạ":{"ha":707,"x_min":61,"x_max":610,"o":"m 610 0 l 498 0 l 498 109 l 496 109 q 282 -16 423 -16 q 120 39 178 -16 q 61 184 61 94 q 290 411 61 379 l 498 440 q 355 617 498 617 q 129 532 230 617 l 129 646 q 365 711 231 711 q 610 452 610 711 l 610 0 m 498 351 l 331 328 q 214 290 254 317 q 175 193 175 262 q 211 110 175 142 q 308 77 248 77 q 445 135 391 77 q 498 282 498 193 l 498 351 m 363 -213 q 315 -193 335 -213 q 296 -146 296 -174 q 316 -99 296 -118 q 363 -81 336 -81 q 410 -99 391 -81 q 430 -146 430 -118 q 410 -193 430 -174 q 363 -213 391 -213 z "},"Ả":{"ha":896,"x_min":15,"x_max":880,"o":"m 880 0 l 754 0 l 651 273 l 239 273 l 142 0 l 15 0 l 388 972 l 506 972 l 880 0 m 614 375 l 461 789 q 446 854 454 810 l 444 854 q 428 789 437 813 l 277 375 l 614 375 m 374 1303 q 428 1305 399 1305 q 526 1277 488 1305 q 564 1200 564 1249 q 538 1131 564 1159 q 473 1097 512 1102 l 473 1063 l 400 1063 l 400 1141 q 476 1193 476 1141 q 412 1236 476 1236 q 374 1230 401 1236 l 374 1303 z "},"ả":{"ha":707,"x_min":61,"x_max":610,"o":"m 610 0 l 498 0 l 498 109 l 496 109 q 282 -16 423 -16 q 120 39 178 -16 q 61 184 61 94 q 290 411 61 379 l 498 440 q 355 617 498 617 q 129 532 230 617 l 129 646 q 365 711 231 711 q 610 452 610 711 l 610 0 m 498 351 l 331 328 q 214 290 254 317 q 175 193 175 262 q 211 110 175 142 q 308 77 248 77 q 445 135 391 77 q 498 282 498 193 l 498 351 m 281 1065 q 336 1068 307 1068 q 434 1040 395 1068 q 472 963 472 1011 q 446 893 472 922 q 381 860 420 865 l 381 826 l 308 826 l 308 904 q 384 956 384 904 q 320 998 384 998 q 281 993 309 998 l 281 1065 z "},"Ấ":{"ha":896,"x_min":15,"x_max":880,"o":"m 880 0 l 754 0 l 651 273 l 239 273 l 142 0 l 15 0 l 388 972 l 506 972 l 880 0 m 614 375 l 461 789 q 446 854 454 810 l 444 854 q 428 789 437 813 l 277 375 l 614 375 m 587 1166 l 709 1333 l 823 1333 l 673 1166 l 587 1166 m 632 1063 l 550 1063 l 439 1163 l 326 1063 l 250 1063 l 396 1232 l 486 1232 l 632 1063 z "},"ấ":{"ha":707,"x_min":61,"x_max":750,"o":"m 610 0 l 498 0 l 498 109 l 496 109 q 282 -16 423 -16 q 120 39 178 -16 q 61 184 61 94 q 290 411 61 379 l 498 440 q 355 617 498 617 q 129 532 230 617 l 129 646 q 365 711 231 711 q 610 452 610 711 l 610 0 m 498 351 l 331 328 q 214 290 254 317 q 175 193 175 262 q 211 110 175 142 q 308 77 248 77 q 445 135 391 77 q 498 282 498 193 l 498 351 m 514 929 l 636 1096 l 750 1096 l 600 929 l 514 929 m 559 826 l 477 826 l 366 926 l 253 826 l 176 826 l 323 996 l 412 996 l 559 826 z "},"Ầ":{"ha":896,"x_min":15,"x_max":880,"o":"m 880 0 l 754 0 l 651 273 l 239 273 l 142 0 l 15 0 l 388 972 l 506 972 l 880 0 m 614 375 l 461 789 q 446 854 454 810 l 444 854 q 428 789 437 813 l 277 375 l 614 375 m 294 1166 l 208 1166 l 58 1333 l 172 1333 l 294 1166 m 250 1063 l 395 1232 l 486 1232 l 631 1063 l 555 1063 l 443 1163 l 332 1063 l 250 1063 z "},"ầ":{"ha":707,"x_min":-16,"x_max":610,"o":"m 610 0 l 498 0 l 498 109 l 496 109 q 282 -16 423 -16 q 120 39 178 -16 q 61 184 61 94 q 290 411 61 379 l 498 440 q 355 617 498 617 q 129 532 230 617 l 129 646 q 365 711 231 711 q 610 452 610 711 l 610 0 m 498 351 l 331 328 q 214 290 254 317 q 175 193 175 262 q 211 110 175 142 q 308 77 248 77 q 445 135 391 77 q 498 282 498 193 l 498 351 m 220 929 l 134 929 l -16 1096 l 98 1096 l 220 929 m 176 826 l 321 996 l 412 996 l 557 826 l 481 826 l 369 926 l 258 826 l 176 826 z "},"Ẩ":{"ha":896,"x_min":15,"x_max":880,"o":"m 880 0 l 754 0 l 651 273 l 239 273 l 142 0 l 15 0 l 388 972 l 506 972 l 880 0 m 614 375 l 461 789 q 446 854 454 810 l 444 854 q 428 789 437 813 l 277 375 l 614 375 m 580 1405 q 634 1408 604 1408 q 732 1380 694 1408 q 770 1303 770 1352 q 744 1234 770 1262 q 680 1200 719 1205 l 680 1166 l 606 1166 l 606 1244 q 683 1295 683 1244 q 618 1339 683 1339 q 580 1333 607 1339 l 580 1405 m 633 1063 l 551 1063 l 440 1164 l 328 1063 l 252 1063 l 397 1233 l 488 1233 l 633 1063 z "},"ẩ":{"ha":707,"x_min":61,"x_max":679,"o":"m 610 0 l 498 0 l 498 109 l 496 109 q 282 -16 423 -16 q 120 39 178 -16 q 61 184 61 94 q 290 411 61 379 l 498 440 q 355 617 498 617 q 129 532 230 617 l 129 646 q 365 711 231 711 q 610 452 610 711 l 610 0 m 498 351 l 331 328 q 214 290 254 317 q 175 193 175 262 q 211 110 175 142 q 308 77 248 77 q 445 135 391 77 q 498 282 498 193 l 498 351 m 489 1168 q 543 1171 513 1171 q 641 1142 604 1171 q 679 1065 679 1114 q 653 996 679 1025 q 589 963 628 968 l 589 929 l 515 929 l 515 1007 q 592 1058 592 1007 q 528 1101 592 1101 q 489 1096 516 1101 l 489 1168 m 542 826 l 460 826 l 349 926 l 237 826 l 161 826 l 306 996 l 397 996 l 542 826 z "},"Ẫ":{"ha":896,"x_min":15,"x_max":880,"o":"m 880 0 l 754 0 l 651 273 l 239 273 l 142 0 l 15 0 l 388 972 l 506 972 l 880 0 m 614 375 l 461 789 q 446 854 454 810 l 444 854 q 428 789 437 813 l 277 375 l 614 375 m 660 1432 q 628 1323 660 1363 q 539 1284 597 1284 q 435 1309 494 1284 q 349 1334 376 1334 q 289 1272 289 1334 l 225 1272 q 349 1417 225 1417 q 447 1392 391 1417 q 536 1366 502 1366 q 593 1432 593 1366 l 660 1432 m 633 1061 l 551 1061 l 440 1162 l 328 1061 l 252 1061 l 397 1231 l 488 1231 l 633 1061 z "},"ẫ":{"ha":707,"x_min":61,"x_max":610,"o":"m 610 0 l 498 0 l 498 109 l 496 109 q 282 -16 423 -16 q 120 39 178 -16 q 61 184 61 94 q 290 411 61 379 l 498 440 q 355 617 498 617 q 129 532 230 617 l 129 646 q 365 711 231 711 q 610 452 610 711 l 610 0 m 498 351 l 331 328 q 214 290 254 317 q 175 193 175 262 q 211 110 175 142 q 308 77 248 77 q 445 135 391 77 q 498 282 498 193 l 498 351 m 581 1196 q 550 1088 581 1128 q 460 1048 518 1048 q 357 1074 415 1048 q 270 1099 298 1099 q 210 1036 210 1099 l 146 1036 q 270 1182 146 1182 q 368 1156 313 1182 q 458 1131 423 1131 q 515 1196 515 1131 l 581 1196 m 555 826 l 473 826 l 361 926 l 249 826 l 173 826 l 319 996 l 409 996 l 555 826 z "},"Ậ":{"ha":896,"x_min":15,"x_max":880,"o":"m 880 0 l 754 0 l 651 273 l 239 273 l 142 0 l 15 0 l 388 972 l 506 972 l 880 0 m 614 375 l 461 789 q 446 854 454 810 l 444 854 q 428 789 437 813 l 277 375 l 614 375 m 630 1063 l 547 1063 l 436 1219 l 324 1063 l 248 1063 l 393 1288 l 484 1288 l 630 1063 m 463 -213 q 416 -193 435 -213 q 396 -146 396 -174 q 416 -99 396 -118 q 463 -81 437 -81 q 511 -99 491 -81 q 530 -146 530 -118 q 511 -193 530 -174 q 463 -213 491 -213 z "},"ậ":{"ha":707,"x_min":61,"x_max":610,"o":"m 610 0 l 498 0 l 498 109 l 496 109 q 282 -16 423 -16 q 120 39 178 -16 q 61 184 61 94 q 290 411 61 379 l 498 440 q 355 617 498 617 q 129 532 230 617 l 129 646 q 365 711 231 711 q 610 452 610 711 l 610 0 m 498 351 l 331 328 q 214 290 254 317 q 175 193 175 262 q 211 110 175 142 q 308 77 248 77 q 445 135 391 77 q 498 282 498 193 l 498 351 m 547 826 l 465 826 l 353 982 l 241 826 l 165 826 l 311 1051 l 401 1051 l 547 826 m 363 -213 q 315 -193 335 -213 q 296 -146 296 -174 q 316 -99 296 -118 q 363 -81 336 -81 q 410 -99 391 -81 q 430 -146 430 -118 q 410 -193 430 -174 q 363 -213 391 -213 z "},"Ắ":{"ha":896,"x_min":15,"x_max":880,"o":"m 880 0 l 754 0 l 651 273 l 239 273 l 142 0 l 15 0 l 388 972 l 506 972 l 880 0 m 614 375 l 461 789 q 446 854 454 810 l 444 854 q 428 789 437 813 l 277 375 l 614 375 m 380 1219 l 503 1385 l 616 1385 l 466 1219 l 380 1219 m 631 1232 q 571 1108 625 1156 q 442 1061 518 1061 q 313 1108 363 1061 q 259 1232 262 1155 l 327 1232 q 444 1141 334 1141 q 562 1232 550 1141 l 631 1232 z "},"ắ":{"ha":707,"x_min":61,"x_max":610,"o":"m 610 0 l 498 0 l 498 109 l 496 109 q 282 -16 423 -16 q 120 39 178 -16 q 61 184 61 94 q 290 411 61 379 l 498 440 q 355 617 498 617 q 129 532 230 617 l 129 646 q 365 711 231 711 q 610 452 610 711 l 610 0 m 498 351 l 331 328 q 214 290 254 317 q 175 193 175 262 q 211 110 175 142 q 308 77 248 77 q 445 135 391 77 q 498 282 498 193 l 498 351 m 301 983 l 424 1150 l 537 1150 l 387 983 l 301 983 m 553 997 q 493 873 546 920 q 363 826 439 826 q 234 873 284 826 q 180 997 184 920 l 248 997 q 365 906 256 906 q 484 997 471 906 l 553 997 z "},"Ằ":{"ha":896,"x_min":15,"x_max":880,"o":"m 880 0 l 754 0 l 651 273 l 239 273 l 142 0 l 15 0 l 388 972 l 506 972 l 880 0 m 614 375 l 461 789 q 446 854 454 810 l 444 854 q 428 789 437 813 l 277 375 l 614 375 m 508 1219 l 422 1219 l 272 1386 l 386 1386 l 508 1219 m 257 1233 l 326 1233 q 444 1142 337 1142 q 561 1233 554 1142 l 629 1233 q 575 1109 626 1156 q 446 1062 524 1062 q 317 1109 370 1062 q 257 1233 264 1157 z "},"ằ":{"ha":707,"x_min":61,"x_max":610,"o":"m 610 0 l 498 0 l 498 109 l 496 109 q 282 -16 423 -16 q 120 39 178 -16 q 61 184 61 94 q 290 411 61 379 l 498 440 q 355 617 498 617 q 129 532 230 617 l 129 646 q 365 711 231 711 q 610 452 610 711 l 610 0 m 498 351 l 331 328 q 214 290 254 317 q 175 193 175 262 q 211 110 175 142 q 308 77 248 77 q 445 135 391 77 q 498 282 498 193 l 498 351 m 444 983 l 358 983 l 208 1150 l 322 1150 l 444 983 m 193 997 l 262 997 q 380 906 273 906 q 497 997 490 906 l 565 997 q 511 873 562 920 q 382 826 460 826 q 253 873 306 826 q 193 997 200 921 z "},"Ẳ":{"ha":896,"x_min":15,"x_max":880,"o":"m 880 0 l 754 0 l 651 273 l 239 273 l 142 0 l 15 0 l 388 972 l 506 972 l 880 0 m 614 375 l 461 789 q 446 854 454 810 l 444 854 q 428 789 437 813 l 277 375 l 614 375 m 380 1455 q 434 1457 406 1457 q 533 1429 496 1457 q 571 1352 571 1400 q 544 1282 571 1311 q 480 1249 517 1254 l 480 1216 l 407 1216 l 407 1293 q 483 1345 483 1293 q 419 1388 483 1388 q 380 1383 408 1388 l 380 1455 m 639 1232 q 579 1108 632 1156 q 450 1061 526 1061 q 320 1108 370 1061 q 267 1232 270 1155 l 334 1232 q 451 1141 342 1141 q 570 1232 557 1141 l 639 1232 z "},"ẳ":{"ha":707,"x_min":61,"x_max":610,"o":"m 610 0 l 498 0 l 498 109 l 496 109 q 282 -16 423 -16 q 120 39 178 -16 q 61 184 61 94 q 290 411 61 379 l 498 440 q 355 617 498 617 q 129 532 230 617 l 129 646 q 365 711 231 711 q 610 452 610 711 l 610 0 m 498 351 l 331 328 q 214 290 254 317 q 175 193 175 262 q 211 110 175 142 q 308 77 248 77 q 445 135 391 77 q 498 282 498 193 l 498 351 m 294 1219 q 348 1222 319 1222 q 447 1194 410 1222 q 485 1116 485 1165 q 458 1047 485 1076 q 394 1014 431 1019 l 394 981 l 321 981 l 321 1058 q 397 1109 397 1058 q 333 1153 397 1153 q 294 1147 321 1153 l 294 1219 m 553 997 q 493 873 546 920 q 363 826 439 826 q 234 873 284 826 q 180 997 184 920 l 248 997 q 365 906 256 906 q 484 997 471 906 l 553 997 z "},"Ẵ":{"ha":896,"x_min":15,"x_max":880,"o":"m 880 0 l 754 0 l 651 273 l 239 273 l 142 0 l 15 0 l 388 972 l 506 972 l 880 0 m 614 375 l 461 789 q 446 854 454 810 l 444 854 q 428 789 437 813 l 277 375 l 614 375 m 667 1432 q 635 1323 667 1363 q 546 1284 604 1284 q 442 1309 500 1284 q 355 1334 383 1334 q 296 1272 296 1334 l 232 1272 q 355 1417 232 1417 q 454 1392 398 1417 q 543 1366 509 1366 q 600 1432 600 1366 l 667 1432 m 635 1232 q 575 1108 629 1156 q 447 1061 522 1061 q 317 1108 367 1061 q 263 1232 267 1155 l 332 1232 q 448 1141 338 1141 q 566 1232 554 1141 l 635 1232 z "},"ẵ":{"ha":707,"x_min":61,"x_max":610,"o":"m 610 0 l 498 0 l 498 109 l 496 109 q 282 -16 423 -16 q 120 39 178 -16 q 61 184 61 94 q 290 411 61 379 l 498 440 q 355 617 498 617 q 129 532 230 617 l 129 646 q 365 711 231 711 q 610 452 610 711 l 610 0 m 498 351 l 331 328 q 214 290 254 317 q 175 193 175 262 q 211 110 175 142 q 308 77 248 77 q 445 135 391 77 q 498 282 498 193 l 498 351 m 585 1196 q 554 1088 585 1128 q 465 1048 522 1048 q 361 1074 419 1048 q 274 1099 302 1099 q 214 1036 214 1099 l 151 1036 q 274 1182 151 1182 q 372 1156 317 1182 q 462 1131 427 1131 q 519 1196 519 1131 l 585 1196 m 554 997 q 494 873 547 920 q 366 826 441 826 q 235 873 286 826 q 182 997 185 920 l 250 997 q 367 906 257 906 q 485 997 473 906 l 554 997 z "},"Ặ":{"ha":896,"x_min":15,"x_max":880,"o":"m 880 0 l 754 0 l 651 273 l 239 273 l 142 0 l 15 0 l 388 972 l 506 972 l 880 0 m 614 375 l 461 789 q 446 854 454 810 l 444 854 q 428 789 437 813 l 277 375 l 614 375 m 635 1233 q 575 1109 628 1156 q 446 1062 522 1062 q 316 1109 366 1062 q 262 1233 266 1156 l 330 1233 q 447 1128 338 1128 q 526 1156 493 1128 q 566 1233 559 1185 l 635 1233 m 463 -213 q 416 -193 435 -213 q 396 -146 396 -174 q 416 -99 396 -118 q 463 -81 437 -81 q 511 -99 491 -81 q 530 -146 530 -118 q 511 -193 530 -174 q 463 -213 491 -213 z "},"ặ":{"ha":707,"x_min":61,"x_max":610,"o":"m 610 0 l 498 0 l 498 109 l 496 109 q 282 -16 423 -16 q 120 39 178 -16 q 61 184 61 94 q 290 411 61 379 l 498 440 q 355 617 498 617 q 129 532 230 617 l 129 646 q 365 711 231 711 q 610 452 610 711 l 610 0 m 498 351 l 331 328 q 214 290 254 317 q 175 193 175 262 q 211 110 175 142 q 308 77 248 77 q 445 135 391 77 q 498 282 498 193 l 498 351 m 547 997 q 487 873 540 920 q 357 826 433 826 q 228 873 278 826 q 174 997 178 920 l 242 997 q 359 892 250 892 q 438 920 405 892 q 477 997 471 949 l 547 997 m 363 -213 q 315 -193 335 -213 q 296 -146 296 -174 q 316 -99 296 -118 q 363 -81 336 -81 q 410 -99 391 -81 q 430 -146 430 -118 q 410 -193 430 -174 q 363 -213 391 -213 z "},"Ẹ":{"ha":703,"x_min":127,"x_max":643,"o":"m 643 0 l 127 0 l 127 972 l 621 972 l 621 869 l 241 869 l 241 546 l 593 546 l 593 444 l 241 444 l 241 103 l 643 103 l 643 0 m 396 -213 q 349 -193 368 -213 q 329 -146 329 -174 q 349 -99 329 -118 q 396 -81 370 -81 q 444 -99 424 -81 q 463 -146 463 -118 q 444 -193 463 -174 q 396 -213 424 -213 z "},"ẹ":{"ha":726,"x_min":65,"x_max":671,"o":"m 671 319 l 180 319 q 243 140 183 203 q 407 77 302 77 q 623 155 524 77 l 623 50 q 380 -16 531 -16 q 149 78 233 -16 q 65 345 65 173 q 157 609 65 507 q 385 711 249 711 q 596 623 522 711 q 671 378 671 534 l 671 319 m 557 414 q 510 564 556 510 q 383 617 465 617 q 250 561 304 617 q 182 414 195 505 l 557 414 m 395 -213 q 348 -193 368 -213 q 328 -146 328 -174 q 349 -99 328 -118 q 395 -81 369 -81 q 443 -99 423 -81 q 463 -146 463 -118 q 443 -193 463 -174 q 395 -213 423 -213 z "},"Ẻ":{"ha":703,"x_min":127,"x_max":643,"o":"m 643 0 l 127 0 l 127 972 l 621 972 l 621 869 l 241 869 l 241 546 l 593 546 l 593 444 l 241 444 l 241 103 l 643 103 l 643 0 m 298 1301 q 353 1304 323 1304 q 451 1276 412 1304 q 489 1199 489 1247 q 463 1129 489 1158 q 398 1096 437 1101 l 398 1062 l 325 1062 l 325 1140 q 401 1192 401 1140 q 337 1234 401 1234 q 298 1229 326 1234 l 298 1301 z "},"ẻ":{"ha":726,"x_min":65,"x_max":671,"o":"m 671 319 l 180 319 q 243 140 183 203 q 407 77 302 77 q 623 155 524 77 l 623 50 q 380 -16 531 -16 q 149 78 233 -16 q 65 345 65 173 q 157 609 65 507 q 385 711 249 711 q 596 623 522 711 q 671 378 671 534 l 671 319 m 557 414 q 510 564 556 510 q 383 617 465 617 q 250 561 304 617 q 182 414 195 505 l 557 414 m 307 1065 q 361 1068 332 1068 q 459 1040 420 1068 q 497 963 497 1011 q 471 893 497 922 q 406 860 445 865 l 406 826 l 333 826 l 333 904 q 409 956 409 904 q 345 998 409 998 q 307 993 334 998 l 307 1065 z "},"Ẽ":{"ha":703,"x_min":127,"x_max":643,"o":"m 643 0 l 127 0 l 127 972 l 621 972 l 621 869 l 241 869 l 241 546 l 593 546 l 593 444 l 241 444 l 241 103 l 643 103 l 643 0 m 608 1225 q 575 1108 608 1154 q 487 1063 543 1063 q 377 1099 439 1063 q 296 1128 325 1128 q 237 1051 237 1128 l 173 1051 q 205 1167 173 1124 q 296 1211 238 1211 q 397 1176 340 1211 q 484 1146 448 1146 q 541 1225 541 1146 l 608 1225 z "},"ẽ":{"ha":726,"x_min":65,"x_max":671,"o":"m 671 319 l 180 319 q 243 140 183 203 q 407 77 302 77 q 623 155 524 77 l 623 50 q 380 -16 531 -16 q 149 78 233 -16 q 65 345 65 173 q 157 609 65 507 q 385 711 249 711 q 596 623 522 711 q 671 378 671 534 l 671 319 m 557 414 q 510 564 556 510 q 383 617 465 617 q 250 561 304 617 q 182 414 195 505 l 557 414 m 594 989 q 562 872 594 918 q 473 827 529 827 q 363 863 425 827 q 283 892 311 892 q 223 815 223 892 l 159 815 q 192 931 159 888 q 283 975 224 975 q 384 940 327 975 q 471 910 434 910 q 528 989 528 910 l 594 989 z "},"Ế":{"ha":703,"x_min":127,"x_max":770,"o":"m 643 0 l 127 0 l 127 972 l 621 972 l 621 869 l 241 869 l 241 546 l 593 546 l 593 444 l 241 444 l 241 103 l 643 103 l 643 0 m 534 1164 l 656 1331 l 770 1331 l 620 1164 l 534 1164 m 578 1061 l 496 1061 l 385 1162 l 273 1061 l 196 1061 l 342 1231 l 432 1231 l 578 1061 z "},"ế":{"ha":726,"x_min":65,"x_max":755,"o":"m 671 319 l 180 319 q 243 140 183 203 q 407 77 302 77 q 623 155 524 77 l 623 50 q 380 -16 531 -16 q 149 78 233 -16 q 65 345 65 173 q 157 609 65 507 q 385 711 249 711 q 596 623 522 711 q 671 378 671 534 l 671 319 m 557 414 q 510 564 556 510 q 383 617 465 617 q 250 561 304 617 q 182 414 195 505 l 557 414 m 519 929 l 642 1096 l 755 1096 l 606 929 l 519 929 m 564 826 l 482 826 l 371 926 l 258 826 l 182 826 l 328 996 l 418 996 l 564 826 z "},"Ề":{"ha":703,"x_min":9,"x_max":643,"o":"m 643 0 l 127 0 l 127 972 l 621 972 l 621 869 l 241 869 l 241 546 l 593 546 l 593 444 l 241 444 l 241 103 l 643 103 l 643 0 m 245 1166 l 160 1166 l 9 1333 l 123 1333 l 245 1166 m 201 1063 l 347 1232 l 438 1232 l 583 1063 l 507 1063 l 395 1163 l 283 1063 l 201 1063 z "},"ề":{"ha":726,"x_min":8,"x_max":671,"o":"m 671 319 l 180 319 q 243 140 183 203 q 407 77 302 77 q 623 155 524 77 l 623 50 q 380 -16 531 -16 q 149 78 233 -16 q 65 345 65 173 q 157 609 65 507 q 385 711 249 711 q 596 623 522 711 q 671 378 671 534 l 671 319 m 557 414 q 510 564 556 510 q 383 617 465 617 q 250 561 304 617 q 182 414 195 505 l 557 414 m 244 929 l 159 929 l 8 1096 l 122 1096 l 244 929 m 200 826 l 346 996 l 437 996 l 582 826 l 506 826 l 393 926 l 282 826 l 200 826 z "},"Ể":{"ha":703,"x_min":127,"x_max":716,"o":"m 643 0 l 127 0 l 127 972 l 621 972 l 621 869 l 241 869 l 241 546 l 593 546 l 593 444 l 241 444 l 241 103 l 643 103 l 643 0 m 526 1404 q 581 1407 551 1407 q 679 1378 641 1407 q 716 1301 716 1350 q 691 1232 716 1261 q 627 1199 665 1204 l 627 1165 l 553 1165 l 553 1243 q 629 1294 629 1243 q 565 1337 629 1337 q 526 1332 553 1337 l 526 1404 m 579 1062 l 498 1062 l 387 1162 l 274 1062 l 198 1062 l 343 1232 l 434 1232 l 579 1062 z "},"ể":{"ha":726,"x_min":65,"x_max":728,"o":"m 671 319 l 180 319 q 243 140 183 203 q 407 77 302 77 q 623 155 524 77 l 623 50 q 380 -16 531 -16 q 149 78 233 -16 q 65 345 65 173 q 157 609 65 507 q 385 711 249 711 q 596 623 522 711 q 671 378 671 534 l 671 319 m 557 414 q 510 564 556 510 q 383 617 465 617 q 250 561 304 617 q 182 414 195 505 l 557 414 m 538 1168 q 593 1171 563 1171 q 691 1142 653 1171 q 728 1065 728 1114 q 703 996 728 1025 q 639 963 677 968 l 639 929 l 565 929 l 565 1007 q 642 1058 642 1007 q 577 1101 642 1101 q 538 1096 566 1101 l 538 1168 m 591 826 l 510 826 l 399 926 l 286 826 l 210 826 l 355 996 l 446 996 l 591 826 z "},"Ễ":{"ha":703,"x_min":127,"x_max":643,"o":"m 643 0 l 127 0 l 127 972 l 621 972 l 621 869 l 241 869 l 241 546 l 593 546 l 593 444 l 241 444 l 241 103 l 643 103 l 643 0 m 602 1432 q 571 1324 602 1364 q 481 1284 539 1284 q 378 1310 436 1284 q 291 1335 319 1335 q 231 1272 231 1335 l 168 1272 q 291 1418 168 1418 q 389 1392 334 1418 q 479 1367 444 1367 q 536 1432 536 1367 l 602 1432 m 576 1062 l 494 1062 l 382 1162 l 270 1062 l 194 1062 l 340 1232 l 430 1232 l 576 1062 z "},"ễ":{"ha":726,"x_min":65,"x_max":671,"o":"m 671 319 l 180 319 q 243 140 183 203 q 407 77 302 77 q 623 155 524 77 l 623 50 q 380 -16 531 -16 q 149 78 233 -16 q 65 345 65 173 q 157 609 65 507 q 385 711 249 711 q 596 623 522 711 q 671 378 671 534 l 671 319 m 557 414 q 510 564 556 510 q 383 617 465 617 q 250 561 304 617 q 182 414 195 505 l 557 414 m 597 1196 q 566 1088 597 1128 q 477 1048 534 1048 q 373 1074 431 1048 q 286 1099 314 1099 q 227 1036 227 1099 l 163 1036 q 286 1182 163 1182 q 385 1156 329 1182 q 474 1131 439 1131 q 531 1196 531 1131 l 597 1196 m 571 826 l 489 826 l 378 926 l 265 826 l 189 826 l 335 996 l 425 996 l 571 826 z "},"Ệ":{"ha":703,"x_min":127,"x_max":643,"o":"m 643 0 l 127 0 l 127 972 l 621 972 l 621 869 l 241 869 l 241 546 l 593 546 l 593 444 l 241 444 l 241 103 l 643 103 l 643 0 m 574 1063 l 492 1063 l 380 1219 l 269 1063 l 192 1063 l 338 1288 l 428 1288 l 574 1063 m 390 -213 q 342 -193 362 -213 q 323 -146 323 -174 q 343 -99 323 -118 q 390 -81 363 -81 q 437 -99 418 -81 q 457 -146 457 -118 q 437 -193 457 -174 q 390 -213 418 -213 z "},"ệ":{"ha":726,"x_min":65,"x_max":671,"o":"m 671 319 l 180 319 q 243 140 183 203 q 407 77 302 77 q 623 155 524 77 l 623 50 q 380 -16 531 -16 q 149 78 233 -16 q 65 345 65 173 q 157 609 65 507 q 385 711 249 711 q 596 623 522 711 q 671 378 671 534 l 671 319 m 557 414 q 510 564 556 510 q 383 617 465 617 q 250 561 304 617 q 182 414 195 505 l 557 414 m 567 826 l 484 826 l 373 982 l 261 826 l 184 826 l 330 1051 l 420 1051 l 567 826 m 393 -213 q 346 -193 366 -213 q 326 -146 326 -174 q 347 -99 326 -118 q 393 -81 367 -81 q 441 -99 421 -81 q 460 -146 460 -118 q 441 -193 460 -174 q 393 -213 421 -213 z "},"Ỉ":{"ha":370,"x_min":104,"x_max":295,"o":"m 241 0 l 127 0 l 127 972 l 241 972 l 241 0 m 104 1301 q 159 1304 130 1304 q 257 1276 218 1304 q 295 1199 295 1247 q 269 1129 295 1158 q 204 1096 243 1101 l 204 1062 l 131 1062 l 131 1140 q 207 1192 207 1140 q 143 1234 207 1234 q 104 1229 132 1234 l 104 1301 z "},"ỉ":{"ha":336,"x_min":92,"x_max":283,"o":"m 224 0 l 113 0 l 113 694 l 224 694 l 224 0 m 92 1065 q 146 1068 117 1068 q 244 1040 206 1068 q 283 963 283 1011 q 257 893 283 922 q 192 860 231 865 l 192 826 l 119 826 l 119 904 q 195 956 195 904 q 131 998 195 998 q 92 993 119 998 l 92 1065 z "},"Ị":{"ha":370,"x_min":121,"x_max":255,"o":"m 241 0 l 127 0 l 127 972 l 241 972 l 241 0 m 188 -213 q 140 -193 160 -213 q 121 -146 121 -174 q 141 -99 121 -118 q 188 -81 161 -81 q 235 -99 216 -81 q 255 -146 255 -118 q 235 -193 255 -174 q 188 -213 216 -213 z "},"ị":{"ha":336,"x_min":98,"x_max":243,"o":"m 170 871 q 119 891 140 871 q 98 943 98 911 q 119 995 98 974 q 170 1015 140 1015 q 221 995 200 1015 q 243 943 243 974 q 221 892 243 913 q 170 871 200 871 m 224 0 l 113 0 l 113 694 l 224 694 l 224 0 m 168 -213 q 121 -193 140 -213 q 101 -146 101 -174 q 121 -99 101 -118 q 168 -81 142 -81 q 216 -99 196 -81 q 235 -146 235 -118 q 216 -193 235 -174 q 168 -213 196 -213 z "},"Ọ":{"ha":1047,"x_min":64,"x_max":983,"o":"m 519 -16 q 188 120 313 -16 q 64 475 64 256 q 191 849 64 709 q 536 989 317 989 q 860 853 737 989 q 983 498 983 718 q 857 122 983 260 q 519 -16 731 -16 m 528 886 q 279 775 374 886 q 183 485 183 665 q 276 196 183 305 q 519 86 370 86 q 772 191 680 86 q 864 483 864 295 q 774 781 864 675 q 528 886 685 886 m 519 -213 q 471 -193 491 -213 q 452 -146 452 -174 q 472 -99 452 -118 q 519 -81 492 -81 q 566 -99 547 -81 q 586 -146 586 -118 q 566 -193 586 -174 q 519 -213 547 -213 z "},"ọ":{"ha":814,"x_min":65,"x_max":749,"o":"m 403 -16 q 157 81 249 -16 q 65 339 65 178 q 161 612 65 514 q 419 711 256 711 q 662 615 574 711 q 749 350 749 519 q 655 84 749 184 q 403 -16 561 -16 m 411 617 q 241 544 304 617 q 179 343 179 471 q 242 149 179 220 q 411 77 305 77 q 577 147 519 77 q 635 346 635 217 q 577 547 635 476 q 411 617 519 617 m 409 -213 q 361 -193 381 -213 q 342 -146 342 -174 q 362 -99 342 -118 q 409 -81 382 -81 q 456 -99 437 -81 q 476 -146 476 -118 q 456 -193 476 -174 q 409 -213 437 -213 z "},"Ỏ":{"ha":1047,"x_min":64,"x_max":983,"o":"m 519 -16 q 188 120 313 -16 q 64 475 64 256 q 191 849 64 709 q 536 989 317 989 q 860 853 737 989 q 983 498 983 718 q 857 122 983 260 q 519 -16 731 -16 m 528 886 q 279 775 374 886 q 183 485 183 665 q 276 196 183 305 q 519 86 370 86 q 772 191 680 86 q 864 483 864 295 q 774 781 864 675 q 528 886 685 886 m 456 1301 q 511 1304 481 1304 q 609 1276 570 1304 q 647 1199 647 1247 q 621 1129 647 1158 q 556 1096 595 1101 l 556 1062 l 483 1062 l 483 1140 q 559 1192 559 1140 q 495 1234 559 1234 q 456 1229 484 1234 l 456 1301 z "},"ỏ":{"ha":814,"x_min":65,"x_max":749,"o":"m 403 -16 q 157 81 249 -16 q 65 339 65 178 q 161 612 65 514 q 419 711 256 711 q 662 615 574 711 q 749 350 749 519 q 655 84 749 184 q 403 -16 561 -16 m 411 617 q 241 544 304 617 q 179 343 179 471 q 242 149 179 220 q 411 77 305 77 q 577 147 519 77 q 635 346 635 217 q 577 547 635 476 q 411 617 519 617 m 335 1065 q 389 1068 360 1068 q 487 1040 449 1068 q 526 963 526 1011 q 499 893 526 922 q 435 860 473 865 l 435 826 l 361 826 l 361 904 q 437 956 437 904 q 374 998 437 998 q 335 993 362 998 l 335 1065 z "},"Ố":{"ha":1047,"x_min":64,"x_max":983,"o":"m 519 -16 q 188 120 313 -16 q 64 475 64 256 q 191 849 64 709 q 536 989 317 989 q 860 853 737 989 q 983 498 983 718 q 857 122 983 260 q 519 -16 731 -16 m 528 886 q 279 775 374 886 q 183 485 183 665 q 276 196 183 305 q 519 86 370 86 q 772 191 680 86 q 864 483 864 295 q 774 781 864 675 q 528 886 685 886 m 677 1166 l 800 1333 l 913 1333 l 764 1166 l 677 1166 m 722 1063 l 640 1063 l 529 1163 l 416 1063 l 340 1063 l 486 1232 l 576 1232 l 722 1063 z "},"ố":{"ha":814,"x_min":65,"x_max":798,"o":"m 403 -16 q 157 81 249 -16 q 65 339 65 178 q 161 612 65 514 q 419 711 256 711 q 662 615 574 711 q 749 350 749 519 q 655 84 749 184 q 403 -16 561 -16 m 411 617 q 241 544 304 617 q 179 343 179 471 q 242 149 179 220 q 411 77 305 77 q 577 147 519 77 q 635 346 635 217 q 577 547 635 476 q 411 617 519 617 m 562 929 l 684 1096 l 798 1096 l 648 929 l 562 929 m 606 826 l 524 826 l 413 926 l 300 826 l 224 826 l 370 996 l 460 996 l 606 826 z "},"Ồ":{"ha":1047,"x_min":64,"x_max":983,"o":"m 519 -16 q 188 120 313 -16 q 64 475 64 256 q 191 849 64 709 q 536 989 317 989 q 860 853 737 989 q 983 498 983 718 q 857 122 983 260 q 519 -16 731 -16 m 528 886 q 279 775 374 886 q 183 485 183 665 q 276 196 183 305 q 519 86 370 86 q 772 191 680 86 q 864 483 864 295 q 774 781 864 675 q 528 886 685 886 m 381 1166 l 296 1166 l 145 1333 l 259 1333 l 381 1166 m 337 1063 l 483 1232 l 574 1232 l 719 1063 l 643 1063 l 530 1163 l 419 1063 l 337 1063 z "},"ồ":{"ha":814,"x_min":33,"x_max":749,"o":"m 403 -16 q 157 81 249 -16 q 65 339 65 178 q 161 612 65 514 q 419 711 256 711 q 662 615 574 711 q 749 350 749 519 q 655 84 749 184 q 403 -16 561 -16 m 411 617 q 241 544 304 617 q 179 343 179 471 q 242 149 179 220 q 411 77 305 77 q 577 147 519 77 q 635 346 635 217 q 577 547 635 476 q 411 617 519 617 m 269 929 l 183 929 l 33 1096 l 146 1096 l 269 929 m 224 826 l 370 996 l 461 996 l 606 826 l 530 826 l 418 926 l 307 826 l 224 826 z "},"Ổ":{"ha":1047,"x_min":64,"x_max":983,"o":"m 519 -16 q 188 120 313 -16 q 64 475 64 256 q 191 849 64 709 q 536 989 317 989 q 860 853 737 989 q 983 498 983 718 q 857 122 983 260 q 519 -16 731 -16 m 528 886 q 279 775 374 886 q 183 485 183 665 q 276 196 183 305 q 519 86 370 86 q 772 191 680 86 q 864 483 864 295 q 774 781 864 675 q 528 886 685 886 m 656 1404 q 711 1407 681 1407 q 809 1378 771 1407 q 846 1301 846 1350 q 821 1232 846 1261 q 757 1199 795 1204 l 757 1165 l 683 1165 l 683 1243 q 760 1294 760 1243 q 695 1337 760 1337 q 656 1332 684 1337 l 656 1404 m 709 1062 l 628 1062 l 517 1162 l 404 1062 l 328 1062 l 473 1232 l 564 1232 l 709 1062 z "},"ổ":{"ha":814,"x_min":65,"x_max":749,"o":"m 403 -16 q 157 81 249 -16 q 65 339 65 178 q 161 612 65 514 q 419 711 256 711 q 662 615 574 711 q 749 350 749 519 q 655 84 749 184 q 403 -16 561 -16 m 411 617 q 241 544 304 617 q 179 343 179 471 q 242 149 179 220 q 411 77 305 77 q 577 147 519 77 q 635 346 635 217 q 577 547 635 476 q 411 617 519 617 m 557 1168 q 611 1171 581 1171 q 709 1142 671 1171 q 747 1065 747 1114 q 721 996 747 1025 q 657 963 696 968 l 657 929 l 583 929 l 583 1007 q 660 1058 660 1007 q 595 1101 660 1101 q 557 1096 584 1101 l 557 1168 m 610 826 l 528 826 l 417 926 l 304 826 l 229 826 l 374 996 l 465 996 l 610 826 z "},"Ỗ":{"ha":1047,"x_min":64,"x_max":983,"o":"m 519 -16 q 188 120 313 -16 q 64 475 64 256 q 191 849 64 709 q 536 989 317 989 q 860 853 737 989 q 983 498 983 718 q 857 122 983 260 q 519 -16 731 -16 m 528 886 q 279 775 374 886 q 183 485 183 665 q 276 196 183 305 q 519 86 370 86 q 772 191 680 86 q 864 483 864 295 q 774 781 864 675 q 528 886 685 886 m 751 1432 q 719 1324 751 1364 q 630 1284 688 1284 q 526 1310 585 1284 q 439 1335 467 1335 q 380 1272 380 1335 l 316 1272 q 439 1418 316 1418 q 538 1392 482 1418 q 627 1367 593 1367 q 684 1432 684 1367 l 751 1432 m 724 1062 l 642 1062 l 531 1162 l 418 1062 l 342 1062 l 488 1232 l 578 1232 l 724 1062 z "},"ỗ":{"ha":814,"x_min":65,"x_max":749,"o":"m 403 -16 q 157 81 249 -16 q 65 339 65 178 q 161 612 65 514 q 419 711 256 711 q 662 615 574 711 q 749 350 749 519 q 655 84 749 184 q 403 -16 561 -16 m 411 617 q 241 544 304 617 q 179 343 179 471 q 242 149 179 220 q 411 77 305 77 q 577 147 519 77 q 635 346 635 217 q 577 547 635 476 q 411 617 519 617 m 625 1196 q 594 1088 625 1128 q 505 1048 562 1048 q 401 1074 459 1048 q 314 1099 342 1099 q 254 1036 254 1099 l 191 1036 q 314 1182 191 1182 q 412 1156 357 1182 q 502 1131 467 1131 q 559 1196 559 1131 l 625 1196 m 599 826 l 517 826 l 406 926 l 293 826 l 217 826 l 363 996 l 453 996 l 599 826 z "},"Ộ":{"ha":1047,"x_min":64,"x_max":983,"o":"m 519 -16 q 188 120 313 -16 q 64 475 64 256 q 191 849 64 709 q 536 989 317 989 q 860 853 737 989 q 983 498 983 718 q 857 122 983 260 q 519 -16 731 -16 m 528 886 q 279 775 374 886 q 183 485 183 665 q 276 196 183 305 q 519 86 370 86 q 772 191 680 86 q 864 483 864 295 q 774 781 864 675 q 528 886 685 886 m 730 1063 l 647 1063 l 536 1219 l 424 1063 l 347 1063 l 493 1288 l 583 1288 l 730 1063 m 524 -213 q 477 -193 496 -213 q 457 -146 457 -174 q 477 -99 457 -118 q 524 -81 498 -81 q 572 -99 552 -81 q 591 -146 591 -118 q 572 -193 591 -174 q 524 -213 552 -213 z "}}}
